{"accessors":[{"bufferView":0,"componentType":5121,"count":900,"max":[172],"min":[0],"type":"SCALAR"},{"bufferView":1,"componentType":5126,"count":173,"max":[32.49816131591797,95.20330810546875,33.94292449951172],"min":[-20.436094284057617,0.0,-20.436094284057617],"type":"VEC3"},{"bufferView":2,"componentType":5126,"count":173,"max":[1.0,1.0,1.0],"min":[-0.0,0.0,-0.0],"type":"VEC3"},{"bufferView":3,"componentType":5126,"count":173,"max":[1.0,1.0],"min":[0.0,0.0],"type":"VEC2"},{"bufferView":4,"componentType":5123,"count":39864,"max":[11646],"min":[0],"type":"SCALAR"},{"bufferView":5,"componentType":5126,"count":11647,"max":[22.042213439941406,140.0144805908203,37.493309020996094],"min":[-21.750686645507812,-153.5861358642578,-18.716691970825195],"type":"VEC3"},{"bufferView":6,"componentType":5126,"count":11647,"max":[1.0,1.0,1.0],"min":[-1.0,-1.0,-1.0],"type":"VEC3"},{"bufferView":7,"componentType":5126,"count":11647,"max":[1.041700005531311,1.0],"min":[-0.027799999341368675,-1.998500108718872],"type":"VEC2"},{"bufferView":8,"componentType":5123,"count":38388,"max":[13194],"min":[0],"type":"SCALAR"},{"bufferView":9,"componentType":5126,"count":13195,"max":[3.4471137523651123,93.45018005371094,2.7041091918945312],"min":[-3.5411863327026367,-2.6033287048339844,-34.59899139404297],"type":"VEC3"},{"bufferView":10,"componentType":5126,"count":13195,"max":[1.0,1.0,1.0],"min":[-1.0,-1.0,-1.0],"type":"VEC3"},{"bufferView":11,"componentType":5126,"count":13195,"max":[1.0146000385284424,1.0],"min":[-0.3255999982357025,-0.3434000015258789],"type":"VEC2"},{"bufferView":12,"componentType":5125,"count":147456,"max":[98303],"min":[0],"type":"SCALAR"},{"bufferView":13,"componentType":5126,"count":98304,"max":[0.856252133846283,0.856252133846283,0.856252133846283],"min":[-0.8562520742416382,-0.856252133846283,-0.856252133846283],"type":"VEC3"},{"bufferView":14,"componentType":5126,"count":98304,"max":[0.9998376369476318,0.9998375177383423,0.9998376369476318],"min":[-0.9998375177383423,-0.9998375177383423,-0.9998376369476318],"type":"VEC3"},{"bufferView":15,"componentType":5126,"count":98304,"max":[0.8750001192092896,1.0],"min":[0.125,-1.1920928955078125e-07],"type":"VEC2"}],"asset":{"generator":"Verge3D for Blender v4.9.2","version":"2.0"},"bufferViews":[{"buffer":0,"byteLength":900,"byteOffset":0,"target":34963},{"buffer":0,"byteLength":2076,"byteOffset":900,"target":34962},{"buffer":0,"byteLength":2076,"byteOffset":2976,"target":34962},{"buffer":0,"byteLength":1384,"byteOffset":5052,"target":34962},{"buffer":0,"byteLength":79728,"byteOffset":6436,"target":34963},{"buffer":0,"byteLength":139764,"byteOffset":86164,"target":34962},{"buffer":0,"byteLength":139764,"byteOffset":225928,"target":34962},{"buffer":0,"byteLength":93176,"byteOffset":365692,"target":34962},{"buffer":0,"byteLength":76776,"byteOffset":458868,"target":34963},{"buffer":0,"byteLength":158340,"byteOffset":535644,"target":34962},{"buffer":0,"byteLength":158340,"byteOffset":693984,"target":34962},{"buffer":0,"byteLength":105560,"byteOffset":852324,"target":34962},{"buffer":0,"byteLength":589824,"byteOffset":957884,"target":34963},{"buffer":0,"byteLength":1179648,"byteOffset":1547708,"target":34962},{"buffer":0,"byteLength":1179648,"byteOffset":2727356,"target":34962},{"buffer":0,"byteLength":786432,"byteOffset":3907004,"target":34962}],"buffers":[{"byteLength":4693436,"uri":"s_80_submarine.bin"}],"cameras":[{"extensions":{"S8S_v3d_camera":{"controls":"ORBIT","enablePan":true,"moveSpeed":1.0,"orbitMaxDistance":100.0,"orbitMaxPolarAngle":3.1415927410125732,"orbitMaxZoom":100.0,"orbitMinDistance":0.0,"orbitMinPolarAngle":0.0,"orbitMinZoom":0.009999999776482582,"orbitTarget":[0.0,0.0,-0.0],"rotateSpeed":1.0,"viewportFitInitialAspect":1.7777777777777777,"viewportFitType":"AUTO"}},"name":"Camera.001","perspective":{"aspectRatio":1.7777777777777777,"yfov":0.39959648408210363,"zfar":1000.0,"znear":0.10000000149011612},"type":"perspective"}],"extensions":{"S8S_v3d_lights":{"lights":[{"color":[1.0,1.0,1.0],"decay":2,"distance":12.247448850791798,"intensity":150.0,"name":"Fill Light","power":150.0,"profile":"blender","shadow":{"bias":-0.0018,"cameraFar":12.247448850791798,"cameraFov":0,"cameraNear":0.05000000074505806,"enabled":true,"expBias":2.5,"mapSize":512,"radius":1.0,"slopeScaledBias":2.5},"type":"point"},{"color":[1.0,1.0,1.0],"decay":2,"distance":90.55385239339233,"intensity":8200.0,"name":"Key Light","power":8200.0,"profile":"blender","shadow":{"bias":-0.0018,"cameraFar":90.55385239339233,"cameraFov":0,"cameraNear":0.05000000074505806,"enabled":true,"expBias":2.5,"mapSize":512,"radius":1.0,"slopeScaledBias":2.5},"type":"point"}]}},"extensionsUsed":["S8S_v3d_texture","S8S_v3d_materials","S8S_v3d_camera","S8S_v3d_lights","S8S_v3d_mesh","S8S_v3d_node","S8S_v3d_scene"],"images":[{"uri":"environment.hdr"}],"materials":[{"alphaMode":"OPAQUE","extensions":{"S8S_v3d_materials":{"gtaoVisible":true,"materialIndex":0,"nodeGraph":{"edges":[{"fromNode":0,"fromOutput":0,"toInput":0,"toNode":1}],"nodes":[{"inputs":[[0.800000011920929,0.800000011920929,0.800000011920929,1.0],0.0,0.5,1.5,1.0,[0.0,0.0,0.0],0.0,0.0,[1.0,0.20000000298023224,0.10000000149011612],0.05000000074505806,1.399999976158142,0.0,0.5,[1.0,1.0,1.0,1.0],0.0,0.0,[0.0,0.0,0.0],0.0,0.0,0.029999999329447746,1.5,[1.0,1.0,1.0,1.0],[0.0,0.0,0.0],0.0,0.5,[1.0,1.0,1.0,1.0],[1.0,1.0,1.0,1.0],0.0,0.0,1.3300000429153442],"is_active_output":false,"name":"Principled BSDF","outputs":[[0,0,0,0]],"type":"BSDF_PRINCIPLED_BL"},{"inputs":[[0,0,0,0],[0,0,0,0],[0.0,0.0,0.0],0.0],"is_active_output":true,"name":"Material Output","outputs":[],"type":"OUTPUT_MATERIAL_BL"}]}}},"name":"Material"},{"alphaMode":"OPAQUE","extensions":{"S8S_v3d_materials":{"gtaoVisible":true,"materialIndex":0,"nodeGraph":{"edges":[{"fromNode":0,"fromOutput":0,"toInput":0,"toNode":1}],"nodes":[{"inputs":[[0.0,0.1094617024064064,0.45641109347343445,1.0],0.0,0.5,1.5,1.0,[0.0,0.0,0.0],0.0,0.0,[1.0,0.20000000298023224,0.10000000149011612],0.05000000074505806,1.399999976158142,0.0,0.5,[1.0,1.0,1.0,1.0],0.0,0.0,[0.0,0.0,0.0],0.0,0.0,0.029999999329447746,1.5,[1.0,1.0,1.0,1.0],[0.0,0.0,0.0],0.0,0.5,[1.0,1.0,1.0,1.0],[1.0,1.0,1.0,1.0],0.0,0.0,1.3300000429153442],"is_active_output":false,"name":"Principled BSDF","outputs":[[0,0,0,0]],"type":"BSDF_PRINCIPLED_BL"},{"inputs":[[0,0,0,0],[0,0,0,0],[0.0,0.0,0.0],0.0],"is_active_output":true,"name":"Material Output","outputs":[],"type":"OUTPUT_MATERIAL_BL"}]}}},"name":"Material.001"},{"alphaMode":"OPAQUE","extensions":{"S8S_v3d_materials":{"gtaoVisible":true,"materialIndex":0,"nodeGraph":{"edges":[{"fromNode":0,"fromOutput":0,"toInput":0,"toNode":1}],"nodes":[{"inputs":[[0.0,0.0,0.0,1.0],0.800000011920929,0.75,1.4500000476837158,1.0,[0.0,0.0,0.0],0.0,0.0,[1.0,0.20000000298023224,0.10000000149011612],0.05000000074505806,1.399999976158142,0.0,0.3499999940395355,[1.0,1.0,1.0,1.0],0.0,0.0,[0.0,0.0,0.0],0.0,0.0,0.029999999329447746,1.5,[1.0,1.0,1.0,1.0],[0.0,0.0,0.0],0.0,0.5,[1.0,1.0,1.0,1.0],[0.0,0.0,0.0,1.0],1.0,0.0,1.3300000429153442],"is_active_output":false,"name":"Principled BSDF","outputs":[[0,0,0,0]],"type":"BSDF_PRINCIPLED_BL"},{"inputs":[[0,0,0,0],[0,0,0,0],[0.0,0.0,0.0],0.0],"is_active_output":true,"name":"Material Output","outputs":[],"type":"OUTPUT_MATERIAL_BL"}]}}},"name":"wire_028028177"},{"alphaMode":"OPAQUE","extensions":{"S8S_v3d_materials":{"gtaoVisible":true,"materialIndex":0,"nodeGraph":{"edges":[{"fromNode":0,"fromOutput":0,"toInput":0,"toNode":1}],"nodes":[{"inputs":[[0.0,0.0,0.0,1.0],0.800000011920929,0.75,1.4500000476837158,1.0,[0.0,0.0,0.0],0.0,0.0,[1.0,0.20000000298023224,0.10000000149011612],0.05000000074505806,1.399999976158142,0.0,0.3499999940395355,[1.0,1.0,1.0,1.0],0.0,0.0,[0.0,0.0,0.0],0.0,0.0,0.029999999329447746,1.5,[1.0,1.0,1.0,1.0],[0.0,0.0,0.0],0.0,0.5,[1.0,1.0,1.0,1.0],[0.0,0.0,0.0,1.0],1.0,0.0,1.3300000429153442],"is_active_output":false,"name":"Principled BSDF","outputs":[[0,0,0,0]],"type":"BSDF_PRINCIPLED_BL"},{"inputs":[[0,0,0,0],[0,0,0,0],[0.0,0.0,0.0],0.0],"is_active_output":true,"name":"Material Output","outputs":[],"type":"OUTPUT_MATERIAL_BL"}]}}},"name":"wire_186247000"},{"alphaMode":"OPAQUE","extensions":{"S8S_v3d_materials":{"gtaoVisible":true,"materialIndex":0,"nodeGraph":{"edges":[{"fromNode":0,"fromOutput":0,"toInput":0,"toNode":1},{"fromNode":4,"fromOutput":0,"toInput":6,"toNode":2},{"fromNode":3,"fromOutput":0,"toInput":0,"toNode":2},{"fromNode":2,"fromOutput":2,"toInput":0,"toNode":0}],"nodes":[{"inputs":[[0.05087608844041824,0.05087608844041824,0.05087608844041824,1.0],25.0],"is_active_output":false,"name":"Background","outputs":[[0,0,0,0]],"type":"BACKGROUND_BL"},{"inputs":[[0,0,0,0],[0,0,0,0]],"is_active_output":true,"name":"World Output","outputs":[],"type":"OUTPUT_WORLD_BL"},{"blendType":"MIX","clampFactor":true,"clampResult":false,"dataType":"RGBA","factorMode":"UNIFORM","inputs":[0.5,[0.5,0.5,0.5],0.0,0.0,[0.0,0.0,0.0],[0.0,0.0,0.0],[0.5,0.5,0.5,1.0],[0.0,0.08793307840824127,0.36108776926994324,1.0],0,0],"is_active_output":false,"name":"Mix","outputs":[0.0,[0.0,0.0,0.0],[0.0,0.0,0.0,0.0],0],"type":"MIX_BL"},{"inputs":[],"is_active_output":false,"name":"Light Path","outputs":[0.0,0.0,0.0,0.0,0.0,0.0,0.0,0.0,0.0,0.0,0.0,0.0,0.0],"type":"LIGHT_PATH_BL"},{"inputs":[[0.0,0.0,0.0]],"is_active_output":false,"name":"Environment Texture","outputs":[[0.0,0.0,0.0,0.0]],"projection":"EQUIRECTANGULAR","texture":0,"type":"TEX_ENVIRONMENT_BL"}]}}},"name":"Verge3D_Environment_World"}],"meshes":[{"extensions":{"S8S_v3d_mesh":{"colorLayers":{},"uvLayers":{"UVMap":"TEXCOORD_0"}}},"name":"Plane","primitives":[{"attributes":{"NORMAL":2,"POSITION":1,"TEXCOORD_0":3},"indices":0,"material":0,"mode":4}]},{"extensions":{"S8S_v3d_mesh":{"colorLayers":{},"uvLayers":{"UVMap":"TEXCOORD_0"}}},"name":"S-80 plus","primitives":[{"attributes":{"NORMAL":6,"POSITION":5,"TEXCOORD_0":7},"indices":4,"material":3,"mode":4},{"attributes":{"NORMAL":10,"POSITION":9,"TEXCOORD_0":11},"indices":8,"material":2,"mode":4}]},{"extensions":{"S8S_v3d_mesh":{"colorLayers":{},"uvLayers":{"UVMap":"TEXCOORD_0"}}},"name":"Sphere.001","primitives":[{"attributes":{"NORMAL":14,"POSITION":13,"TEXCOORD_0":15},"indices":12,"material":1,"mode":4}]}],"nodes":[{"extensions":{"S8S_v3d_node":{"frustumCulling":true,"groupNames":["Annotations"],"hidden":false,"hidpiCompositing":false,"objectColor":[1.0,1.0,1.0,1.0],"objectIndex":0,"renderOrder":0,"useCastShadows":true}},"name":"survivability_annotation_8","translation":[0.11523409187793732,0.0,-0.6151230335235596]},{"extensions":{"S8S_v3d_node":{"frustumCulling":true,"groupNames":["Collection"],"hidden":true,"hidpiCompositing":false,"objectColor":[1.0,1.0,1.0,1.0],"objectIndex":0,"renderOrder":0,"useCastShadows":true,"useShadows":true}},"mesh":0,"name":"Plane","scale":[0.6082454919815063,0.2165955752134323,0.6082454919815063],"translation":[4.908628940582275,0.019195079803466797,-0.4855308532714844]},{"extensions":{"S8S_v3d_node":{"frustumCulling":true,"groupNames":["Collection"],"hidden":false,"hidpiCompositing":false,"objectColor":[1.0,1.0,1.0,1.0],"objectIndex":0,"renderOrder":0,"useCastShadows":true,"useShadows":true}},"mesh":1,"name":"S-80 plus","rotation":[0.70710688829422,0.0,-0.0,0.7071066498756409],"scale":[0.006219114176928997,0.006219114176928997,0.006219114176928997],"translation":[3.267824649810791e-05,0.12418083846569061,3.9851292967796326e-05]},{"extensions":{"S8S_v3d_lights":{"light":0},"S8S_v3d_node":{"frustumCulling":true,"groupNames":["Collection"],"hidden":false,"hidpiCompositing":false,"objectColor":[1.0,1.0,1.0,1.0],"objectIndex":0,"renderOrder":0,"useCastShadows":true}},"name":"Fill Light","rotation":[-0.7049780488014221,-0.6317219138145447,0.054826777428388596,0.31769075989723206],"scale":[0.08831744641065598,0.08831743896007538,0.08831745386123657],"translation":[-0.9037054181098938,0.6698159575462341,-1.2034122943878174]},{"extensions":{"S8S_v3d_lights":{"light":1},"S8S_v3d_node":{"frustumCulling":true,"groupNames":["Collection"],"hidden":false,"hidpiCompositing":false,"objectColor":[1.0,1.0,1.0,1.0],"objectIndex":0,"renderOrder":0,"useCastShadows":true}},"name":"Key Light","rotation":[-0.1408708095550537,0.36764541268348694,0.32138320803642273,0.861223042011261],"scale":[0.08831743896007538,0.08831743896007538,0.08831744641065598],"translation":[1.1146022081375122,0.9154717326164246,1.1106867790222168]},{"camera":0,"extensions":{"S8S_v3d_node":{"frustumCulling":true,"groupNames":["Collection"],"hidden":false,"hidpiCompositing":false,"objectColor":[1.0,1.0,1.0,1.0],"objectIndex":0,"renderOrder":0,"useCastShadows":true}},"name":"Camera","rotation":[-0.0910383015871048,0.35736021399497986,0.02722911164164543,0.9291201829910278],"scale":[0.08831744641065598,0.08831743896007538,0.08831743896007538],"translation":[1.6367769241333008,0.48596423864364624,2.0245509147644043]},{"extensions":{"S8S_v3d_node":{"frustumCulling":true,"groupNames":["Collection"],"hidden":true,"hidpiCompositing":false,"objectColor":[1.0,1.0,1.0,1.0],"objectIndex":0,"renderOrder":0,"useCastShadows":true,"useShadows":true}},"mesh":2,"name":"Sphere","scale":[8.67408275604248,8.67408275604248,8.67408275604248],"translation":[0.6942936182022095,0.8298666477203369,0.4641837179660797]},{"extensions":{"S8S_v3d_node":{"frustumCulling":true,"groupNames":["Annotations"],"hidden":false,"hidpiCompositing":false,"objectColor":[1.0,1.0,1.0,1.0],"objectIndex":0,"renderOrder":0,"useCastShadows":true}},"name":"endurance_persistance_annotation_3","translation":[0.01611441560089588,-0.00021673770970664918,-0.9621939659118652]},{"extensions":{"S8S_v3d_node":{"frustumCulling":true,"groupNames":["Annotations"],"hidden":false,"hidpiCompositing":false,"objectColor":[1.0,1.0,1.0,1.0],"objectIndex":0,"renderOrder":0,"useCastShadows":true}},"name":"fleet_size_annotation_2","translation":[0.010287078097462654,0.20415323972702026,0.10686735808849335]},{"extensions":{"S8S_v3d_node":{"frustumCulling":true,"groupNames":["Annotations"],"hidden":false,"hidpiCompositing":false,"objectColor":[1.0,1.0,1.0,1.0],"objectIndex":0,"renderOrder":0,"useCastShadows":true}},"name":"lethality_annotation_4","translation":[0.0,0.0,0.874647319316864]},{"extensions":{"S8S_v3d_node":{"frustumCulling":true,"groupNames":["Annotations"],"hidden":false,"hidpiCompositing":false,"objectColor":[1.0,1.0,1.0,1.0],"objectIndex":0,"renderOrder":0,"useCastShadows":true}},"name":"extended_operational_effectiveness_annotation_11","translation":[0.01772172935307026,0.27253589034080505,0.18300671875476837]},{"extensions":{"S8S_v3d_node":{"frustumCulling":true,"groupNames":["Annotations"],"hidden":false,"hidpiCompositing":false,"objectColor":[1.0,1.0,1.0,1.0],"objectIndex":0,"renderOrder":0,"useCastShadows":true}},"name":"upgradability_growth_potential_annotation_15","translation":[0.10231183469295502,-0.03445907682180405,-0.3454572856426239]},{"extensions":{"S8S_v3d_node":{"frustumCulling":true,"groupNames":["Annotations"],"hidden":false,"hidpiCompositing":false,"objectColor":[1.0,1.0,1.0,1.0],"objectIndex":0,"renderOrder":0,"useCastShadows":true}},"name":"interoperability_annotation_9","translation":[-0.009337720461189747,0.26818257570266724,0.27627214789390564]},{"extensions":{"S8S_v3d_node":{"frustumCulling":true,"groupNames":["Annotations"],"hidden":false,"hidpiCompositing":false,"objectColor":[1.0,1.0,1.0,1.0],"objectIndex":0,"renderOrder":0,"useCastShadows":true}},"name":"intelligence_surveillance_reconnaissance_annotation_12","translation":[0.07444053143262863,-0.08322568237781525,0.6482638120651245]}],"samplers":[{}],"scene":0,"scenes":[{"extensions":{"S8S_v3d_scene":{"aaMethod":"AUTO","iblEnvironmentMode":"PMREM","physicallyCorrectLights":true,"pmremMaxTileSize":256,"shadowMap":{"esmDistanceScale":1.0,"renderReverseSided":false,"renderSingleSided":false,"type":"PCFPOISSON"},"worldMaterial":4}},"extras":{"animFrameRate":24,"coordSystem":"Z_UP_RIGHT"},"name":"Scene","nodes":[1,5,4,3,2,6,7,8,9,10,0,12,13,11]}],"textures":[{"extensions":{"S8S_v3d_texture":{"colorSpace":"linear rec.709","source":0}},"name":"environment.hdr","sampler":0}]}
