<svg width="100" height="100" viewBox="0 0 100 100" fill="none" xmlns="http://www.w3.org/2000/svg">
<mask id="mask0_14787_993" style="mask-type:luminance" maskUnits="userSpaceOnUse" x="8" y="8" width="84" height="84">
<path d="M91.9571 8.04297H8.04285V91.9573H91.9571V8.04297Z" fill="white"/>
</mask>
<g mask="url(#mask0_14787_993)">
<mask id="mask1_14787_993" style="mask-type:luminance" maskUnits="userSpaceOnUse" x="8" y="8" width="84" height="84">
<path d="M91.9571 8.04297H8.04285V91.9573H91.9571V8.04297Z" fill="white"/>
</mask>
<g mask="url(#mask1_14787_993)">
<path d="M18.7 56.4997L26.1 59.5854C27.1429 60.0139 27.9858 59.0282 27.9858 57.3711V52.0139C27.9858 50.3568 27.1572 48.6711 26.1143 48.2425L18.7143 45.1568C17.6715 44.7282 16.8286 45.7139 16.8286 47.3711V52.7282C16.8286 54.3711 17.6572 56.0711 18.7 56.4997Z" fill="#005DB4"/>
<path d="M42.0428 58.6289L46.1286 60.3289C46.2286 60.5718 46.2857 60.8146 46.2857 61.0718V64.2432L42.2 62.5432C42.1 62.3146 42.0428 62.0575 42.0428 61.8003V58.6289ZM40.4571 65.5718L47.8571 68.6575C48.0143 68.7289 48.1714 68.7575 48.3286 68.7575C49.1428 68.7575 49.7285 67.8432 49.7428 66.4432V61.086C49.7428 59.4289 48.9143 57.7432 47.8714 57.3146L40.4714 54.2289C40.3143 54.1575 40.1571 54.1289 40 54.1289C39.1857 54.1289 38.6 55.0432 38.5857 56.4432V61.8003C38.5857 63.4575 39.4143 65.1432 40.4571 65.5718Z" fill="#005DB4"/>
<path d="M86.4286 52.6286C86.4429 55.6429 84.5857 58.3572 81.7715 59.4429L80.9429 59.7715C80.7857 59.8286 80.6143 59.7572 80.5429 59.6001C80.5286 59.5572 80.5143 59.5286 80.5143 59.4858V58.5572C80.5143 58.4286 80.6 58.3143 80.7286 58.2715C82.2857 57.7715 83.3286 56.3286 83.3286 54.6858V54.0715C83.3286 52.0001 81.6429 50.3143 79.5715 50.3143C79.0715 50.3143 78.5857 50.4143 78.1286 50.6001L67.8286 54.8715C67.3143 55.0858 66.9286 55.5429 66.8 56.0858L64.1857 67.6858L56.1715 70.9429V56.3572L80.5143 46.6572C82.7286 45.7715 85.2286 46.8572 86.1143 49.0715C86.3143 49.5858 86.4143 50.1143 86.4143 50.6715V52.6429L86.4286 52.6286ZM52.7 71.6001L52.2429 71.5572C51.6857 71.5001 51.1286 71.7286 50.7572 72.1572L50.1572 72.8572L40.2715 68.7286C39.6143 68.4572 38.6143 67.4715 37.9143 65.5858L36.4143 61.5143C35.7429 59.6858 34.4286 58.4858 32.9857 58.3858C32.9143 58.3858 32.8572 58.3858 32.7857 58.3858C31.6857 58.4001 30.6857 59.0429 30.2143 60.0429L28.7 62.8715C28.2286 63.7429 27.8143 63.5715 27.5715 63.4715L17.1143 59.1143L16 56.8572C15.8143 56.4858 15.5 56.1858 15.1143 56.0286L13.8286 55.5001L13.8572 39.8001L52.7143 55.9858L52.6857 71.6143L52.7 71.6001ZM38.1857 28.5001C40.4 27.6143 42.9 28.7001 43.7857 30.9143C43.9857 31.4286 44.0857 31.9572 44.0857 32.5143V34.4858C44.0857 37.5001 42.2429 40.2143 39.4286 41.3001L38.5857 41.6286C38.4286 41.6858 38.2572 41.6143 38.1857 41.4572C38.1715 41.4143 38.1572 41.3858 38.1572 41.3429V40.4143C38.1572 40.2858 38.2429 40.1715 38.3715 40.1286C39.9286 39.6286 40.9715 38.1858 40.9715 36.5429V35.9286C40.9715 33.8572 39.2857 32.1715 37.2143 32.1715C36.7143 32.1715 36.2286 32.2715 35.7715 32.4572L25.4715 36.7286C24.9715 36.9286 24.6 37.3572 24.4572 37.8858L23.8429 40.2286L16.6572 37.2286L38.1572 28.5143L38.1857 28.5001ZM11.4715 35.6143C11.3715 35.6572 11.2715 35.7001 11.1857 35.7572C10.7 36.0715 10.4143 36.6143 10.4143 37.2001L10.3857 56.6429C10.3857 57.3429 10.8 57.9715 11.4429 58.2429L13.2 58.9715L14.3143 61.2143C14.5 61.5858 14.8143 61.8858 15.2 62.0429L26.2429 66.6429C28.4143 67.5429 30.5715 66.7001 31.7572 64.4858L32.9572 62.2429C33.0429 62.4001 33.1143 62.5572 33.1715 62.7143L34.6715 66.7858C35.6 69.3143 37.1572 71.1858 38.9429 71.9286L49.9857 76.5429C50.6715 76.8286 51.4715 76.6429 51.9572 76.0715L52.7857 75.1001L54.2429 75.2429H54.4429H54.6429C54.8 75.2286 54.9429 75.1858 55.0857 75.1429L66.3143 70.5715C66.8429 70.3572 67.2286 69.9001 67.3572 69.3572L69.9715 57.7572L79.4429 53.8286C79.5429 53.7858 79.6429 53.8001 79.7286 53.8572C79.8143 53.9143 79.8715 54.0143 79.8572 54.1143V54.7286C79.8572 54.8572 79.7715 54.9715 79.6429 55.0143C78.1 55.5143 77.0429 56.9572 77.0572 58.6001V59.5286C77.0572 61.6001 78.7429 63.2858 80.8286 63.2858C81.2857 63.2858 81.7572 63.2001 82.1857 63.0286L83.0143 62.7001C87.1572 61.1001 89.8857 57.1143 89.8715 52.6715V50.7001C89.8715 46.4143 86.4 42.9286 82.1 42.9286C81.1143 42.9286 80.1429 43.1143 79.2286 43.4858L54.8857 53.1715L27.0572 41.5858L27.5715 39.6143L37.0715 35.6715C37.2286 35.6143 37.4 35.6715 37.4715 35.8429C37.4857 35.8858 37.5 35.9143 37.5 35.9572V36.5715C37.5 36.7001 37.4143 36.8143 37.2857 36.8572C35.7429 37.3572 34.6857 38.8001 34.7 40.4429V41.3715C34.7 43.4429 36.3857 45.1286 38.4572 45.1286C38.9286 45.1286 39.3857 45.0429 39.8286 44.8715L40.6715 44.5429C44.8143 42.9429 47.5429 38.9572 47.5286 34.5143V32.5429C47.5286 28.2572 44.0572 24.7715 39.7572 24.7715C38.7715 24.7715 37.8 24.9572 36.8715 25.3286L11.4429 35.6572L11.4715 35.6143Z" fill="#005DB4"/>
</g>
</g>
</svg>
