<svg width="100" height="100" viewBox="0 0 100 100" fill="none" xmlns="http://www.w3.org/2000/svg">
<path d="M66 23.9333H60V21.9667C60 20.885 59.1 20 58 20H42C40.9 20 40 20.885 40 21.9667V23.9333H34C32.9399 23.9359 31.9241 24.3512 31.1745 25.0882C30.4249 25.8253 30.0026 26.8243 30 27.8667V75.0667C30 77.229 31.799 79 34 79H66C68.199 79 70 77.229 70 75.0667V27.8667C70 25.7024 68.199 23.9333 66 23.9333ZM67 71.1333C67 71.6653 66.541 72.1167 66 72.1167H34C33.457 72.1167 33 71.6653 33 71.1333V31.8C33 31.2661 33.457 30.8167 34 30.8167H66C66.541 30.8167 67 31.2661 67 31.8V71.1333Z" fill="#005DB4"/>
<path d="M61.1429 34H38.8571C37.8357 34 37 34.9 37 36V40C37 41.1 37.8357 42 38.8571 42H61.1429C62.1643 42 63 41.1 63 40V36C63 34.9 62.1643 34 61.1429 34ZM61.1429 47H38.8571C37.8357 47 37 47.9 37 49V53C37 54.1 37.8357 55 38.8571 55H61.1429C62.1643 55 63 54.1 63 53V49C63 47.9 62.1643 47 61.1429 47ZM61.1429 60H38.8571C37.8357 60 37 60.9 37 62V66C37 67.1 37.8357 68 38.8571 68H61.1429C62.1643 68 63 67.1 63 66V62C63 60.9 62.1643 60 61.1429 60Z" fill="#005DB4"/>
</svg>
