<svg width="100" height="100" viewBox="0 0 100 100" fill="none" xmlns="http://www.w3.org/2000/svg">
<mask id="mask0_16727_864" style="mask-type:luminance" maskUnits="userSpaceOnUse" x="0" y="0" width="100" height="100">
<path d="M100 0H0V100H100V0Z" fill="white"/>
</mask>
<g mask="url(#mask0_16727_864)">
<mask id="mask1_16727_864" style="mask-type:luminance" maskUnits="userSpaceOnUse" x="0" y="0" width="100" height="100">
<path d="M100 0H0V100H100V0Z" fill="white"/>
</mask>
<g mask="url(#mask1_16727_864)">
<path d="M16.1673 14.1152H14.1162V45.0221H16.1673V14.1152Z" fill="#005DB4"/>
<path d="M16.1673 14.1152H14.1162V45.0221H16.1673V14.1152Z" stroke="#005DB4" stroke-width="0.6" stroke-miterlimit="10"/>
<path d="M42.952 37.1195C42.952 40.3569 40.3379 42.9711 37.1004 42.9711H34.3858C31.1483 42.9711 28.5342 40.3368 28.5342 37.1195V22.0581C28.5342 18.8206 31.1483 16.2065 34.3858 16.2065H37.1004C40.3379 16.2065 42.952 18.8408 42.952 22.0581V37.1195ZM37.0803 14.1152H34.3657C30.0021 14.1152 26.463 17.6745 26.4429 22.038V37.0993C26.4429 41.4629 29.982 45.002 34.3657 45.0221H37.0803C41.4439 45.0221 44.983 41.483 45.0031 37.0993V22.038C45.0031 17.6745 41.464 14.1353 37.0803 14.1152Z" fill="#005DB4"/>
<path d="M42.952 37.1195C42.952 40.3569 40.3379 42.9711 37.1004 42.9711H34.3858C31.1483 42.9711 28.5342 40.3368 28.5342 37.1195V22.0581C28.5342 18.8206 31.1483 16.2065 34.3858 16.2065H37.1004C40.3379 16.2065 42.952 18.8408 42.952 22.0581V37.1195ZM37.0803 14.1152H34.3657C30.0021 14.1152 26.463 17.6745 26.4429 22.038V37.0993C26.4429 41.4629 29.982 45.002 34.3657 45.0221H37.0803C41.4439 45.0221 44.983 41.483 45.0031 37.0993V22.038C45.0031 17.6745 41.464 14.1353 37.0803 14.1152Z" stroke="#005DB4" stroke-width="0.6" stroke-miterlimit="10"/>
<path d="M84.1343 37.1195C84.1343 40.3569 81.5202 42.9711 78.2827 42.9711H75.5681C72.3306 42.9711 69.7165 40.3368 69.7165 37.1195V22.0581C69.7165 18.8206 72.3306 16.2065 75.5681 16.2065H78.2827C81.5202 16.2065 84.1343 18.8408 84.1343 22.0581V37.1195ZM78.2827 14.1152H75.5681C71.2045 14.1152 67.6654 17.6745 67.6453 22.038V37.0993C67.6453 41.4629 71.1844 45.002 75.5681 45.0221H78.2827C82.6463 45.0221 86.1854 41.483 86.2055 37.0993V22.038C86.2055 17.6745 82.6664 14.1353 78.2827 14.1152Z" fill="#005DB4"/>
<path d="M84.1343 37.1195C84.1343 40.3569 81.5202 42.9711 78.2827 42.9711H75.5681C72.3306 42.9711 69.7165 40.3368 69.7165 37.1195V22.0581C69.7165 18.8206 72.3306 16.2065 75.5681 16.2065H78.2827C81.5202 16.2065 84.1343 18.8408 84.1343 22.0581V37.1195ZM78.2827 14.1152H75.5681C71.2045 14.1152 67.6654 17.6745 67.6453 22.038V37.0993C67.6453 41.4629 71.1844 45.002 75.5681 45.0221H78.2827C82.6463 45.0221 86.1854 41.483 86.2055 37.0993V22.038C86.2055 17.6745 82.6664 14.1353 78.2827 14.1152Z" stroke="#005DB4" stroke-width="0.6" stroke-miterlimit="10"/>
<path d="M42.952 78.322C42.952 81.5595 40.3379 84.1736 37.1004 84.1736H34.3858C31.1483 84.1736 28.5342 81.5394 28.5342 78.322V63.2607C28.5342 60.0232 31.1483 57.4091 34.3858 57.4091H37.1004C40.3379 57.4091 42.952 60.0433 42.952 63.2607V78.322ZM37.0803 55.3379H34.3657C30.0021 55.3379 26.463 58.8971 26.4429 63.2607V78.322C26.4429 82.6856 29.982 86.2247 34.3657 86.2448H37.0803C41.4439 86.2448 44.983 82.7057 45.0031 78.322V63.2607C45.0031 58.8971 41.464 55.358 37.0803 55.3379Z" fill="#005DB4"/>
<path d="M42.952 78.322C42.952 81.5595 40.3379 84.1736 37.1004 84.1736H34.3858C31.1483 84.1736 28.5342 81.5394 28.5342 78.322V63.2607C28.5342 60.0232 31.1483 57.4091 34.3858 57.4091H37.1004C40.3379 57.4091 42.952 60.0433 42.952 63.2607V78.322ZM37.0803 55.3379H34.3657C30.0021 55.3379 26.463 58.8971 26.4429 63.2607V78.322C26.4429 82.6856 29.982 86.2247 34.3657 86.2448H37.0803C41.4439 86.2448 44.983 82.7057 45.0031 78.322V63.2607C45.0031 58.8971 41.464 55.358 37.0803 55.3379Z" stroke="#005DB4" stroke-width="0.6" stroke-miterlimit="10"/>
<path d="M84.1343 78.322C84.1343 81.5595 81.5202 84.1736 78.2827 84.1736H75.5681C72.3306 84.1736 69.7165 81.5394 69.7165 78.322V63.2607C69.7165 60.0232 72.3306 57.4091 75.5681 57.4091H78.2827C81.5202 57.4091 84.1343 60.0433 84.1343 63.2607V78.322ZM78.2827 55.3379H75.5681C71.2045 55.3379 67.6654 58.8971 67.6453 63.2607V78.322C67.6453 82.6856 71.1844 86.2247 75.5681 86.2448H78.2827C82.6463 86.2448 86.1854 82.7057 86.2055 78.322V63.2607C86.2055 58.8971 82.6664 55.358 78.2827 55.3379Z" fill="#005DB4"/>
<path d="M84.1343 78.322C84.1343 81.5595 81.5202 84.1736 78.2827 84.1736H75.5681C72.3306 84.1736 69.7165 81.5394 69.7165 78.322V63.2607C69.7165 60.0232 72.3306 57.4091 75.5681 57.4091H78.2827C81.5202 57.4091 84.1343 60.0433 84.1343 63.2607V78.322ZM78.2827 55.3379H75.5681C71.2045 55.3379 67.6654 58.8971 67.6453 63.2607V78.322C67.6453 82.6856 71.1844 86.2247 75.5681 86.2448H78.2827C82.6463 86.2448 86.1854 82.7057 86.2055 78.322V63.2607C86.2055 58.8971 82.6664 55.358 78.2827 55.3379Z" stroke="#005DB4" stroke-width="0.6" stroke-miterlimit="10"/>
<path d="M57.3494 14.1152H55.2983V45.0221H57.3494V14.1152Z" fill="#005DB4"/>
<path d="M57.3494 14.1152H55.2983V45.0221H57.3494V14.1152Z" stroke="#005DB4" stroke-width="0.6" stroke-miterlimit="10"/>
<path d="M57.3494 55.3379H55.2983V86.2448H57.3494V55.3379Z" fill="#005DB4"/>
<path d="M57.3494 55.3379H55.2983V86.2448H57.3494V55.3379Z" stroke="#005DB4" stroke-width="0.6" stroke-miterlimit="10"/>
<path d="M16.1673 55.3379H14.1162V86.2448H16.1673V55.3379Z" fill="#005DB4"/>
<path d="M16.1673 55.3379H14.1162V86.2448H16.1673V55.3379Z" stroke="#005DB4" stroke-width="0.6" stroke-miterlimit="10"/>
</g>
</g>
</svg>
