<svg width="100" height="100" viewBox="0 0 100 100" fill="none" xmlns="http://www.w3.org/2000/svg">
<mask id="mask0_16727_850" style="mask-type:luminance" maskUnits="userSpaceOnUse" x="0" y="0" width="100" height="100">
<path d="M100 0H0V100H100V0Z" fill="white"/>
</mask>
<g mask="url(#mask0_16727_850)">
<mask id="mask1_16727_850" style="mask-type:luminance" maskUnits="userSpaceOnUse" x="0" y="0" width="100" height="100">
<path d="M100 0H0V99.9821H100V0Z" fill="white"/>
</mask>
<g mask="url(#mask1_16727_850)">
<path d="M65.2322 56.0813C69.6635 57.678 73.8616 59.49 77.342 62.3425C78.9925 63.6342 79.9972 65.6076 80.0331 67.7067V84.176C77.6291 85.4498 75.0098 86.3109 72.3008 86.6877C71.4755 82.7408 69.6097 79.0989 66.9007 76.1207L72.0137 71.0077C72.4084 70.5951 72.3725 69.9313 71.9599 69.5545C71.5652 69.1957 70.9552 69.1957 70.5605 69.5545L65.4475 74.6676C61.5365 71.0974 56.4952 69.0163 51.2028 68.801V61.5352C51.2028 60.9611 50.7363 60.5126 50.1802 60.5126C49.624 60.5126 49.1576 60.979 49.1576 61.5352V68.801C43.8652 69.0343 38.8239 71.1154 34.9129 74.6855L29.7999 69.5725C29.3872 69.1778 28.7414 69.1957 28.3467 69.6263C27.9699 70.021 27.9699 70.631 28.3467 71.0436L33.4597 76.1566C30.7686 79.0989 28.9208 82.7228 28.0776 86.6159C25.3865 86.2033 22.7851 85.378 20.3452 84.176V67.7784C20.3811 65.6615 21.3858 63.6701 23.0542 62.3784C26.5168 59.5438 30.7148 57.7318 35.1461 56.1351L37.281 55.3816C40.0797 57.3012 44.9416 58.4853 50.1981 58.4853C55.4547 58.4853 60.3345 57.3012 63.1153 55.3816L65.2502 56.1351L65.2322 56.0813ZM44.0984 88.2485C44.6366 85.3421 47.1303 83.2252 50.0726 83.1713C50.1084 83.1713 50.1443 83.1713 50.1802 83.1893C50.2161 83.1893 50.252 83.1893 50.2878 83.1713C53.248 83.2252 55.7417 85.3601 56.262 88.2664C52.2613 88.4099 48.117 88.392 44.1163 88.2305L44.0984 88.2485ZM42.8605 85.5574C42.4479 86.3647 42.1608 87.2438 42.0352 88.1408C38.0345 87.9435 34.0517 87.5488 30.0869 86.9388C30.8404 83.4584 32.5089 80.2291 34.8949 77.5739L42.8605 85.5395V85.5574ZM49.1396 81.18C47.1841 81.4311 45.3722 82.382 44.0625 83.8351L36.3481 76.1207C39.8644 72.9274 44.3854 71.0615 49.1396 70.8463V81.18ZM56.2799 83.8351C54.9523 82.364 53.1583 81.4311 51.2028 81.18V70.8463C55.957 71.0615 60.478 72.9274 63.9943 76.1207L56.2799 83.8351ZM57.4819 85.5574L65.4475 77.5739C67.8695 80.247 69.5379 83.5122 70.2914 87.0465C66.3266 87.6385 62.3259 88.0153 58.3251 88.1947C58.1996 87.2797 57.9125 86.3827 57.4819 85.5574ZM40.4027 53.9284C41.9455 53.3005 42.9681 51.7935 42.9502 50.1071V48.3848C47.4532 50.7888 52.8713 50.7888 57.3743 48.3848V50.0892C57.3743 51.7576 58.379 53.2646 59.9218 53.9105L60.783 54.2693C57.4461 55.7404 53.8042 56.458 50.1623 56.3683C46.5024 56.458 42.8784 55.7404 39.5236 54.2693L40.3847 53.9105L40.4027 53.9284ZM57.3743 46.0167C52.9789 48.8513 47.3456 48.8513 42.9502 46.0167C39.1109 43.5588 36.7787 39.307 36.7787 34.7501V27.9327C45.0133 32.974 55.3829 32.9202 63.5458 27.7713V34.7501C63.5458 39.307 61.2136 43.5588 57.3743 46.0167ZM34.1414 22.0124V21.4562C41.8199 22.8376 45.9642 23.627 50.1084 23.627C54.2527 23.627 58.4328 22.8376 66.1831 21.4742V21.9227C66.1831 22.9812 65.6269 23.9858 64.7299 24.5599L62.7385 25.8516C54.7909 31.0005 44.511 30.8391 36.7249 25.4569L35.487 24.5958C34.6438 24.0038 34.1414 23.0529 34.1414 22.0303V22.0124ZM66.1831 19.3751C50.4314 22.12 49.7496 22.1739 34.1414 19.3751L33.5673 19.0881C31.7554 18.209 29.6025 16.7917 29.6025 15.0156C29.6025 11.3558 38.7701 6.92448 50.1623 6.92448C61.5544 6.92448 70.722 11.3558 70.7399 15.0156C70.7399 16.415 69.3406 17.8681 66.7751 19.0881L66.1831 19.3931V19.3751ZM65.8422 26.2822C67.3313 25.3314 68.2462 23.6808 68.2283 21.9227V20.6489C71.9778 18.6934 72.7672 16.5226 72.7672 15.0156C72.7493 9.61554 62.1644 4.86133 50.1264 4.86133C38.0883 4.86133 27.5035 9.5976 27.5035 15.0156C27.5035 16.5047 28.3108 18.6755 32.0424 20.6489V22.0303C32.0424 23.7347 32.8856 25.3314 34.285 26.3002L34.6976 26.5872V34.768C34.6976 39.612 36.994 44.1868 40.8691 47.0931V50.143C40.8691 50.9862 40.3668 51.7397 39.5953 52.0447L34.5002 54.1258C29.8537 55.7942 25.4224 57.6959 21.7087 60.7279C19.5559 62.4143 18.2642 64.9797 18.2283 67.7246V85.2704L18.6947 85.5754C23.5028 88.7867 37.0478 90.3834 50.4852 90.3834C63.9764 90.3834 77.36 88.7688 81.6657 85.5395L82.0783 85.2345V67.6887C82.0245 64.9618 80.7507 62.4143 78.6158 60.7279C74.8842 57.678 70.4349 55.7583 65.7704 54.0899L60.7112 52.0088C59.9398 51.6859 59.4375 50.9324 59.4375 50.1071V47.0752C63.3305 44.1688 65.609 39.594 65.6269 34.7322V26.4257L65.8422 26.2822Z" fill="#005DB4"/>
<path d="M50.1978 9.74303C50.4849 9.74303 50.7361 9.97625 50.7361 10.2812C50.7361 10.5862 50.5028 10.8195 50.1978 10.8195C49.8929 10.8195 49.6596 10.5862 49.6596 10.2812C49.6596 9.97625 49.8929 9.74303 50.1978 9.74303ZM45.5513 16.8295L45.8742 16.686C46.3048 18.0853 47.3991 19.1976 48.7805 19.6461L49.9467 20.2741C50.0723 20.3458 50.2158 20.3458 50.3414 20.2741L51.4896 19.6641C52.8889 19.2156 53.9833 18.1033 54.4318 16.7039L54.7547 16.8474C54.8982 16.9013 55.0418 16.8833 55.1673 16.7936C55.275 16.7039 55.3109 16.5604 55.2929 16.4169L55.0238 14.3537C55.0059 14.2102 54.9162 14.0846 54.7727 14.0308C54.6291 13.977 54.4677 13.9949 54.3421 14.1026L52.7274 15.3584C52.6198 15.4481 52.548 15.5916 52.566 15.7351C52.5839 15.8787 52.6736 16.0042 52.8171 16.0581L53.3374 16.2733C52.9965 17.5292 51.9381 18.48 50.6464 18.6953V13.1338H54.3062V12.0215H50.7361V11.7344C51.5434 11.4294 51.956 10.5324 51.651 9.72509C51.346 8.91777 50.4311 8.52308 49.6237 8.81013C48.8164 9.11511 48.4038 10.0301 48.7088 10.8374C48.8702 11.25 49.1932 11.5909 49.6237 11.7344V12.0215H46.0177V13.1338H49.6237V18.6953C48.3141 18.4621 47.2735 17.4933 46.9327 16.2195L47.453 16.0042C47.5965 15.9504 47.6862 15.8248 47.6862 15.6813C47.7041 15.5378 47.6503 15.3943 47.5247 15.3046L45.9101 14.0487C45.7845 13.959 45.641 13.9411 45.4974 14.0129C45.3539 14.0487 45.2463 14.1743 45.2283 14.3358L44.9592 16.3989C44.9592 16.5425 45.0131 16.686 45.1207 16.7757C45.2463 16.8654 45.3898 16.8833 45.5333 16.8295H45.5513Z" fill="#005DB4"/>
</g>
</g>
</svg>
