<svg width="100" height="100" viewBox="0 0 100 100" fill="none" xmlns="http://www.w3.org/2000/svg">
<path fill-rule="evenodd" clip-rule="evenodd" d="M44.2461 21.7656L41.6204 23.693C41.1577 24.062 40.6676 24.3952 40.1543 24.6897C39.8086 24.8734 39.4462 25.024 39.0721 25.1395C38.6494 25.2675 38.2111 25.3334 37.3307 25.4692L34.1115 25.9617C31.571 26.3495 30.2988 26.5473 29.302 27.1406C28.41 27.6641 27.6692 28.4087 27.1417 29.3007C26.5482 30.309 26.3543 31.581 25.9626 34.1095L25.47 37.3282C25.3343 38.2086 25.2683 38.6507 25.1403 39.0734C25.024 39.4483 24.874 39.8076 24.6904 40.1515C24.481 40.5393 24.2211 40.8999 23.6936 41.6174L21.766 44.2428C20.2456 46.3137 19.4854 47.3491 19.1906 48.4699C18.9365 49.4714 18.9365 50.5205 19.1906 51.5219C19.4815 52.6543 20.2456 53.6936 21.766 55.749L23.6936 58.3745C24.2211 59.0919 24.4848 59.4526 24.6904 59.8404C24.8714 60.1868 25.0214 60.5488 25.1403 60.9262C25.2683 61.345 25.3343 61.7833 25.47 62.6636L25.9626 65.8824C26.3504 68.4225 26.5482 69.6906 27.1417 70.6912C27.6653 71.5831 28.41 72.3277 29.302 72.8512C30.3105 73.4446 31.5826 73.6385 34.1115 74.0302L37.3307 74.5227C38.2111 74.6584 38.6533 74.7282 39.0721 74.8562C39.4471 74.97 39.8078 75.1199 40.1543 75.306C40.5421 75.5116 40.9028 75.7714 41.6204 76.3027L44.2461 78.2301C46.3173 79.7503 47.3529 80.5104 48.4738 80.8051C49.4745 81.065 50.5255 81.065 51.5262 80.8051C52.6588 80.5104 53.6982 79.7503 55.7539 78.2301L58.3796 76.3027C59.0972 75.7753 59.4579 75.5116 59.8457 75.306C60.1922 75.1199 60.5529 74.97 60.9279 74.8562C61.3506 74.7282 61.7889 74.6623 62.6693 74.5227L65.8885 74.0302C68.429 73.6424 69.6973 73.4485 70.698 72.8512C71.59 72.3277 72.3347 71.5831 72.8583 70.6912C73.4518 69.6829 73.6457 68.4109 74.0374 65.8824L74.53 62.6636C74.6657 61.7833 74.7317 61.345 74.8597 60.9223C74.976 60.5475 75.126 60.1868 75.3096 59.8404C75.519 59.4526 75.7789 59.0919 76.3064 58.3745L78.234 55.749C79.7544 53.6781 80.5146 52.6466 80.8094 51.5219C81.0635 50.5205 81.0635 49.4714 80.8094 48.4699C80.5185 47.3375 79.7544 46.2982 78.234 44.2428L76.3064 41.6174C75.9373 41.1548 75.6041 40.6647 75.3096 40.1515C75.1258 39.8058 74.9752 39.4435 74.8597 39.0695C74.7057 38.4983 74.5955 37.9162 74.53 37.3282L74.0374 34.1095C73.6496 31.5693 73.4518 30.2973 72.8583 29.3007C72.3295 28.4119 71.5869 27.6694 70.698 27.1406C69.6895 26.5473 68.4174 26.3533 65.8885 25.9617L62.6693 25.4692C62.0813 25.4037 61.4991 25.2935 60.9279 25.1395C60.5529 25.0264 60.1904 24.8756 59.8457 24.6897C59.3324 24.3952 58.8423 24.062 58.3796 23.693L55.7539 21.7656C53.6827 20.2454 52.6471 19.4853 51.5262 19.1906C50.5246 18.9365 49.4754 18.9365 48.4738 19.1906C47.3412 19.4853 46.3018 20.2454 44.2461 21.7656ZM64.9189 42.7459C65.8653 41.5864 65.6713 39.8994 64.4923 38.9725C63.3132 38.0457 61.5872 38.2357 60.6447 39.3914L47.8067 55.1363L40.9416 49.8621C40.3808 49.4058 39.6639 49.1865 38.9438 49.2509C38.2236 49.3154 37.5571 49.6586 37.0863 50.2073C36.8563 50.4764 36.6826 50.7888 36.5754 51.1262C36.4682 51.4636 36.4298 51.819 36.4623 52.1715C36.4949 52.524 36.5977 52.8664 36.7649 53.1785C36.932 53.4905 37.16 53.7659 37.4354 53.9884L46.4337 61.0077C47.0019 61.4698 47.7299 61.6884 48.4587 61.6157C49.1876 61.5431 49.8581 61.1851 50.3239 60.6198L64.9073 42.7032L64.9189 42.7459Z" fill="#005DB4"/>
</svg>
