<svg width="100" height="100" viewBox="0 0 100 100" fill="none" xmlns="http://www.w3.org/2000/svg">
<path d="M71.6171 43.0712L70.6945 44.7246C70.357 45.3374 69.6369 45.5918 68.9956 45.349C67.668 44.8402 66.4529 44.1118 65.3841 43.1984C64.8665 42.759 64.7315 41.9843 65.069 41.3831L65.9916 39.7296C65.2153 38.8046 64.6077 37.7293 64.2027 36.5615H62.3463C61.6712 36.5615 61.0862 36.0644 60.9737 35.3706C60.7487 33.9831 60.7374 32.5263 60.9737 31.081C61.0862 30.3872 61.6712 29.8785 62.3463 29.8785H64.2027C64.6077 28.7107 65.2153 27.6354 65.9916 26.7104L65.069 25.057C64.7315 24.4557 64.8553 23.681 65.3841 23.2417C66.4529 22.3282 67.6792 21.5998 68.9956 21.0911C69.6369 20.8483 70.357 21.1026 70.6945 21.7154L71.6171 23.3689C72.7984 23.1492 74.0023 23.1492 75.1836 23.3689L76.1062 21.7154C76.4437 21.1026 77.1638 20.8483 77.8051 21.0911C79.1327 21.5998 80.3478 22.3282 81.4166 23.2417C81.9342 23.681 82.0692 24.4557 81.7317 25.057L80.8091 26.7104C81.5854 27.6354 82.1929 28.7107 82.598 29.8785H84.4544C85.1294 29.8785 85.7145 30.3757 85.827 31.0694C86.052 32.4569 86.0633 33.9138 85.827 35.3591C85.7145 36.0528 85.1294 36.5615 84.4544 36.5615H82.598C82.1929 37.7293 81.5854 38.8046 80.8091 39.7296L81.7317 41.3831C82.0692 41.9843 81.9454 42.759 81.4166 43.1984C80.3478 44.1118 79.1214 44.8402 77.8051 45.349C77.1638 45.5918 76.4437 45.3374 76.1062 44.7246L75.1836 43.0712C74.0135 43.2909 72.7984 43.2909 71.6171 43.0712ZM70.4357 36.2725C74.7673 39.6949 79.7065 34.6191 76.3762 30.1675C72.0446 26.7335 67.1054 31.821 70.4357 36.2725ZM57.4634 54.067L61.255 56.0095C62.3913 56.6801 62.8863 58.1023 62.4363 59.3741C61.435 62.1722 59.4661 64.7391 57.6434 66.9822C56.8108 68.0112 55.3707 68.2656 54.2344 67.595L50.9604 65.6525C49.1602 67.2366 47.0675 68.4969 44.7836 69.3178V73.2027C44.7836 74.544 43.8498 75.7002 42.5672 75.9315C39.7994 76.4171 36.8967 76.4402 34.0277 75.9315C32.7339 75.7002 31.7775 74.5555 31.7775 73.2027V69.3178C29.4936 68.4853 27.4009 67.2366 25.6008 65.6525L22.3267 67.5834C21.2017 68.254 19.7503 67.9997 18.9177 66.9706C17.0951 64.7275 15.1712 62.1607 14.1698 59.3741C13.7198 58.1138 14.2148 56.6917 15.3512 56.0095L19.0977 54.067C18.6589 51.6505 18.6589 49.1645 19.0977 46.7364L15.3512 44.7824C14.2148 44.1118 13.7085 42.6896 14.1698 41.4293C15.1712 38.6312 17.0951 36.0644 18.9177 33.8213C19.7503 32.7922 21.1904 32.5378 22.3267 33.2084L25.6008 35.1509C27.4009 33.5669 29.4936 32.3066 31.7775 31.4857V27.5891C31.7775 26.2595 32.7001 25.1032 33.9827 24.872C36.7504 24.3863 39.6644 24.3632 42.5334 24.8604C43.8273 25.0917 44.7836 26.2363 44.7836 27.5891V31.4741C47.0675 32.3066 49.1602 33.5553 50.9604 35.1394L54.2344 33.1969C55.3595 32.5263 56.8108 32.7806 57.6434 33.8097C59.4661 36.0528 61.3787 38.6196 62.3801 41.4177C62.8301 42.678 62.3913 44.1002 61.255 44.7824L57.4634 46.7249C57.9022 49.153 57.9022 51.6389 57.4634 54.067ZM44.2323 56.5067C50.8929 47.6036 41.0033 37.4403 32.3401 44.2852C25.6795 53.1883 35.5691 63.3516 44.2323 56.5067ZM71.6171 77.6311L70.6945 79.2846C70.357 79.8974 69.6369 80.1517 68.9956 79.9089C67.668 79.4002 66.4529 78.6718 65.3841 77.7583C64.8665 77.319 64.7315 76.5443 65.069 75.943L65.9916 74.2896C65.2153 73.3646 64.6077 72.2893 64.2027 71.1215H62.3463C61.6712 71.1215 61.0862 70.6243 60.9737 69.9306C60.7487 68.5431 60.7374 67.0862 60.9737 65.6409C61.0862 64.9472 61.6712 64.4385 62.3463 64.4385H64.2027C64.6077 63.2707 65.2153 62.1954 65.9916 61.2704L65.069 59.6169C64.7315 59.0157 64.8553 58.241 65.3841 57.8016C66.4529 56.8882 67.6792 56.1598 68.9956 55.651C69.6369 55.4082 70.357 55.6626 70.6945 56.2754L71.6171 57.9288C72.7984 57.7091 74.0023 57.7091 75.1836 57.9288L76.1062 56.2754C76.4437 55.6626 77.1638 55.4082 77.8051 55.651C79.1327 56.1598 80.3478 56.8882 81.4166 57.8016C81.9342 58.241 82.0692 59.0157 81.7317 59.6169L80.8091 61.2704C81.5854 62.1954 82.1929 63.2707 82.598 64.4385H84.4544C85.1294 64.4385 85.7145 64.9356 85.827 65.6294C86.052 67.0169 86.0633 68.4737 85.827 69.919C85.7145 70.6128 85.1294 71.1215 84.4544 71.1215H82.598C82.1929 72.2893 81.5854 73.3646 80.8091 74.2896L81.7317 75.943C82.0692 76.5443 81.9454 77.319 81.4166 77.7583C80.3478 78.6718 79.1214 79.4002 77.8051 79.9089C77.1638 80.1517 76.4437 79.8974 76.1062 79.2846L75.1836 77.6311C74.0135 77.8508 72.7984 77.8508 71.6171 77.6311ZM70.4357 70.8209C74.7673 74.2434 79.7065 69.1675 76.3762 64.716C72.0446 61.2935 67.1054 66.3694 70.4357 70.8209Z" fill="#005DB4"/>
</svg>
