<svg width="100" height="100" viewBox="0 0 100 100" fill="none" xmlns="http://www.w3.org/2000/svg">
<mask id="mask0_16727_892" style="mask-type:luminance" maskUnits="userSpaceOnUse" x="0" y="0" width="100" height="100">
<path d="M100 0H0V100H100V0Z" fill="white"/>
</mask>
<g mask="url(#mask0_16727_892)">
<mask id="mask1_16727_892" style="mask-type:luminance" maskUnits="userSpaceOnUse" x="0" y="0" width="100" height="100">
<path d="M100 0H0V100H100V0Z" fill="white"/>
</mask>
<g mask="url(#mask1_16727_892)">
<path d="M18.2418 35.7666H11.0356V39.879H18.2418V35.7666Z" fill="#005DB4"/>
<path d="M18.2418 27.5234H11.0356V31.6359H18.2418V27.5234Z" fill="#005DB4"/>
<path d="M18.2418 44.0117H11.0356V48.143H18.2418V44.0117Z" fill="#005DB4"/>
<path d="M18.2418 68.7402H11.0356V72.8715H18.2418V68.7402Z" fill="#005DB4"/>
<path d="M18.2418 60.4971H11.0356V64.6284H18.2418V60.4971Z" fill="#005DB4"/>
<path d="M18.2418 52.2539H11.0356V56.3852H18.2418V52.2539Z" fill="#005DB4"/>
<path d="M89.3039 60.4971H82.0977V64.6284H89.3039V60.4971Z" fill="#005DB4"/>
<path d="M89.3039 68.7402H82.0977V72.8715H89.3039V68.7402Z" fill="#005DB4"/>
<path d="M89.3039 52.2539H82.0977V56.3852H89.3039V52.2539Z" fill="#005DB4"/>
<path d="M89.3039 27.5234H82.0977V31.6359H89.3039V27.5234Z" fill="#005DB4"/>
<path d="M89.3039 44.0117H82.0977V48.143H89.3039V44.0117Z" fill="#005DB4"/>
<path d="M89.3039 35.7666H82.0977V39.879H89.3039V35.7666Z" fill="#005DB4"/>
<path d="M56.3475 11.0352H52.2351V18.2413H56.3475V11.0352Z" fill="#005DB4"/>
<path d="M72.816 11.0352H68.7036V18.2413H72.816V11.0352Z" fill="#005DB4"/>
<path d="M64.5914 11.0352H60.479V18.2413H64.5914V11.0352Z" fill="#005DB4"/>
<path d="M48.1046 11.0352H43.9922V18.2413H48.1046V11.0352Z" fill="#005DB4"/>
<path d="M31.6364 11.0352H27.5239V18.2413H31.6364V11.0352Z" fill="#005DB4"/>
<path d="M39.8607 11.0352H35.7483V18.2413H39.8607V11.0352Z" fill="#005DB4"/>
<path d="M39.8607 82.1348H35.7483V89.341H39.8607V82.1348Z" fill="#005DB4"/>
<path d="M31.6364 82.1348H27.5239V89.341H31.6364V82.1348Z" fill="#005DB4"/>
<path d="M48.1046 82.1348H43.9922V89.341H48.1046V82.1348Z" fill="#005DB4"/>
<path d="M56.3475 82.1348H52.2351V89.341H56.3475V82.1348Z" fill="#005DB4"/>
<path d="M64.5914 82.1348H60.479V89.341H64.5914V82.1348Z" fill="#005DB4"/>
<path d="M72.816 82.1348H68.7036V89.341H72.816V82.1348Z" fill="#005DB4"/>
<path d="M63.5537 36.7861H36.7852V63.5735H63.5537V36.7861Z" fill="#005DB4"/>
<path d="M67.6852 67.7034H32.673V32.6723H67.6852V67.7034ZM73.8539 22.3535H26.4855C24.2029 22.3535 22.373 24.2022 22.373 26.4659V73.8721C22.373 76.1547 24.2218 77.9845 26.4855 77.9845H73.8539C76.1365 77.9845 77.9663 76.1358 77.9663 73.8721V26.4659C77.9663 24.1834 76.1176 22.3535 73.8539 22.3535Z" fill="#005DB4"/>
</g>
</g>
</svg>
