<svg width="100" height="100" viewBox="0 0 100 100" fill="none" xmlns="http://www.w3.org/2000/svg">
<mask id="mask0_16727_1002" style="mask-type:luminance" maskUnits="userSpaceOnUse" x="14" y="14" width="72" height="72">
<path d="M85.5285 14.4854H14.4856V85.5282H85.5285V14.4854Z" fill="white"/>
</mask>
<g mask="url(#mask0_16727_1002)">
<mask id="mask1_16727_1002" style="mask-type:luminance" maskUnits="userSpaceOnUse" x="14" y="14" width="72" height="72">
<path d="M85.5285 14.4854H14.4856V85.5282H85.5285V14.4854Z" fill="white"/>
</mask>
<g mask="url(#mask1_16727_1002)">
<path d="M33.214 61.0422L31.1711 58.9993L37.4569 52.6993L31.1711 46.3993L33.214 44.3564L41.5569 52.6993L33.214 61.0422Z" fill="#005DB4"/>
<path d="M74.9855 68.4424H25.2426V39.1567H74.9998V68.4424H74.9855ZM61.0855 31.8424C61.8855 31.8424 62.5426 32.4995 62.5426 33.2995C62.5426 34.0995 61.8855 34.7567 61.0855 34.7567C60.2855 34.7567 59.6284 34.0995 59.6284 33.2995C59.6284 32.4995 60.2855 31.8424 61.0855 31.8424ZM66.2141 31.8424C67.0141 31.8424 67.6712 32.4995 67.6712 33.2995C67.6712 34.0995 67.0141 34.7567 66.2141 34.7567C65.4141 34.7567 64.7569 34.0995 64.7569 33.2995C64.7569 32.4995 65.4141 31.8424 66.2141 31.8424ZM71.3284 31.8424C72.1284 31.8424 72.7855 32.4995 72.7855 33.2995C72.7855 34.0995 72.1284 34.7567 71.3284 34.7567C70.5284 34.7567 69.8712 34.0995 69.8712 33.2995C69.8712 32.4995 70.5284 31.8424 71.3284 31.8424ZM20.8569 27.4424V72.8281H79.3855V27.4424H20.8569Z" fill="#005DB4"/>
<path d="M54.4998 58.1855H42.7998V61.1141H54.4998V58.1855Z" fill="#005DB4"/>
</g>
</g>
</svg>
