<svg width="100" height="100" viewBox="0 0 100 100" fill="none" xmlns="http://www.w3.org/2000/svg">
<g clip-path="url(#clip0_14787_1027)">
<mask id="mask0_14787_1027" style="mask-type:luminance" maskUnits="userSpaceOnUse" x="-1" y="0" width="101" height="100">
<path d="M99.7502 0H-0.249756V100H99.7502V0Z" fill="white"/>
</mask>
<g mask="url(#mask0_14787_1027)">
<mask id="mask1_14787_1027" style="mask-type:luminance" maskUnits="userSpaceOnUse" x="-1" y="0" width="101" height="100">
<path d="M99.7502 0H-0.249756V100H99.7502V0Z" fill="white"/>
</mask>
<g mask="url(#mask1_14787_1027)">
<path d="M95.6917 23.2565C95.5882 23.008 95.3189 22.8424 95.0497 22.8631H94.8634C94.1593 22.8631 93.4552 23.0909 92.8754 23.5257C92.7511 23.65 92.5855 23.7328 92.4198 23.7742C92.1506 23.8364 91.8607 23.9606 91.5708 24.0434C90.7217 24.3955 89.7691 24.499 88.858 24.3126C88.5266 24.147 88.1125 24.2712 87.9054 24.5819C87.8433 24.7268 87.6776 24.7889 87.512 24.7268C87.367 24.6854 87.222 24.7268 87.1185 24.8096C86.9321 24.9339 86.7457 24.996 86.5387 25.0167C85.8346 25.0996 85.1719 25.4516 84.6749 25.9693C84.5921 26.0314 84.4885 26.1764 84.4264 26.1557C83.9916 26.0728 83.8052 26.4456 83.5153 26.6113L83.2875 27.3775L82.7905 27.5017C82.5627 27.6467 82.7905 27.8538 82.6041 28.0194C82.4177 28.1644 82.6041 28.3922 82.6041 28.5785C81.9 28.4957 81.5687 28.6407 80.9682 29.324C81.0924 29.3862 81.2166 29.4069 81.3409 29.4069C81.403 29.4069 81.3409 29.5104 81.2374 29.4897C81.3202 29.7382 81.1959 30.0074 80.9474 30.0902C80.9474 30.0902 80.906 30.0902 80.8853 30.0902C80.5747 30.1524 80.2848 30.3594 80.1191 30.6494C80.0363 30.7943 79.8292 30.8564 79.705 30.96C79.5807 31.0635 79.6428 31.0635 79.6221 31.1049L79.8706 31.5812L79.415 32.3267C79.2494 32.3267 79.1044 32.3267 78.9387 32.3267C78.6902 32.3267 78.4832 32.5545 78.5039 32.8237C78.5039 32.8444 78.5039 32.8651 78.5039 32.9066C78.5039 33.1758 78.7524 33.4036 79.0423 33.3828C79.208 33.3828 79.3943 33.2586 79.56 33.3C80.0984 33.3621 80.4297 33.8798 80.9267 34.0662L80.7818 34.6046L81.8172 34.9567C81.8172 34.9567 81.9829 34.9567 82.0657 34.9567C82.7076 34.8324 83.3496 34.8324 83.9916 34.9567C84.0951 34.9567 84.24 34.9567 84.24 34.791C84.0123 34.646 83.7431 34.4804 83.5153 34.3147C82.9976 33.9627 82.6041 33.4243 82.4177 32.8237C82.1485 32.1611 82.3142 31.3949 82.8319 30.8979C82.9768 30.6908 83.1218 30.4837 83.2253 30.2766L82.8319 30.0488C83.1011 30.0488 83.3703 30.0488 83.6395 30.0488C83.8052 30.0488 83.9915 29.9453 83.9294 29.6968C83.8673 29.469 83.9294 29.4897 84.0951 29.4897C84.4057 29.4897 84.4678 29.2412 84.6128 29.0755C84.7578 28.9099 84.6956 28.5992 85.0477 28.5371C85.2548 28.4957 85.4411 28.3507 85.5033 28.1644C85.6482 27.7709 86.0002 27.5017 86.4144 27.4603C86.7457 27.4603 87.0564 27.2946 87.2013 26.984C87.3049 26.7355 87.4912 26.6527 87.6776 26.5284C88.5267 25.9693 89.4585 25.5759 90.4525 25.3688C91.7985 25.0996 93.0825 24.644 94.4078 24.3334C94.7598 24.2505 95.0704 24.0642 95.3397 23.8157C95.5467 23.6707 95.7331 23.4636 95.6296 23.1737L95.6917 23.2565Z" fill="#005DB4"/>
<path d="M21.6807 58.5444C22.0535 58.4063 22.3572 58.5306 22.5919 58.9171L22.2606 59.7247C22.8197 60.0354 23.3374 59.7247 23.8551 59.7247C23.7861 60.2217 23.9655 60.6152 24.3935 60.9051C24.3728 61.0708 24.3314 61.2571 24.29 61.4228C24.2278 61.5885 24.1657 61.7541 24.1036 61.9198L22.9025 62.0233C22.9854 62.2097 23.0682 62.3961 23.151 62.5825C23.3167 62.8724 23.2338 63.2658 22.9232 63.4522C22.9025 63.4522 22.8818 63.4729 22.8404 63.4936C22.7161 63.5765 22.5712 63.6179 22.4469 63.7007C22.3641 63.7835 22.2813 63.8664 22.2191 63.9492C22.5919 64.032 22.9232 64.0735 23.2546 64.1563C23.648 64.3427 24.0829 64.4048 24.497 64.322C24.4142 64.674 24.145 64.7568 23.8344 64.7361C23.6066 64.674 23.3581 64.7361 23.151 64.8811C22.799 65.171 22.5091 65.523 22.302 65.9165C22.7368 65.7922 23.1717 65.7922 23.6066 65.9165C23.7723 65.5023 24.2071 65.2952 24.642 65.4195C24.8491 65.4609 25.0562 65.4609 25.2633 65.4195C25.9259 65.2745 26.6093 65.2124 27.2927 65.2331C27.7482 65.2745 28.2038 65.0675 28.4937 64.6947L27.8311 64.4255C27.9346 64.2598 28.0382 64.1149 28.1624 63.9906C28.3074 63.8457 28.4937 63.7628 28.6387 63.5972C28.8665 63.4315 28.9493 63.1209 28.8458 62.8724C28.7215 62.6239 28.473 62.4582 28.2038 62.4582C28.0796 62.4582 27.976 62.4582 27.8518 62.4582C27.7275 62.4582 27.6033 62.6032 27.4169 62.4582C27.4997 62.189 27.4583 61.8991 27.3134 61.6506C27.2512 61.5264 27.1891 61.3814 27.1477 61.2364C27.0027 60.7809 26.6714 60.4081 26.2572 60.201C26.0916 60.0975 25.9466 59.9318 25.8638 59.7454C25.7602 59.5591 25.6774 59.3727 25.636 59.1656C25.491 58.6686 25.0562 58.3166 24.5385 58.2752C24.4142 58.2752 24.2278 58.358 24.145 58.1716C24.6627 57.5297 25.0769 56.8049 25.3668 56.0387C24.8077 55.8937 24.2485 55.8523 23.6687 55.9351H23.2753C23.2131 55.6866 23.3167 55.3967 23.5445 55.2725C23.7308 55.1275 24.0001 55.0033 24.0622 54.6512C23.4409 54.5063 22.8818 54.7962 22.302 54.6512C22.1984 54.879 22.1156 55.0654 22.0328 55.2518C21.9499 55.4381 21.9085 55.5417 21.805 55.6038C21.5979 55.6866 21.4736 55.9351 21.5565 56.1422C21.5565 56.1422 21.5565 56.1836 21.5772 56.1836C21.66 56.37 21.66 56.5978 21.5772 56.7842C21.5772 56.9291 21.5151 57.0741 21.4736 57.219C21.4322 57.364 21.3701 57.4468 21.308 57.6125L21.8464 57.4882C21.8464 57.861 21.805 58.1923 21.7636 58.5237L21.6807 58.5444Z" fill="#005DB4"/>
<path d="M42.5959 21.6424L43.1965 21.5596C42.948 21.8288 42.7616 21.6631 42.5752 21.6424H42.5959ZM38.5785 18.0806L39.0755 17.8114L39.2826 18.5776C39.1998 18.7433 38.9306 18.971 39.0134 19.0953C39.0755 19.2195 39.4483 19.3024 39.6139 19.4266C39.7796 19.5716 39.9246 19.7165 40.0488 19.8615C40.4837 20.2342 41.1256 20.1928 41.4984 19.7787C41.5605 19.6958 41.6226 19.613 41.6641 19.5095C41.6641 19.3852 41.7469 19.2402 41.7883 19.116C42.0782 19.116 42.306 19.261 42.4717 18.9918H42.6166V19.468C43.1136 19.6751 43.3828 19.2195 43.7763 19.0746L43.8384 19.8615C43.4864 19.8822 43.1343 19.9443 42.803 20.0479C42.2232 20.3585 41.5812 20.5242 40.9186 20.5034C40.9186 20.7727 40.9186 20.959 41.1671 21.0626C41.8919 20.9383 42.6166 20.8762 43.3414 20.8762H43.8177V20.959L43.3621 20.8348C43.3621 20.8348 43.1758 21.0833 43.0515 21.104C42.803 21.1661 42.5752 21.3318 42.4717 21.5596H41.8711C41.6848 21.5596 41.4777 21.3525 41.2913 21.6838C41.3741 21.7874 41.4363 21.9944 41.5605 22.0566C42.0575 22.4086 42.6788 22.5536 43.2793 22.4707C43.1965 22.6778 43.0308 22.7814 43.0929 22.947C43.3207 23.1748 43.6106 23.4647 44.0248 23.3198C44.2112 23.0091 44.3561 22.6778 44.4597 22.3465C44.5632 21.8909 44.9152 21.5182 45.3708 21.3939C45.5572 21.2904 45.4537 20.9383 45.4951 20.7519C45.5365 20.5656 45.5572 20.462 45.64 20.4413C46.1163 20.2964 46.0749 19.8408 46.1784 19.5095C46.4269 19.3645 46.6547 19.2195 46.9032 19.116C47.131 19.0125 47.3795 19.0332 47.6073 18.9503C47.8351 18.8675 48.125 19.0125 48.3942 18.7225L45.93 17.7907C45.93 17.4179 45.93 17.0659 45.4537 17.0038C45.2466 17.0038 45.2052 17.3558 44.8945 17.2108L44.936 16.5275C44.7703 16.4446 44.5632 16.2168 44.4183 16.2583C44.0248 16.3618 43.7556 16.0098 43.3828 16.0098L42.9066 16.5896C42.9894 16.8588 43.0722 17.128 43.1136 17.3972C43.1136 17.6664 43.445 17.8735 43.3828 18.2048C42.8444 18.0599 42.6788 17.625 42.451 17.2316C42.2439 16.8381 42.0989 16.6103 41.7055 16.5896C41.4018 16.8795 41.2085 17.1901 41.1256 17.5215L39.9039 16.9623C40.1109 16.5275 40.6079 16.8795 40.8564 16.5275C40.1524 16.3618 39.4069 16.3618 38.7028 16.5689C38.5371 16.631 38.5164 16.7138 38.475 16.776C38.0401 17.2523 38.0401 17.273 38.4129 17.8114C38.3715 17.977 38.4543 17.977 38.5164 18.0185L38.5785 18.0806Z" fill="#005DB4"/>
<path d="M20.811 63.3277C20.9352 63.0792 21.0387 62.8307 21.0802 62.5615C21.0802 62.0645 21.0387 61.5261 20.9973 61.0705L21.5979 60.47C21.5357 60.0351 21.3079 59.6417 20.9766 59.3518L20.2518 59.4553C19.9826 59.1033 19.672 59.4553 19.3821 59.4553C19.0922 59.4553 18.9058 59.6831 18.8644 60.0765C18.823 60.47 18.7608 60.6564 18.3467 60.6978C18.181 60.6978 17.9946 60.6978 17.829 60.6978C17.4976 60.6978 17.4148 60.7806 17.5183 61.1119C17.5183 61.2362 17.6012 61.2983 17.5183 61.4226C17.4355 61.5468 17.3941 61.6918 17.3527 61.816L18.1603 62.1267C17.9946 62.458 17.8704 62.7479 17.7047 63.0378C17.4769 63.307 17.3113 63.5969 17.187 63.9283L18.1189 64.3424C18.5538 64.1975 18.9679 64.0318 19.3614 63.804C19.817 63.5762 20.314 63.4106 20.811 63.2863V63.3277Z" fill="#005DB4"/>
<path d="M45.6815 16.1745V16.5472C46.0336 16.7957 46.4684 16.8786 46.8826 16.775L48.3115 16.6301C48.415 16.6301 48.56 16.6301 48.56 16.8164C48.3529 16.8993 48.1458 17.0028 47.918 17.0856C47.7109 17.1478 47.421 17.0028 47.1311 17.1478C47.566 17.4584 48.1044 17.6034 48.6428 17.5412C49.2019 17.4584 49.7817 17.5412 50.2994 17.7483C50.6929 17.9347 51.1278 17.914 51.5005 17.6862C51.6041 17.6241 51.7283 17.5826 51.8319 17.5826C52.3081 17.6448 52.7637 17.417 52.9915 17.0028C53.0536 16.8786 53.2814 16.8164 53.4471 16.7336C53.6128 16.6508 53.8198 16.5472 54.0062 16.4437C54.1719 16.3401 54.1098 16.0709 53.9648 15.9881C53.8613 15.926 53.7577 15.9053 53.6335 15.8846C53.1365 15.8639 52.6188 15.781 52.1218 15.6568C51.6869 15.5118 51.2106 15.5739 50.8379 15.8224C50.7136 15.926 50.4651 15.8224 50.2373 15.8639C50.2373 15.7603 50.2373 15.6568 50.2373 15.5532C50.2373 15.4911 50.2373 15.3669 50.1545 15.3462C50.0717 15.3047 49.9888 15.3047 49.9267 15.3462C49.7817 15.5532 49.6368 15.781 49.4504 16.0916C49.264 15.9881 49.0777 15.9053 48.8913 15.8224C48.767 15.7396 48.6221 15.6982 48.4978 15.7189C48.2286 15.7189 47.9594 15.6568 47.7523 15.4911C47.5245 15.3462 47.2968 15.2426 47.0483 15.0977C47.0483 15.5532 46.572 15.6361 46.427 15.926C46.0957 15.781 45.7436 15.7603 45.3916 15.8846C45.5159 16.0295 45.6608 16.0917 45.7229 16.1745H45.6815Z" fill="#005DB4"/>
<path d="M49.6991 21.5184L49.9476 22.0982C50.5067 21.9119 51.0037 21.5598 51.335 21.0628C50.7759 21.0214 50.2789 20.6694 50.0718 20.1517H49.2642C49.0779 19.4683 48.9329 19.344 48.3531 19.4269C48.1667 19.4683 47.9803 19.5511 47.7939 19.6547C47.9044 19.9032 48.1667 20.0964 48.5809 20.2345L48.2702 20.483C48.2702 20.483 48.3324 20.6072 48.3738 20.6487L48.5809 20.7936C48.5187 21.2078 48.2081 21.3942 48.2909 21.7669L49.6991 21.5184Z" fill="#005DB4"/>
<path d="M75.7912 38.3941C76.3296 38.4148 76.8473 38.1249 77.0958 37.6279L76.5781 37.338C76.4745 37.2966 76.3503 37.2551 76.2467 37.2344C75.8947 37.1516 75.522 37.338 75.3563 37.6693C75.2113 37.8764 75.2527 38.187 75.4805 38.332C75.5634 38.3941 75.6876 38.4148 75.7912 38.4148V38.3941Z" fill="#005DB4"/>
<path d="M86.7252 36.7182C86.7252 36.7182 86.8909 36.8011 86.9737 36.8011C87.0772 36.8011 87.2222 36.7389 87.2636 36.6768C87.2636 36.5733 87.2636 36.449 87.1601 36.3869C86.808 36.1384 86.4353 35.9106 86.0625 35.6621C86.0211 35.6621 85.959 35.6621 85.8969 35.6621C85.8554 35.6621 85.7933 35.7035 85.7519 35.7242C85.607 35.8692 85.5862 36.097 85.7105 36.2626C85.7519 36.3041 85.814 36.3455 85.8762 36.3662C86.1868 36.4076 86.4767 36.5319 86.7252 36.7182Z" fill="#005DB4"/>
<path d="M60.343 15.7816C59.9288 15.4089 59.5561 15.616 59.204 15.6988C59.1005 15.6988 58.9141 15.7402 58.997 15.9887C59.4525 16.0094 59.9081 15.9473 60.343 15.7816Z" fill="#005DB4"/>
<path d="M59.8255 52.4548C59.5977 52.4341 59.3699 52.4341 59.1421 52.4548C58.9557 52.5583 58.7694 52.6826 58.6037 52.8068C58.5002 52.7033 58.3966 52.5998 58.3138 52.4962L57.2784 50.8396C57.3405 50.7153 57.4233 50.6118 57.5062 50.5289C57.734 50.3633 57.941 50.1976 58.1895 50.0526C58.7279 50.3633 59.2249 50.6532 59.7634 51.0052C59.9704 51.1502 60.0533 51.4194 60.2396 51.6679L59.8255 52.4548ZM50.3204 81.0943V81.3221C50.0305 81.2807 49.7613 81.1564 49.5542 80.9493C49.9477 80.7629 50.134 80.7837 50.3204 81.0943ZM36.7979 56.9899C36.8601 56.9899 36.9222 56.9899 36.7979 56.9899V56.9899ZM44.9363 53.4074C44.9363 53.4074 45.1019 53.5523 45.1226 53.6559C45.1226 53.7594 44.8948 53.863 44.7706 53.7801C44.6464 53.718 44.3771 53.5523 44.1079 53.4074C44.3564 53.3038 44.6464 53.2831 44.9156 53.4074H44.9363ZM38.4132 47.05C38.4132 46.9257 38.4132 46.8015 38.4132 46.6979C38.4132 46.6979 38.5374 46.6358 38.6203 46.6151C38.7031 46.5944 38.7031 46.8015 38.6617 46.8222C38.5788 46.9257 38.4753 47.0292 38.3718 47.0914V47.05H38.4132ZM37.3778 47.5055C37.3778 47.5055 37.2949 47.3192 37.2535 47.2363L38.2889 47.0914C38.144 47.4848 37.7919 47.4848 37.3778 47.5055ZM91.2813 37.3792C91.0949 37.3792 90.9292 37.2757 90.7636 37.2343C90.308 37.1514 89.8938 37.0893 89.4382 37.0272L88.1336 36.7994L87.4917 37.2964L88.1336 38.249C88.1336 38.249 88.1336 38.3525 88.0715 38.3732C87.9265 38.601 87.678 38.746 87.4088 38.7874C87.0361 38.7874 87.1189 39.2222 86.8497 39.2844C86.7048 39.3258 86.5598 39.3258 86.4148 39.2844C86.2699 39.2222 86.2492 39.0566 86.3113 38.8909C86.3527 38.746 86.4148 38.7045 86.4355 38.6217C86.2078 38.3939 86.0214 38.2904 85.7522 38.3939C85.6072 38.4353 85.4622 38.4975 85.338 38.5389C85.0481 38.7253 84.7168 38.8702 84.3854 38.9738C83.992 38.9945 83.6192 38.9945 83.2258 38.9738C82.7081 38.9116 82.2111 39.1808 81.9833 39.6364H81.3827C81.1135 39.6364 80.865 39.595 80.5958 39.5536V39.4086L81.0307 39.2015C81.0307 39.0773 81.01 38.9323 80.9893 38.8081C80.9272 38.5389 80.8029 38.4353 80.5544 38.5389C80.3473 38.601 80.1609 38.6838 80.016 38.8081C79.9125 38.9738 79.8296 39.1601 79.7882 39.3465C79.1462 39.0773 78.4008 39.1601 77.8209 39.5329C77.4482 39.7607 77.0133 39.9263 76.6198 40.1127L75.2738 40.7547L74.9632 41.7279C74.694 41.8315 74.4041 41.8936 74.1142 41.935C73.7621 42.0179 73.3894 41.9557 73.0787 41.7694C72.7888 41.5416 72.5196 41.2724 72.2297 40.9824C72.4989 40.2784 73.1823 40.2577 73.7621 40.092V39.8228C73.4515 39.3672 72.9545 39.098 72.4161 39.0773H71.0908C71.9398 39.7607 71.2357 40.4233 71.1529 41.0653C71.9191 41.9143 71.9191 42.1835 71.1529 43.0533C70.6352 42.7634 70.0553 42.5977 69.4755 42.5563C69.1235 42.9083 68.6886 43.1568 68.2123 43.3225C67.8603 43.4881 67.5289 43.6952 67.239 43.9437C67.0941 44.068 67.0526 44.2751 67.1769 44.42C67.3219 44.6064 67.5082 44.7721 67.6325 44.9584C67.6946 45.0827 67.736 45.2276 67.6946 45.3726C67.6946 45.5175 67.5082 45.5797 67.3426 45.559C67.1769 45.559 66.9284 45.559 66.7213 45.559C66.4107 45.4554 66.1001 45.3726 65.7894 45.3519C65.3339 45.3519 65.1889 44.9998 64.8576 44.8756L64.3399 44.7099L63.9464 45.1655C64.1742 45.6832 64.7126 45.9731 65.2717 45.8903L65.3339 46.5115C65.0647 46.7393 64.7126 46.8015 64.3813 46.7186C63.9671 46.6565 63.5944 46.4701 63.2838 46.2009C63.0974 46.0767 62.8903 45.9938 62.6625 45.9731C62.3519 45.8903 62.1034 45.7246 62.1034 45.3726C62.1034 45.0206 61.8342 44.6685 61.7306 44.3372C62.1034 43.4881 62.0413 43.3018 61.2751 42.929H61.1922C60.7573 42.6184 60.3225 42.3078 59.9083 41.9764C59.7219 41.8729 59.6598 41.6244 59.7841 41.438C59.7841 41.438 59.8048 41.3966 59.8255 41.3966C59.929 41.4173 60.0326 41.4587 60.1361 41.5209C60.3639 41.7901 60.6952 41.9557 61.0473 41.9971C61.2543 42.0386 61.4407 42.1007 61.6478 42.1628C62.2069 42.3285 62.7868 42.5149 63.3666 42.6598C63.9464 42.8048 64.2363 42.8048 64.6712 42.9497C65.6031 43.2189 66.5971 43.0947 67.4254 42.6184C67.7567 42.4113 68.0466 42.1628 68.2951 41.8729C68.4608 41.6865 68.5022 41.4173 68.378 41.2102C68.2744 40.9824 68.1916 40.7132 68.1088 40.4855C67.7774 40.2577 67.4461 40.0506 67.0734 39.8849C66.2864 39.5743 65.541 39.1808 64.8369 38.746C64.3813 38.456 63.905 38.2283 63.3873 38.0419C62.7039 37.8555 62.0205 37.752 61.3372 37.6898C61.2336 37.6898 61.1094 37.752 61.0058 37.7727C60.9023 37.7934 60.7988 37.7727 60.7781 37.7727C60.571 37.3378 60.0533 37.5863 59.7427 37.2964C59.7427 37.2964 59.6391 37.2343 59.6184 37.1928C59.6184 37.1514 59.6184 37.0893 59.6184 37.0479C59.8048 37.0479 60.0326 37.1514 60.2396 36.9236C59.9911 36.7994 59.7426 36.6958 59.4734 36.6337L58.9764 36.9236L57.092 36.758C56.9885 36.6337 56.8642 36.5302 56.74 36.4473C56.5122 36.3231 56.2637 36.2403 56.0359 36.1574C57.0437 36.2127 57.727 36.0539 58.086 35.6811C57.6511 35.3912 57.1541 35.1634 56.6364 35.0599C56.1808 34.8942 56.2015 34.8942 55.9116 35.2463C55.8495 35.3084 55.8288 35.3912 55.7667 35.4534C55.7045 35.5155 55.5182 35.4534 55.456 35.3084C55.456 35.2463 55.456 35.1634 55.456 35.1013C55.5803 34.9564 55.6838 34.8528 55.7045 34.77C55.7253 34.6871 55.5596 34.5422 55.4146 34.5215H55.0419C54.8555 34.8321 54.6691 35.122 54.462 35.3912C54.3999 35.4741 54.2343 35.4948 54.0893 35.5776C54.0272 35.3291 53.9858 35.1427 53.9236 34.8942C53.5095 35.2049 53.1367 35.5776 52.8468 36.0125C52.764 36.1367 52.6397 36.2196 52.4741 36.0125C52.5155 35.8054 52.5569 35.619 52.6397 35.4326C52.764 35.2256 52.9296 35.0392 53.0953 34.8735L52.2049 34.7493C51.9978 34.9564 51.9149 35.3498 51.6043 35.2256C51.2937 35.122 51.2523 35.4119 51.1073 35.5362L50.7346 36.3852C50.2169 36.0332 49.6992 35.7226 49.0779 36.0332L49.4507 36.4473C48.8708 36.4266 48.291 36.6337 47.8561 37.0479C47.794 36.9236 47.7319 36.8201 47.649 36.7166C47.5041 36.7787 47.3591 36.8201 47.2142 36.8201C47.0692 36.8201 47.0485 36.6337 46.9864 36.4888C46.9243 36.3645 46.6965 36.2403 46.3858 36.4888C46.6551 36.7787 46.6551 37.2343 46.3858 37.5242C46.2616 37.607 46.1373 37.6691 46.0131 37.5242C45.8888 37.3792 45.5575 37.4206 45.3297 37.3792C45.0191 37.3171 44.7085 37.4828 44.6049 37.7727L44.8949 37.8555L45.2055 37.9176C45.1226 38.601 44.6671 38.746 44.1701 38.7667L43.7973 38.4146L43.3832 38.5803L43.0518 38.0419C43.0518 38.2283 43.0311 38.4146 43.0104 38.601C43.0104 38.746 42.9069 38.9116 42.8033 39.1394C43.1347 39.0773 43.4867 39.0566 43.8387 39.0566C44.1701 39.0566 44.5221 38.8495 44.8741 39.0566C44.6049 39.3258 44.2736 39.1187 43.9837 39.2637L43.7766 39.9263C43.2589 39.7192 43.0104 40.1127 42.7412 40.3198V40.4855C42.3685 40.7961 42.0164 41.1274 41.6022 41.4173C41.2295 41.6865 40.9396 42.0386 40.7532 42.4527L40.9603 42.6805C40.2769 43.0947 39.8628 43.8195 39.842 44.6271C39.5107 44.6271 39.3036 44.6892 39.2001 45.0205C39.1173 45.2276 39.0344 45.4347 38.9309 45.6211C38.6203 45.5175 38.2682 45.6211 38.0611 45.911C37.8334 46.1595 37.6263 46.408 37.4399 46.6565C37.3778 46.7807 37.3571 46.9257 37.3778 47.05C37.2535 47.05 37.0879 47.05 37.005 47.1742C36.8808 47.3399 36.653 47.3606 36.4873 47.2363C36.4666 47.2363 36.4459 47.1949 36.4252 47.1742L35.8039 48.1061C35.514 48.1061 35.2241 48.0232 34.9342 48.0025C34.81 48.0025 34.7064 48.044 34.7685 48.2303L35.3277 48.396C35.0377 48.7066 34.6857 48.5202 34.3958 48.5824C34.0437 48.8102 33.816 49.2657 33.2982 49.2036C33.2154 49.2036 33.1326 49.2657 33.0912 49.3279C32.8634 49.5764 32.7598 49.887 32.8013 50.2183C32.8427 50.384 32.8013 50.6532 32.8634 50.7153C33.2568 50.9224 32.677 50.9638 32.8013 51.1709C32.9048 51.4608 32.9669 51.7507 32.9876 52.0613L33.6089 52.2891C33.526 52.6826 33.2983 53.0553 32.9876 53.3246C33.0705 53.3453 33.1533 53.366 33.2361 53.366C33.3811 53.366 33.5675 53.366 33.5882 53.5316C33.5882 53.6766 33.5882 53.8215 33.5053 53.9251C33.4018 54.0493 33.2775 54.1529 33.1533 54.2357C33.1533 54.3393 33.1533 54.4221 33.2361 54.4635C33.671 54.857 34.2094 55.1469 34.7892 55.2711C34.9963 55.3125 35.2034 55.2918 35.3898 55.2297C35.8661 55.0847 36.2802 54.8362 36.6116 54.4842C36.8601 54.2357 37.0671 53.9665 37.502 53.9665C37.6263 53.9665 37.7712 53.7801 37.8748 53.6352C37.9783 53.5109 37.8748 53.3246 38.1647 53.3246C38.3511 53.4902 38.496 53.6973 38.641 53.9044C38.8066 54.3185 38.7445 54.8363 39.2001 55.1469C39.2622 55.1883 39.2415 55.3747 39.2829 55.4782C39.3658 55.7888 39.4693 56.0995 39.6143 56.3894C39.842 56.8035 40.1113 57.1763 40.3805 57.5904C40.3598 57.694 40.2976 57.7975 40.2562 57.8804C40.1941 57.9632 40.0905 58.046 40.0077 58.1081C40.3183 58.3774 40.5254 58.7294 40.5875 59.1436C40.7946 59.1436 40.981 59.1436 41.1467 59.0814C41.2916 59.0607 41.4159 59.0193 41.5608 58.9779C41.6437 58.7294 41.7679 58.5016 41.9129 58.2945C42.12 58.0667 42.4099 57.9632 42.7205 58.0046C42.9276 58.0046 43.1347 58.0046 43.321 58.0046C43.7559 57.4455 43.9837 56.7828 44.0044 56.0787C44.0665 55.6439 44.1494 55.209 44.2529 54.7741C44.2943 54.6292 44.3979 54.5049 44.5014 54.4221C44.6464 54.3185 44.7913 54.215 44.957 54.1529C45.1641 54.07 45.3711 53.9458 45.5575 53.8215C45.7025 53.6766 45.7646 53.4281 45.9096 53.2417C46.0545 53.0553 46.2616 52.9311 46.2616 52.5998C45.9717 52.2063 45.5782 51.8957 45.1226 51.7093C44.7706 51.6265 44.6671 51.3159 44.5842 50.9638C44.4393 50.239 44.8741 49.6385 44.9156 48.9551C44.9156 48.893 45.0191 48.8309 45.0605 48.7687C45.2055 48.6238 45.3504 48.4788 45.4747 48.3132C45.806 47.8162 46.303 47.4434 46.8621 47.2363C47.6076 46.9671 48.2703 46.4701 48.7466 45.8075C48.7466 45.7868 48.7466 45.7453 48.7466 45.7246C48.7466 45.4347 48.5602 45.1655 48.6637 44.9998C48.8708 44.5857 48.9744 44.0473 49.5128 43.8195C49.6577 43.7781 49.7613 43.6124 49.9062 43.4674H51.2523C51.6664 43.4674 52.0806 43.571 52.4326 43.7988C52.5776 43.9023 52.6811 44.0473 52.7226 44.2129C52.7433 44.4614 52.7433 44.6892 52.7226 44.9377C52.3498 44.9791 52.0185 45.1862 51.7907 45.4761C51.3765 45.9731 50.8795 46.4287 50.3411 46.8015C50.134 46.9671 49.9477 47.1535 49.7613 47.3399C49.6577 47.4434 49.5542 47.6091 49.4507 47.6091C49.0365 47.6091 49.0365 48.0025 48.8294 48.1682C48.6223 48.3339 48.7052 48.748 48.7673 49.0587C49.0365 49.7006 49.0779 50.4047 48.8708 51.0674C48.7466 51.3366 48.8708 51.5436 49.2229 51.6886L49.9891 52.0821C49.9891 52.5169 50.3618 52.2891 50.5482 52.4548C50.7346 52.6205 51.0866 52.5998 51.3765 52.5169C51.9771 52.3513 52.5983 52.2477 53.1988 52.0613C54.1307 51.8543 55.0833 51.7093 56.0566 51.6472C56.1394 52.0613 56.5536 52.3513 56.9678 52.2891C57.092 52.2891 57.1955 52.2891 57.2991 52.3513C57.4233 52.4134 57.5476 52.5169 57.444 52.7033C56.6985 52.6205 55.953 52.869 55.3939 53.366C55.2283 53.4488 55.0626 53.4902 54.8969 53.4695C54.6484 53.4695 54.4206 53.4281 54.1928 53.366C53.1367 53.1382 52.0392 53.3245 51.1073 53.863C51.0659 54.1736 51.1073 54.4842 51.2316 54.7741C51.3972 55.1055 51.77 54.9191 51.9356 55.064V56.2858C51.9356 56.5965 51.7079 56.8657 51.4179 56.9278C51.1487 57.0313 50.8588 56.9278 50.7139 56.6793C50.5068 56.4515 50.279 56.2237 50.0926 56.0166C49.5749 56.0166 49.1193 56.3065 48.9122 56.7621C48.6223 57.2798 48.5395 57.9011 48.6637 58.4809C48.6637 58.7087 48.7673 58.9572 48.788 59.185C48.8501 59.4335 48.7673 59.682 48.5809 59.8476H47.5455C47.5455 60.0133 47.6076 60.1997 47.5455 60.2825C47.3591 60.5517 47.0485 60.7174 46.7172 60.676C46.303 60.6346 45.951 60.3861 45.7646 60.0133C45.1226 60.0133 44.4807 60.179 43.9216 60.4896C43.6524 60.6346 43.3832 60.7381 43.1139 60.8416C42.8862 60.9245 42.6584 60.9452 42.4306 61.0487C42.2235 61.173 42.0164 61.3179 41.8093 61.4629L40.8567 60.7174C40.5461 60.5103 40.132 60.5103 39.8213 60.7174C39.5728 60.8623 39.3036 60.9866 39.0137 61.0694C38.8481 61.1315 38.6824 61.1315 38.5167 61.0694C38.4546 61.0694 38.4546 60.8623 38.4132 60.7381L37.6056 60.4689C37.4813 60.2411 37.3364 60.0133 37.2121 59.7648C37.0671 59.5784 37.1086 59.3092 37.3156 59.185C37.3156 59.185 37.3156 59.185 37.3364 59.185C37.3364 59.04 37.3778 58.8951 37.4192 58.7708C37.5227 58.5637 37.647 58.3774 37.8126 58.191C37.9783 58.046 38.1647 57.9218 38.3718 57.8182C37.7712 57.3834 37.7712 57.3626 37.9369 56.7828C37.9576 56.7 37.999 56.6172 38.0197 56.5343C38.0819 56.3894 38.0197 56.2237 37.8748 56.1616C37.7298 56.1409 37.5849 56.1616 37.4813 56.2444C37.2949 56.4308 37.1086 56.6172 36.9429 56.8242C36.6944 56.8242 36.4459 56.8242 36.1974 56.8242C36.1353 56.8242 36.0939 56.9899 36.0317 57.0727L36.3009 57.1763C36.4252 57.5904 35.9489 57.4455 35.8247 57.7147C35.9489 58.1496 35.6797 58.7501 36.1767 59.1021C36.2181 59.1436 36.2388 59.2057 36.2388 59.2678C36.3838 59.8891 36.4666 60.531 36.5287 61.173C36.4045 61.2558 36.2802 61.3179 36.1767 61.4008L35.8454 61.7321C35.4312 61.4422 35.017 61.3593 34.6443 61.7321C34.5822 61.7942 34.4372 61.7735 34.313 61.7942C34.023 61.7942 33.7124 61.8563 33.4225 61.8978C33.1119 61.9599 33.0705 62.1255 33.1533 62.4983C33.1533 62.6225 33.1533 62.7261 33.1533 62.8503L32.3871 62.5604C32.2628 62.8917 32.0765 63.1817 31.8901 63.4716C31.6209 63.7615 31.9522 64.1342 31.683 64.4242C30.834 64.5484 30.0264 64.8176 29.2809 65.2111C29.2601 65.356 29.2394 65.5217 29.2187 65.6666C29.2187 66.0187 28.9909 66.3086 28.6389 66.3707C28.1833 66.4743 27.8106 66.7642 27.6035 67.1783C27.0858 67.2612 26.5474 67.1162 26.1539 66.7849H25.8433C25.9882 67.1991 26.2367 67.5304 26.009 67.986C25.5327 67.986 25.0357 68.2138 24.5594 67.8824C24.4765 67.841 24.3937 67.841 24.3109 67.8824L23.1926 68.1309L23.3583 68.8764C23.7932 69.0214 24.228 69.1663 24.6629 69.2699C25.0564 69.3527 25.367 69.6219 25.512 69.9947C25.6983 70.471 26.0504 70.8644 26.4852 71.1129C26.5888 72.0862 26.506 73.0802 26.2575 74.0328C26.216 74.4262 25.8433 74.7161 25.4498 74.6747C25.4084 74.6747 25.367 74.6747 25.3256 74.654C24.6215 74.5712 23.8967 74.5298 23.1926 74.5298C22.2815 74.4883 21.3703 74.3434 20.4384 74.3227C20.2935 74.3227 20.1692 74.2191 20.0243 74.1984C19.9 74.157 19.7965 74.157 19.6722 74.1984C19.2995 74.4055 18.9267 74.654 18.5333 74.9025C18.5954 75.0475 18.6782 75.2131 18.7404 75.3788C18.8232 75.5445 18.8646 75.7101 18.8646 75.8758C18.8232 76.2693 18.8646 76.6627 18.9682 77.0355C19.0096 77.2633 19.0096 77.5118 18.9682 77.7395C18.8853 78.2987 18.699 78.8371 18.409 79.3341C18.3262 79.5204 18.2848 79.7068 18.2848 79.8932L18.8853 80.3281V81.8398C19.2995 81.964 19.7344 81.964 20.1278 81.8398C20.6455 81.6948 20.9354 81.8398 21.2461 82.3575C21.3082 82.461 21.3496 82.5646 21.4117 82.6681C21.536 82.8959 21.7638 83.0408 22.033 83.0408C22.6335 82.5024 23.4618 82.2539 24.2488 82.3575C24.6836 82.3575 25.1185 82.2954 25.5534 82.2125C25.719 81.8191 26.0711 81.5084 26.4852 81.3842C26.5888 81.3221 26.6716 81.2392 26.7337 81.1564L27.5207 80.0589C27.5207 80.0589 27.4585 79.9346 27.4171 79.8725C27.1686 79.4997 27.21 79.0234 27.4999 78.7128C27.7484 78.3815 28.0177 78.0709 28.2454 77.6774C28.3904 77.4496 28.6182 77.284 28.8874 77.2425C29.3844 77.0976 29.84 76.8905 30.2749 76.6213C30.5648 76.4971 30.7097 76.1864 30.6476 75.8758C30.6476 75.793 30.6476 75.7101 30.5855 75.6273C30.4819 75.0268 30.5441 74.9025 31.0411 74.5919L31.4966 74.3641C31.8073 74.4055 32.0972 74.4469 32.4078 74.4469C32.7391 74.4469 32.9255 74.6954 33.2154 74.7783C33.526 74.9025 33.8781 74.8197 34.1266 74.6126C34.3958 74.3848 34.7064 74.1777 35.0377 74.0535C35.3484 73.9499 35.6176 73.7636 35.8454 73.5358C35.9489 73.4115 36.156 73.2666 36.2802 73.2873C36.6737 73.3908 37.0671 73.5358 37.4606 73.7014C37.6677 73.7843 37.7298 73.9914 37.7919 74.1984C37.9162 74.6954 38.2061 75.1303 38.5788 75.4616C39.0551 75.8137 39.4693 76.2486 39.9249 76.6213C40.0698 76.7663 40.2562 76.8698 40.4426 76.9319C40.9396 77.0355 41.3952 77.284 41.7886 77.5946C42.0578 77.7603 42.3685 77.8638 42.5134 78.2158C42.5755 78.3194 42.6791 78.4022 42.7826 78.4229C43.4867 78.6714 43.4453 79.3341 43.6109 79.8725L43.2175 80.5145C43.2175 80.5145 43.1139 80.5766 43.0725 80.5766C42.3063 80.8665 41.4573 80.9493 40.6497 80.8044C40.484 80.7422 40.2562 80.8665 40.0698 80.9286C39.8835 80.9907 40.0284 81.0736 39.987 81.1771L42.0371 82.2746C42.2028 82.3575 42.4099 82.3161 42.4927 82.1504C42.5134 82.0883 42.5341 82.0261 42.5341 81.964C42.5341 81.8398 42.4927 81.7362 42.4927 81.612C42.4927 81.3014 42.617 81.0114 42.8654 80.8251H43.3624L43.6938 80.4937C43.9216 80.2452 43.9216 79.8311 44.3357 79.6654C44.4807 79.6033 44.4393 79.3341 44.3357 79.1891C44.2115 79.0442 44.0665 78.9199 43.9216 78.8164C43.9216 78.4643 44.1494 78.133 44.46 77.9673C44.7085 78.0295 44.957 78.1123 45.2055 78.2158C45.3919 78.3608 45.5782 78.5265 45.7232 78.6921C45.7232 78.4643 45.7853 78.3194 45.7232 78.2573C45.5161 78.0295 45.2883 77.8431 45.0398 77.6981C44.4807 77.3668 43.9009 77.0976 43.3417 76.8077V76.3314C42.3063 76.4349 41.3745 75.7516 41.1467 74.7369C41.0638 74.4676 40.8982 74.2606 40.6497 74.1363L40.132 73.805C39.842 73.6393 39.6557 73.308 39.6971 72.9767C39.7178 72.6246 39.7178 72.2933 39.6971 71.9412C40.1734 71.817 40.5875 71.4442 41.126 71.6099C41.1881 71.9412 40.9189 72.314 41.3745 72.5211L41.8507 72.1276C42.0992 72.169 42.3063 72.3761 42.3477 72.6246C42.5341 73.4944 43.1968 74.1777 44.0458 74.3848C44.2736 74.4676 44.4807 74.5712 44.6671 74.6954C44.9984 74.9232 45.3297 75.1924 45.7025 75.3995C46.1995 75.6687 46.6343 76.0415 46.9864 76.497C46.9864 76.8284 46.9864 77.1597 46.8828 77.5325C46.8207 77.8224 46.8828 78.133 47.1106 78.3608C47.2349 78.485 47.3384 78.63 47.4213 78.775C47.6076 79.1477 47.8975 79.4583 48.2703 79.6654C48.3324 79.6654 48.4152 79.7897 48.3945 79.8518C48.3324 80.2452 48.6016 80.3488 48.8915 80.4523C48.8915 80.4523 48.9537 80.5352 48.9744 80.5973L48.6223 81.0529C48.933 81.3014 49.1193 81.6741 49.14 82.0883C49.5749 81.8812 49.8648 82.5231 50.3204 82.1504L50.1754 81.5084C50.5482 81.3842 50.4654 81.1564 50.3411 80.9493H51.2937L51.4801 80.5559C51.4179 80.2038 51.2937 80.0589 51.0038 80.1624C50.7346 80.2659 50.4447 80.2038 50.2376 79.9967C50.2376 79.7275 50.2997 79.4376 50.3411 79.1684C50.1755 78.8164 49.7613 78.5057 50.1133 77.988C50.2583 78.0709 50.4032 78.1537 50.5689 78.1951C50.7139 78.2365 50.8588 78.2365 51.0038 78.1951C51.0866 78.1951 51.128 78.0088 51.1487 77.9052C51.1487 77.8017 51.3144 77.6981 51.4594 77.6567C52.122 77.3668 52.8882 77.4082 53.5095 77.7395C53.8408 77.9466 54.255 77.9466 54.5863 77.7395C55.0212 77.3875 55.601 77.3047 56.1394 77.5118C56.243 77.4082 56.3465 77.3254 56.4707 77.2632C56.2015 77.2011 55.9116 77.0976 55.6631 76.994C55.5182 76.8905 55.3939 76.7663 55.3111 76.6213C55.1661 76.3521 55.0212 76.0415 54.8762 75.7516C55.1799 75.0613 55.4837 74.6333 55.7874 74.4676C55.6838 73.7221 56.1187 73.0181 56.8228 72.7489L56.947 72.0241L58.1895 70.7609C58.583 70.6366 58.9972 70.6366 59.3699 70.7609C59.432 71.2579 59.5149 71.3407 59.929 71.32C60.3432 71.2993 60.571 71.1957 60.8816 71.4857C60.7988 71.8791 60.2604 71.7963 60.074 72.1897L60.7988 72.6246L60.923 73.3494H61.3579C61.6892 73.1423 62.0206 72.9559 62.3933 72.811C62.6418 72.666 62.9524 72.6246 63.2423 72.666C63.4494 72.666 63.5737 72.5832 63.5115 72.2933H63.2009C62.7453 72.4382 62.2483 72.169 62.1241 71.6927C62.1241 71.6513 62.1241 71.6099 62.1034 71.5685C62.062 71.3821 62.1241 71.1957 62.2898 71.1129C62.3726 71.0715 62.4554 71.0301 62.5175 70.9887C63.7186 70.4502 64.9818 70.0982 66.2864 69.9533C66.2864 69.9533 66.3693 70.0154 66.4107 70.0361C66.1001 70.3881 65.7066 70.6573 65.2717 70.823L65.4581 71.2579C65.0854 71.6513 64.9197 72.2933 64.257 72.4382C64.4779 72.742 64.6988 72.9559 64.9197 73.0802C65.251 73.2459 65.7066 73.4737 66.0794 73.7014C66.8041 73.7014 67.5082 73.7014 68.233 73.7843C69.7033 73.8671 71.1322 74.1984 72.4575 74.8197C72.9545 75.1096 73.4929 75.3581 74.052 75.5445C74.3419 75.6273 74.6319 75.648 74.9218 75.6273C74.7561 75.4202 74.6526 75.151 74.6319 74.9025C74.7147 74.2813 74.3834 73.6807 73.8242 73.4115L74.7561 71.9205C75.3774 71.7135 75.9365 71.3821 76.4335 70.968C76.9719 70.6366 77.531 70.3674 78.1315 70.181C78.2972 70.1189 78.4836 70.1189 78.6493 70.181L78.8356 70.2639C78.8978 69.1663 79.1255 68.0688 79.5604 67.0541C79.8503 66.0601 80.4716 65.1904 81.3206 64.5691C82.2318 64.1964 83.2051 64.0307 84.1784 64.1135C84.5718 64.1549 84.986 64.1549 85.3794 64.1135C85.69 64.0514 85.6901 63.7615 85.6901 63.4923C85.6901 62.9539 85.6072 62.3947 85.483 61.8563C85.338 61.3179 85.3587 60.7381 85.5451 60.1997C84.8617 59.9719 84.4061 59.3092 84.4475 58.5844C84.6339 57.7975 84.986 57.052 85.483 56.4308C85.69 56.0995 85.9178 55.7681 86.1249 55.3954C86.332 55.0226 86.5805 54.5256 86.829 54.0908C87.3467 53.1175 87.8644 52.1442 88.2993 51.1502C88.7549 50.1562 89.1069 49.1208 89.3347 48.0647C89.4175 47.547 89.4589 47.0293 89.4796 46.4908C89.4796 45.9524 89.3968 45.414 89.2726 44.8756C89.0448 44.0887 89.2312 43.2396 89.7489 42.6184C89.9974 42.4113 90.2666 42.2042 90.5358 42.0179C90.9085 41.7072 91.2399 41.3759 91.5091 40.9824C92.151 40.0506 92.5652 38.953 92.6273 37.8141C92.151 37.6277 91.6954 37.3999 91.2813 37.1307V37.3792Z" fill="#005DB4"/>
<path d="M12.6518 44.4003C12.3412 44.3175 12.569 43.8205 12.1963 43.8205C12.1341 43.4684 11.7821 43.7169 11.6164 43.572C11.4715 43.427 11.3058 43.3028 11.1401 43.2199C10.8502 43.1578 10.8916 43.4891 10.7467 43.6134C10.6017 43.7376 10.6639 43.6962 10.6017 43.6962C10.2911 43.7376 9.98048 43.8205 9.69056 43.924C9.54561 43.924 9.37994 43.8205 9.21427 43.7583L8.94507 43.9861C8.2617 43.6134 8.2617 43.6134 7.74399 44.2968L7.12274 43.8619C7.12274 43.9654 7.03991 44.0275 7.03991 44.069C7.03991 44.4831 7.03991 44.4831 6.62575 44.6281C6.48079 44.6902 6.35654 44.773 6.23229 44.8559C5.81813 44.6695 5.85954 44.3382 5.94238 44.0068C5.71459 43.8205 5.5075 43.6755 5.30042 43.4891C5.2383 43.4063 5.19688 43.3028 5.15546 43.1992L4.65846 43.9861C4.40997 44.069 3.95439 43.4891 3.78872 44.1725C3.78872 44.2968 4.09934 44.2553 3.97509 44.4831C3.87155 44.6902 3.4781 44.3796 3.39526 44.7938C3.62305 44.7938 3.85084 44.773 4.07863 44.7109C4.47209 44.5867 4.90696 44.6074 5.30042 44.7938C5.30042 44.7938 5.36254 44.8766 5.38325 44.918L5.19688 45.2079C5.19688 45.3736 5.46609 45.2907 5.38325 45.4771L3.83014 45.767V45.8292L4.78271 45.8913C5.03121 46.1398 5.259 46.3055 5.42467 46.4918C5.56963 46.6161 5.59034 46.8439 5.46609 46.9888C5.42467 47.0302 5.38325 47.0717 5.32113 47.0924C5.17617 47.1752 4.9898 47.2373 4.7413 47.3616C4.82413 47.3616 4.92767 47.3616 5.0105 47.3616C5.71458 47.1752 6.46008 47.2995 7.06062 47.7136C7.86824 48.1278 8.82082 48.0864 9.58702 47.5894C9.71127 47.5065 9.83552 47.4444 9.98048 47.403C10.5189 47.2373 11.0366 47.051 11.5543 46.8232C12.1134 46.6782 12.6311 46.3883 13.0453 45.9741C13.2317 45.767 13.418 45.5392 13.5837 45.3529L13.4388 44.6902C13.1903 44.566 12.9418 44.4624 12.6725 44.3796L12.6518 44.4003Z" fill="#005DB4"/>
</g>
</g>
</g>
<defs>
<clipPath id="clip0_14787_1027">
<rect width="100" height="100" fill="white"/>
</clipPath>
</defs>
</svg>
