<svg width="100" height="100" viewBox="0 0 100 100" fill="none" xmlns="http://www.w3.org/2000/svg">
<mask id="mask0_16727_975" style="mask-type:luminance" maskUnits="userSpaceOnUse" x="14" y="14" width="72" height="72">
<path d="M85.0139 14.9854V85.0137H14.9856V14.9854H85.0139Z" fill="white" stroke="white"/>
</mask>
<g mask="url(#mask0_16727_975)">
<mask id="mask1_16727_975" style="mask-type:luminance" maskUnits="userSpaceOnUse" x="14" y="14" width="72" height="72">
<path d="M85.0286 14.9854V85.0137H14.9856V14.9854H85.0286Z" fill="white" stroke="white"/>
</mask>
<g mask="url(#mask1_16727_975)">
<path d="M45.7209 33.8906C43.5046 34.2096 41.3304 34.7815 39.2366 35.5752L38.7493 35.7598L38.9543 36.2393L40.5999 40.0928L40.178 40.2725L38.5168 36.3887L38.3186 35.9248L37.8557 36.1279C34.6158 37.5518 31.6534 39.542 29.0842 41.9805L28.7122 42.333L32.3499 45.9707L32.0286 46.293L28.3918 42.6562L28.0383 43.0264C25.5984 45.5825 23.6083 48.5596 22.1848 51.7988L21.9817 52.2607L22.4465 52.46L26.3303 54.1201L26.1506 54.542L22.2825 52.8828L21.804 52.6777L21.6184 53.165C20.2969 56.6358 19.6145 60.3247 19.6145 64.043V66.4717H19.1575V64.043L19.1428 64.04C19.1932 48.6044 30.5497 35.5841 45.762 33.4209L45.7209 33.8906Z" fill="white" stroke="#005DB4"/>
<path d="M18.6571 64.0428V66.9713H20.1143V64.0428C20.1143 60.3856 20.7857 56.7571 22.0857 53.3428L26.4143 55.1999L26.9857 53.8571L22.6428 51.9999C24.0428 48.8142 26 45.8856 28.4 43.3713L32.0285 46.9999L33.0571 45.9713L29.4285 42.3428C31.9571 39.9428 34.8714 37.9856 38.0571 36.5856L39.9143 40.9285L41.2571 40.3571L39.4143 36.0428C41.6 35.2142 43.8714 34.6285 46.1857 34.3285L46.3142 32.8428C30.5285 34.7713 18.6714 48.1713 18.6428 64.0856L18.6571 64.0428Z" stroke="#005DB4" stroke-width="0.6" stroke-miterlimit="10"/>
<path d="M54.7571 33.3877C69.6052 35.6623 80.6737 48.2711 81.0471 63.2744L81.0569 64.001V66.4287H80.5999V64C80.5999 60.2818 79.9174 56.5928 78.5959 53.1221L78.4104 52.6348L77.9319 52.8398L74.0627 54.499L73.8831 54.0771L77.7678 52.417L78.2327 52.2178L78.0295 51.7559C76.6057 48.5159 74.6155 45.5535 72.177 42.9844L71.8235 42.6123L68.1858 46.25L67.8635 45.9277L71.1389 42.6533L71.5012 42.291L71.1311 41.9385C68.575 39.4986 65.5978 37.5085 62.3586 36.085L61.8958 35.8818L61.6975 36.3457L60.0354 40.2295L59.6145 40.0508L61.2737 36.1973L61.4797 35.7188L60.9924 35.5322C58.9832 34.7668 56.9093 34.2226 54.7961 33.8945L54.7571 33.3877Z" fill="white" stroke="#005DB4"/>
<path d="M54.2144 32.8427L54.3286 34.3284C56.5429 34.6427 58.7144 35.1998 60.8144 35.9998L58.9572 40.3141L60.3001 40.8855L62.1572 36.5427C65.3429 37.9427 68.2715 39.8998 70.7858 42.2998L67.1572 45.9284L68.1858 46.9569L71.8144 43.3284C74.2144 45.8569 76.1715 48.7712 77.5715 51.9569L73.2286 53.8141L73.8001 55.157L78.1286 53.2998C79.4286 56.7141 80.1001 60.3427 80.1001 63.9998V66.9284H81.5572V63.9998C81.5286 48.2141 69.8429 34.8712 54.1858 32.7998L54.2144 32.8427Z" stroke="#005DB4" stroke-width="0.6" stroke-miterlimit="10"/>
<path d="M50.2712 30.1709C50.3676 30.1709 50.4434 30.2203 50.4792 30.2949L50.4871 30.3818L53.1873 64.4814L53.1892 64.5068L53.1941 64.5322C53.217 64.6582 53.2223 64.767 53.2068 64.8604L53.2 64.9014V65.0371C53.0465 66.6749 51.6789 67.9277 50.0281 67.9277H49.8259C48.1381 67.7716 46.8804 66.2905 47.0125 64.5869L50.0408 30.3867L50.0417 30.3789C50.0508 30.2598 50.1422 30.1709 50.2712 30.1709ZM47.488 64.6123L47.9861 64.6562L47.4871 64.6123V64.6201C47.3883 65.9695 48.3085 67.168 49.614 67.4287L49.8796 67.4688L49.8894 67.4697H49.8982C51.3486 67.5571 52.6139 66.4907 52.7546 65.0479L52.7566 65.0234V64.2998H52.7048L50.7273 39.2178L49.7302 39.2129L47.488 64.6123Z" fill="white" stroke="#005DB4"/>
<path d="M52.257 64.7995C52.257 64.7995 52.257 64.928 52.257 64.9995C52.1428 66.1709 51.1142 67.0423 49.9285 66.9709C48.757 66.8566 47.8999 65.828 47.9856 64.6566L50.2285 39.2566L52.2285 64.628C52.2285 64.628 52.2285 64.6995 52.2428 64.7423C52.2428 64.7566 52.2428 64.7852 52.2428 64.7995H52.257ZM50.9999 30.3423C50.9713 29.9566 50.657 29.6709 50.2713 29.6709C49.8856 29.6709 49.5713 29.9566 49.5428 30.3423L46.5142 64.5423C46.357 66.528 47.8285 68.2566 49.7999 68.428C49.8713 68.428 49.957 68.428 50.0285 68.428C51.9428 68.428 53.5285 66.9709 53.6999 65.0709C53.6999 65.028 53.6999 64.9852 53.6999 64.9423C53.7285 64.7709 53.7142 64.5995 53.6856 64.4423L50.9856 30.3423H50.9999Z" stroke="#005DB4" stroke-width="0.6" stroke-miterlimit="10"/>
</g>
</g>
</svg>
