<svg width="100" height="100" viewBox="0 0 100 100" fill="none" xmlns="http://www.w3.org/2000/svg">
<mask id="mask0_14787_981" style="mask-type:luminance" maskUnits="userSpaceOnUse" x="8" y="8" width="84" height="84">
<path d="M91.9571 8.04297H8.04285V91.9573H91.9571V8.04297Z" fill="white"/>
</mask>
<g mask="url(#mask0_14787_981)">
<mask id="mask1_14787_981" style="mask-type:luminance" maskUnits="userSpaceOnUse" x="8" y="8" width="84" height="84">
<path d="M91.9571 8.04297H8.04285V91.9573H91.9571V8.04297Z" fill="white"/>
</mask>
<g mask="url(#mask1_14787_981)">
<path d="M38.0428 20.7715H37.4428C35.6285 20.7715 33.8142 21.4572 32.5142 22.7572L27.6714 27.6858V24.2286C27.6714 22.3286 26.1142 20.7715 24.2142 20.7715C22.3142 20.7715 20.7571 22.3286 20.7571 24.2286V51.9001C20.7571 53.2001 21.4428 54.3143 22.4857 54.8429V60.5429C22.4857 64.3429 25.5999 67.4572 29.3999 67.4572C31.2999 67.4572 32.8571 69.0143 32.8571 70.9143V79.5572H36.3142V70.9143C36.3142 67.1143 33.1999 64 29.3999 64C27.4999 64 25.9428 62.4429 25.9428 60.5429V54.8429C26.9857 54.2429 27.6714 53.1143 27.6714 51.9001V39.8001L32.5999 44.7286C33.8999 46.0286 35.6285 46.7143 37.5285 46.7143H38.0428C39.9428 46.7143 41.4999 45.1572 41.4999 43.2572V24.2286C41.4999 22.3286 39.9428 20.7715 38.0428 20.7715Z" fill="#005DB4"/>
<path d="M76.0572 20.7715C74.1572 20.7715 72.6001 22.3286 72.6001 24.2286V27.6858L67.6715 22.7572C66.3715 21.4572 64.6429 20.7715 62.7429 20.7715H62.2286C60.3286 20.7715 58.7715 22.3286 58.7715 24.2286V43.2572C58.7715 45.1572 60.3286 46.7143 62.2286 46.7143H62.8286C64.6429 46.7143 66.4572 46.0286 67.7572 44.7286L72.6001 39.8001V51.9001C72.6001 53.2001 73.2858 54.3143 74.3286 54.8429V60.5429C74.3286 62.4429 72.7715 64 70.8715 64C67.0715 64 63.9572 67.1143 63.9572 70.9143V79.5572H67.4143V70.9143C67.4143 69.0143 68.9715 67.4572 70.8715 67.4572C74.6715 67.4572 77.7858 64.3429 77.7858 60.5429V54.8429C78.8286 54.2429 79.5143 53.1143 79.5143 51.9001V24.2286C79.5143 22.3286 77.9572 20.7715 76.0572 20.7715Z" fill="#005DB4"/>
</g>
</g>
</svg>
