<svg width="19" height="19" viewBox="0 0 19 19" fill="none" xmlns="http://www.w3.org/2000/svg">
<path d="M17.2875 0.75H1.7125C1.45723 0.75 1.21241 0.851406 1.03191 1.03191C0.851406 1.21241 0.75 1.45723 0.75 1.7125V17.2875C0.75 17.5428 0.851406 17.7876 1.03191 17.9681C1.21241 18.1486 1.45723 18.25 1.7125 18.25H10.095V11.4688H7.82V8.84375H10.095V6.875C10.0479 6.41279 10.1024 5.94586 10.2549 5.50697C10.4073 5.06808 10.6539 4.66785 10.9774 4.33436C11.3009 4.00087 11.6934 3.74219 12.1275 3.57646C12.5615 3.41073 13.0266 3.34197 13.49 3.375C14.171 3.3703 14.8518 3.40536 15.5287 3.48V5.8425H14.1375C13.035 5.8425 12.825 6.3675 12.825 7.12875V8.8175H15.45L15.1087 11.4425H12.825V18.25H17.2875C17.4139 18.25 17.5391 18.2251 17.6558 18.1767C17.7726 18.1284 17.8787 18.0575 17.9681 17.9681C18.0575 17.8787 18.1284 17.7726 18.1767 17.6558C18.2251 17.5391 18.25 17.4139 18.25 17.2875V1.7125C18.25 1.5861 18.2251 1.46094 18.1767 1.34417C18.1284 1.22739 18.0575 1.12129 17.9681 1.03191C17.8787 0.942533 17.7726 0.871636 17.6558 0.823266C17.5391 0.774896 17.4139 0.75 17.2875 0.75Z" fill="#E0F0FF"/>
</svg>
