<svg width="107" height="26" viewBox="0 0 107 26" fill="none" xmlns="http://www.w3.org/2000/svg">
<path d="M14.0528 13.7168H11.1123V16.9106H14.0528V13.7168Z" fill="#C0D8D3"/>
<path d="M15.0596 10.5234V13.7172V16.911H18.0018V13.7172V10.5234H15.0596Z" fill="#C0D8D3"/>
<path d="M19.0078 7.33203V10.5241V13.7179V16.9116H21.9484V13.7179V10.5241V7.33203H19.0078Z" fill="#C0D8D3"/>
<path d="M29.352 6.56498C25.7466 2.53745 21.719 0.277345 17.7225 0.0310076C17.5416 0.0155038 17.3504 0 17.154 0C17.1248 0 17.0937 4.46967e-07 17.061 0.00516836H17.0438C16.9663 4.46967e-07 16.8888 4.46967e-07 16.813 0.00516836C16.8009 0.00516836 16.7871 0.00516836 16.7751 0.00516836C16.7613 0.00516836 16.7492 0.00516836 16.7354 0.00516836C16.6941 0.00344572 16.651 0 16.608 0C12.4082 0 8.22388 2.18947 4.50815 6.33242C1.73986 9.42111 0.21533 12.465 0.151592 12.5925L0 12.8991L0.163651 13.2006C0.40482 13.645 6.15326 24.1032 15.0748 25.595C15.6226 25.7156 16.1239 25.7741 16.6097 25.7741C16.67 25.7741 16.7303 25.7707 16.7923 25.7655C16.8095 25.7655 16.825 25.7621 16.8405 25.7621C16.8715 25.7621 16.9008 25.7655 16.9318 25.7672C17.0059 25.7707 17.08 25.7741 17.1558 25.7741C21.3556 25.7741 25.5398 23.5846 29.2539 19.4417C32.0239 16.353 33.5467 13.3091 33.6104 13.1816L33.7586 12.8819L33.6052 12.5856C33.5432 12.4633 32.0428 9.57098 29.352 6.56498ZM17.154 24.4529C17.1024 24.4529 17.0507 24.4494 16.999 24.4477C16.9508 24.446 16.9008 24.4425 16.8526 24.4408H16.8302H16.8078C16.7699 24.4408 16.732 24.4442 16.6924 24.4477C16.6631 24.4494 16.6355 24.4529 16.608 24.4529C16.2221 24.4529 15.7966 24.4029 15.3418 24.3013L15.3074 24.2944C7.82767 23.0541 2.50644 14.589 1.4987 12.8733C2.50988 11.0111 8.17564 1.32126 16.608 1.32126C16.6269 1.32126 16.6441 1.32126 16.6631 1.32299C16.6958 1.32471 16.7303 1.32643 16.763 1.32643H16.7733H16.7837C16.8181 1.32643 16.8509 1.32471 16.8836 1.32299C16.9008 1.32299 16.9198 1.32126 16.937 1.32126H16.968C16.9956 1.32471 17.0248 1.32643 17.0524 1.32643H17.0645H17.0765C17.1024 1.32643 17.1282 1.32471 17.1523 1.32126C17.2953 1.32126 17.4486 1.33332 17.6226 1.34883C25.6949 1.84839 31.2624 11.1041 32.2667 12.8922C31.2676 14.7355 25.5984 24.4529 17.1523 24.4529H17.154Z" fill="#C0D8D3"/>
<path d="M40.0859 4.20508H45.0954V5.52117H41.533V6.92168H44.6733V8.23777H41.533V10.7856H40.0859V4.20508Z" fill="#C0D8D3"/>
<path d="M48.5918 7.9656V4.20508H50.0388V7.9277C50.0388 8.99918 50.5746 9.55387 51.4583 9.55387C52.342 9.55387 52.8777 9.01813 52.8777 7.97421V4.20508H54.3247V7.91736C54.3247 9.91046 53.2067 10.8872 51.4393 10.8872C49.6719 10.8872 48.5918 9.90012 48.5918 7.96388V7.9656Z" fill="#C0D8D3"/>
<path d="M58.2459 4.20508H59.6929V9.46946H62.9728V10.7856H58.2441V4.20508H58.2459Z" fill="#C0D8D3"/>
<path d="M66.5076 4.20508H67.9546V9.46946H71.2345V10.7856H66.5059V4.20508H66.5076Z" fill="#C0D8D3"/>
<path d="M73.124 4.20508H74.7226L76.4418 8.83898L78.1627 4.20508H79.7235L77.0637 10.8321H75.7855L73.1257 4.20508H73.124Z" fill="#C0D8D3"/>
<path d="M83.248 4.20508H84.6951V10.7856H83.248V4.20508Z" fill="#C0D8D3"/>
<path d="M88.7852 4.20508H93.7481V5.49361H90.2236V6.82866H93.326V8.11547H90.2236V9.49702H93.7946V10.7856H88.7852V4.20508Z" fill="#C0D8D3"/>
<path d="M97.0195 4.2045H98.5699L99.9325 8.65924L101.409 4.18555H102.649L104.125 8.65924L105.488 4.2045H107.001L104.754 10.8315H103.495L102.01 6.52661L100.525 10.8315H99.2658L97.0195 4.2045Z" fill="#C0D8D3"/>
<path d="M40.0859 17.0156H41.6466C41.9981 17.0156 42.3202 17.0725 42.613 17.1862C42.9059 17.2999 43.1591 17.4566 43.371 17.6582C43.5829 17.8597 43.7465 18.0957 43.862 18.3679C43.9774 18.6401 44.0359 18.9346 44.0359 19.2499V19.2637C44.0359 19.5806 43.9774 19.8752 43.862 20.1491C43.7465 20.423 43.5829 20.6607 43.371 20.8623C43.1591 21.0638 42.9059 21.2223 42.613 21.3377C42.3202 21.4531 41.9981 21.5117 41.6466 21.5117H40.0859V17.0173V17.0156ZM41.6466 21.0414C41.9292 21.0414 42.1858 20.9966 42.4167 20.9071C42.6475 20.8175 42.8439 20.6935 43.0041 20.535C43.1643 20.3765 43.2883 20.1887 43.3762 19.9734C43.464 19.7581 43.5071 19.5255 43.5071 19.2775V19.2654C43.5071 19.0173 43.4623 18.7848 43.3762 18.5694C43.2883 18.3541 43.1643 18.1646 43.0041 18.0044C42.8439 17.8442 42.6475 17.7185 42.4167 17.6254C42.1858 17.5341 41.9292 17.4876 41.6466 17.4876H40.5941V21.0449H41.6466V21.0414Z" fill="#C0D8D3"/>
<path d="M47.3533 17.0156H50.6022V17.4721H47.8597V19.0191H50.3128V19.4756H47.8597V21.0552H50.6332V21.5117H47.3516V17.0173L47.3533 17.0156Z" fill="#C0D8D3"/>
<path d="M55.4506 21.575C55.0906 21.575 54.7633 21.5164 54.4652 21.3975C54.1672 21.2804 53.8847 21.0995 53.6143 20.8549L53.9295 20.4828C54.1655 20.6964 54.4032 20.8566 54.6427 20.9617C54.8821 21.0668 55.1577 21.1185 55.4713 21.1185C55.7848 21.1185 56.0173 21.0461 56.1999 20.9031C56.3825 20.7602 56.4721 20.5776 56.4721 20.3536V20.3416C56.4721 20.2382 56.4549 20.1452 56.4204 20.0625C56.386 19.9798 56.3257 19.904 56.2413 19.8351C56.1552 19.7662 56.0363 19.7042 55.8847 19.6491C55.7331 19.5939 55.5384 19.5405 55.3024 19.4888C55.0458 19.4337 54.8201 19.3683 54.6306 19.2959C54.4394 19.2236 54.2809 19.1357 54.1569 19.0324C54.0329 18.929 53.9398 18.8101 53.8795 18.6723C53.8192 18.5362 53.79 18.3743 53.79 18.1917V18.1779C53.79 18.0022 53.8261 17.8403 53.8985 17.6904C53.9708 17.5405 54.0742 17.4113 54.2068 17.3028C54.3395 17.1943 54.4962 17.1082 54.6754 17.0461C54.8546 16.9841 55.0527 16.9531 55.2663 16.9531C55.5953 16.9531 55.883 16.9996 56.1293 17.0909C56.3756 17.184 56.6134 17.3218 56.8459 17.5044L56.5514 17.8954C56.3412 17.7249 56.131 17.6008 55.9191 17.5233C55.7073 17.4458 55.485 17.4079 55.2542 17.4079C54.9596 17.4079 54.7254 17.4768 54.5548 17.6163C54.3843 17.7559 54.2981 17.9281 54.2981 18.1331V18.1469C54.2981 18.2537 54.3154 18.3485 54.3498 18.4329C54.3843 18.5156 54.4463 18.5931 54.5359 18.6637C54.6254 18.7343 54.7495 18.7981 54.908 18.8566C55.0664 18.9152 55.2697 18.9686 55.5178 19.0203C56.0191 19.1323 56.3877 19.2856 56.6254 19.482C56.8632 19.6783 56.982 19.9488 56.982 20.2916V20.3054C56.982 20.4983 56.9441 20.6723 56.8683 20.8291C56.7925 20.9858 56.6874 21.1185 56.5531 21.2304C56.4187 21.3424 56.2585 21.4268 56.0707 21.4871C55.883 21.5474 55.6763 21.5767 55.454 21.5767L55.4506 21.575Z" fill="#C0D8D3"/>
<path d="M60.3045 17.0156H60.811V21.51H60.3045V17.0156Z" fill="#C0D8D3"/>
<path d="M66.4629 21.5871C66.1081 21.5871 65.7894 21.5268 65.5086 21.408C65.2278 21.2874 64.9884 21.1237 64.7903 20.9136C64.5904 20.7034 64.4388 20.4588 64.3338 20.178C64.2287 19.8972 64.177 19.5975 64.177 19.2754V19.2633C64.177 18.9549 64.2321 18.6604 64.3407 18.3813C64.4492 18.1005 64.6025 17.8542 64.7989 17.6388C64.9953 17.4252 65.233 17.2547 65.5086 17.1289C65.7842 17.0032 66.0926 16.9395 66.4302 16.9395C66.618 16.9395 66.7902 16.9532 66.947 16.9774C67.1038 17.0032 67.2485 17.0411 67.3846 17.0928C67.5189 17.1444 67.6447 17.2082 67.7635 17.2823C67.8807 17.3581 67.9961 17.4425 68.1063 17.5355L67.779 17.9214C67.6929 17.8438 67.6033 17.7749 67.5086 17.7129C67.4138 17.6509 67.3122 17.5975 67.2037 17.5527C67.0952 17.5079 66.9746 17.4717 66.8436 17.4459C66.7127 17.4201 66.568 17.408 66.4095 17.408C66.1615 17.408 65.9324 17.458 65.7222 17.5562C65.512 17.6543 65.3329 17.787 65.183 17.9541C65.0332 18.1212 64.916 18.3176 64.8299 18.5415C64.7438 18.7655 64.7007 19.0032 64.7007 19.2512V19.265C64.7007 19.5355 64.742 19.7835 64.8264 20.0092C64.9091 20.2366 65.028 20.433 65.183 20.6001C65.3363 20.7672 65.5224 20.8981 65.7412 20.9911C65.9599 21.0858 66.2063 21.1324 66.4802 21.1324C66.7368 21.1324 66.978 21.0893 67.2054 21.0014C67.4328 20.9136 67.6223 20.8085 67.7773 20.6827V19.5648H66.4095V19.1083H68.2648V20.8998C68.0547 21.0876 67.7963 21.2495 67.4914 21.3839C67.1847 21.5182 66.8419 21.5854 66.4612 21.5854L66.4629 21.5871Z" fill="#C0D8D3"/>
<path d="M71.6562 17.0156H72.1317L74.9637 20.6177V17.0156H75.4581V21.51H75.0533L72.1506 17.8253V21.51H71.6562V17.0156Z" fill="#C0D8D3"/>
</svg>
