<svg width="100" height="100" viewBox="0 0 100 100" fill="none" xmlns="http://www.w3.org/2000/svg">
<path d="M78.8221 52.443C79.9793 54.6309 80.6922 57.0245 80.9202 59.487C81.1481 61.9495 80.8866 64.4326 80.1506 66.7944C79.4146 69.1561 78.2185 71.3503 76.6307 73.2515C75.0429 75.1526 73.0945 76.7235 70.8969 77.8743L64.8273 81.0594L63.3348 81.8412C61.9637 82.5599 60.445 82.9551 58.8961 82.9964C57.3473 83.0377 55.8096 82.7239 54.4018 82.0793L30.6983 71.993L32.9304 65.3975L47.0271 68.1097L39.7267 54.2929L27.9737 32.05L33.6992 29.0499L45.4524 51.2993L48.2804 49.8177L43.0991 40.0048L48.8215 37.0063L54.0027 46.8192L56.8309 45.3376L52.8301 37.764L58.5558 34.7638L62.5565 42.3374L65.3862 40.843L62.6404 35.6308L68.3643 32.6389L71.1101 37.8509L78.8205 52.4478L78.8221 52.443ZM24.0765 35.0518C22.887 33.8661 22.077 32.356 21.7485 30.7121C21.42 29.0683 21.5878 27.3643 22.2308 25.8154C22.8738 24.2665 23.963 22.942 25.3611 22.0091C26.7592 21.0762 28.4034 20.5768 30.0863 20.5739C31.45 20.5754 32.7934 20.9027 34.0039 21.5283C35.2143 22.1539 36.2564 23.0596 37.0427 24.1693C37.8291 25.279 38.3367 26.5604 38.523 27.9059C38.7093 29.2514 38.5688 30.6218 38.1134 31.9021L39.6155 34.73C40.6203 33.0523 41.1611 31.1395 41.183 29.1861C41.2049 27.2328 40.707 25.3084 39.7401 23.6088C38.7731 21.9092 37.3716 20.4949 35.6779 19.5097C33.9842 18.5246 32.0588 18.0037 30.0975 18C27.2234 18.0004 24.4615 19.1112 22.393 21.0988C20.3245 23.0863 19.1108 25.7955 19.0072 28.6563C18.9036 31.5171 19.9183 34.3063 21.8377 36.4371C23.757 38.5678 26.4314 39.8739 29.298 40.0805L27.7878 37.2202C26.3839 36.8277 25.1055 36.0808 24.0765 35.0518Z" fill="#005DB4"/>
</svg>
