<svg width="100" height="100" viewBox="0 0 100 100" fill="none" xmlns="http://www.w3.org/2000/svg">
<mask id="mask0_16727_997" style="mask-type:luminance" maskUnits="userSpaceOnUse" x="14" y="14" width="72" height="72">
<path d="M85.0291 14.9717V85.0293H14.9714V14.9717H85.0291Z" fill="white" stroke="white"/>
</mask>
<g mask="url(#mask0_16727_997)">
<mask id="mask1_16727_997" style="mask-type:luminance" maskUnits="userSpaceOnUse" x="14" y="14" width="72" height="72">
<path d="M85.0291 14.9717V85.0293H14.9714V14.9717H85.0291Z" fill="white" stroke="white"/>
</mask>
<g mask="url(#mask1_16727_997)">
<mask id="path-3-inside-1_16727_997" fill="white">
<path d="M66.3572 75.6858C65.7715 76.343 64.9715 76.7144 64.1572 76.7144H57.3572L53.7715 73.1287L53.4 72.8287V71.5858H57.4286C57.8715 71.5858 58.1572 71.2858 58.1572 70.8573C58.1572 70.4287 57.8715 70.1287 57.4286 70.1287H53.4V68.0001H57.4286C57.8715 68.0001 58.1572 67.7001 58.1572 67.2715C58.1572 66.843 57.8715 66.543 57.4286 66.543H53.4V62.8858H58.8857C61.1572 62.8858 63.4286 62.3001 65.4 61.2001L67.0143 73.5001C67.1572 74.2287 66.8715 75.1144 66.3572 75.7001V75.6858ZM46.2429 61.343C40.2429 61.343 34.8286 57.8287 32.4143 52.343L31.5429 50.5144C30.6714 48.4573 30.3 44.5858 30.3 43.1144C30.1572 40.1858 32.4286 37.7001 35.3429 37.543H46.0286C49.0286 37.543 51.5143 40.0287 51.5143 43.0287C51.5143 46.0287 49.0286 48.5144 46.0286 48.5144H37.9857C37.5429 48.5144 37.2572 48.8144 37.2572 49.243C37.2572 49.6715 37.5429 49.9715 37.9857 49.9715H46.1143C47.8 49.9715 49.3286 49.3858 50.6572 48.2858H59.4429C63.6143 48.2858 67.4143 46.0144 69.4 42.3573L69.9143 51.0001C69.9143 54.0715 68.5286 57.0001 66.1857 58.9144C64.0572 60.4573 61.5714 61.3287 58.9429 61.3287H46.2857L46.2429 61.343ZM51.9429 66.4715H47.9143C47.4715 66.4715 47.1857 66.7715 47.1857 67.2001C47.1857 67.6287 47.4715 67.9287 47.9143 67.9287H51.9429V70.0573H47.9143C47.4715 70.0573 47.1857 70.3573 47.1857 70.7858C47.1857 71.2144 47.4715 71.5144 47.9143 71.5144H51.9429V72.8287L51.6572 73.1287L48.0715 76.7144H41.2714C39.6572 76.7144 38.3429 75.4001 38.3429 73.7858V73.4144L39.8 61.4858C41.8429 62.3715 44.0429 62.8001 46.2429 62.8001H51.9572V66.4573L51.9429 66.4715ZM66.8 60.3144C66.8714 60.243 66.9429 60.1715 67.0143 60.1001C67.1572 59.9573 67.2286 59.8858 67.3857 59.7287H67.4572C69.9429 57.5287 71.3286 54.3144 71.3286 51.0144L70.6715 41.2001C70.6 40.4001 70.6715 39.5858 70.7429 38.7858L71.1857 35.2715C71.4 33.9573 71.3286 32.5573 70.9715 31.243C69.6572 26.4144 65.3429 23.043 60.3572 23.043H43.5286C37.4572 23.043 32.5572 27.943 32.5572 34.0287V35.2715L34.0143 34.7573V34.0287C34.0143 28.7573 38.2572 24.5144 43.5286 24.5144H60.3572C64.6715 24.5144 68.4 27.3715 69.5715 31.543C69.8572 32.7144 69.9429 33.8858 69.7857 35.0573L69.5715 36.6001C68.9857 42.7573 64.8857 46.9287 59.4 46.9287H51.8572C52.5857 45.8287 53.0286 44.443 53.0286 43.1144C53.0286 39.2287 49.8857 36.1573 46.0714 36.1573H35.6857C34.6572 36.1573 33.5572 36.3715 32.6143 36.8858C30.4857 37.9858 29.0286 40.1144 28.8857 42.5287C28.8857 42.743 28.8143 42.9715 28.8143 43.1858C28.7429 44.943 29.1857 49.043 30.2 51.3144L31.0714 53.2858C32.5286 56.6573 35.1 59.3573 38.3143 61.1144L36.7714 73.4144C36.4857 75.8287 38.1572 78.0287 40.5714 78.3144C40.7857 78.3144 40.9429 78.3858 41.1572 78.3858H48.6286L52.6572 74.3573L56.6857 78.3858H64.1572C66.5714 78.3858 68.5429 76.4144 68.5429 73.9858C68.5429 73.7715 68.5429 73.6144 68.4715 73.4001L66.7857 60.3001L66.8 60.3144Z"/>
</mask>
<path d="M66.3572 75.6858C65.7715 76.343 64.9715 76.7144 64.1572 76.7144H57.3572L53.7715 73.1287L53.4 72.8287V71.5858H57.4286C57.8715 71.5858 58.1572 71.2858 58.1572 70.8573C58.1572 70.4287 57.8715 70.1287 57.4286 70.1287H53.4V68.0001H57.4286C57.8715 68.0001 58.1572 67.7001 58.1572 67.2715C58.1572 66.843 57.8715 66.543 57.4286 66.543H53.4V62.8858H58.8857C61.1572 62.8858 63.4286 62.3001 65.4 61.2001L67.0143 73.5001C67.1572 74.2287 66.8715 75.1144 66.3572 75.7001V75.6858ZM46.2429 61.343C40.2429 61.343 34.8286 57.8287 32.4143 52.343L31.5429 50.5144C30.6714 48.4573 30.3 44.5858 30.3 43.1144C30.1572 40.1858 32.4286 37.7001 35.3429 37.543H46.0286C49.0286 37.543 51.5143 40.0287 51.5143 43.0287C51.5143 46.0287 49.0286 48.5144 46.0286 48.5144H37.9857C37.5429 48.5144 37.2572 48.8144 37.2572 49.243C37.2572 49.6715 37.5429 49.9715 37.9857 49.9715H46.1143C47.8 49.9715 49.3286 49.3858 50.6572 48.2858H59.4429C63.6143 48.2858 67.4143 46.0144 69.4 42.3573L69.9143 51.0001C69.9143 54.0715 68.5286 57.0001 66.1857 58.9144C64.0572 60.4573 61.5714 61.3287 58.9429 61.3287H46.2857L46.2429 61.343ZM51.9429 66.4715H47.9143C47.4715 66.4715 47.1857 66.7715 47.1857 67.2001C47.1857 67.6287 47.4715 67.9287 47.9143 67.9287H51.9429V70.0573H47.9143C47.4715 70.0573 47.1857 70.3573 47.1857 70.7858C47.1857 71.2144 47.4715 71.5144 47.9143 71.5144H51.9429V72.8287L51.6572 73.1287L48.0715 76.7144H41.2714C39.6572 76.7144 38.3429 75.4001 38.3429 73.7858V73.4144L39.8 61.4858C41.8429 62.3715 44.0429 62.8001 46.2429 62.8001H51.9572V66.4573L51.9429 66.4715ZM66.8 60.3144C66.8714 60.243 66.9429 60.1715 67.0143 60.1001C67.1572 59.9573 67.2286 59.8858 67.3857 59.7287H67.4572C69.9429 57.5287 71.3286 54.3144 71.3286 51.0144L70.6715 41.2001C70.6 40.4001 70.6715 39.5858 70.7429 38.7858L71.1857 35.2715C71.4 33.9573 71.3286 32.5573 70.9715 31.243C69.6572 26.4144 65.3429 23.043 60.3572 23.043H43.5286C37.4572 23.043 32.5572 27.943 32.5572 34.0287V35.2715L34.0143 34.7573V34.0287C34.0143 28.7573 38.2572 24.5144 43.5286 24.5144H60.3572C64.6715 24.5144 68.4 27.3715 69.5715 31.543C69.8572 32.7144 69.9429 33.8858 69.7857 35.0573L69.5715 36.6001C68.9857 42.7573 64.8857 46.9287 59.4 46.9287H51.8572C52.5857 45.8287 53.0286 44.443 53.0286 43.1144C53.0286 39.2287 49.8857 36.1573 46.0714 36.1573H35.6857C34.6572 36.1573 33.5572 36.3715 32.6143 36.8858C30.4857 37.9858 29.0286 40.1144 28.8857 42.5287C28.8857 42.743 28.8143 42.9715 28.8143 43.1858C28.7429 44.943 29.1857 49.043 30.2 51.3144L31.0714 53.2858C32.5286 56.6573 35.1 59.3573 38.3143 61.1144L36.7714 73.4144C36.4857 75.8287 38.1572 78.0287 40.5714 78.3144C40.7857 78.3144 40.9429 78.3858 41.1572 78.3858H48.6286L52.6572 74.3573L56.6857 78.3858H64.1572C66.5714 78.3858 68.5429 76.4144 68.5429 73.9858C68.5429 73.7715 68.5429 73.6144 68.4715 73.4001L66.7857 60.3001L66.8 60.3144Z" fill="white" stroke="#005DB4" stroke-width="2" mask="url(#path-3-inside-1_16727_997)"/>
<path d="M66.3572 75.6858C65.7715 76.343 64.9715 76.7144 64.1572 76.7144H57.3572L53.7714 73.1287L53.4 72.8287V71.5858H57.4286C57.8715 71.5858 58.1572 71.2858 58.1572 70.8573C58.1572 70.4287 57.8715 70.1287 57.4286 70.1287H53.4V68.0001H57.4286C57.8715 68.0001 58.1572 67.7001 58.1572 67.2715C58.1572 66.843 57.8715 66.543 57.4286 66.543H53.4V62.8858H58.8857C61.1572 62.8858 63.4286 62.3001 65.4 61.2001L67.0143 73.5001C67.1572 74.2287 66.8715 75.1144 66.3572 75.7001V75.6858ZM46.2429 61.343C40.2429 61.343 34.8286 57.8287 32.4143 52.343L31.5429 50.5144C30.6714 48.4573 30.3 44.5858 30.3 43.1144C30.1572 40.1858 32.4286 37.7001 35.3429 37.543H46.0286C49.0286 37.543 51.5143 40.0287 51.5143 43.0287C51.5143 46.0287 49.0286 48.5144 46.0286 48.5144H37.9857C37.5429 48.5144 37.2572 48.8144 37.2572 49.243C37.2572 49.6715 37.5429 49.9715 37.9857 49.9715H46.1143C47.8 49.9715 49.3286 49.3858 50.6572 48.2858H59.4429C63.6143 48.2858 67.4143 46.0144 69.4 42.3573L69.9143 51.0001C69.9143 54.0715 68.5286 57.0001 66.1857 58.9144C64.0572 60.4573 61.5714 61.3287 58.9429 61.3287H46.2857L46.2429 61.343ZM51.9429 66.4715H47.9143C47.4715 66.4715 47.1857 66.7715 47.1857 67.2001C47.1857 67.6287 47.4715 67.9287 47.9143 67.9287H51.9429V70.0573H47.9143C47.4715 70.0573 47.1857 70.3573 47.1857 70.7858C47.1857 71.2144 47.4715 71.5144 47.9143 71.5144H51.9429V72.8287L51.6572 73.1287L48.0715 76.7144H41.2714C39.6572 76.7144 38.3429 75.4001 38.3429 73.7858V73.4144L39.8 61.4858C41.8429 62.3715 44.0429 62.8001 46.2429 62.8001H51.9572V66.4573L51.9429 66.4715ZM66.8 60.3144C66.8714 60.243 66.9429 60.1715 67.0143 60.1001C67.1572 59.9573 67.2286 59.8858 67.3857 59.7287H67.4572C69.9429 57.5287 71.3286 54.3144 71.3286 51.0144L70.6715 41.2001C70.6 40.4001 70.6715 39.5858 70.7429 38.7858L71.1857 35.2715C71.4 33.9573 71.3286 32.5573 70.9715 31.243C69.6572 26.4144 65.3429 23.043 60.3572 23.043H43.5286C37.4572 23.043 32.5572 27.943 32.5572 34.0287V35.2715L34.0143 34.7573V34.0287C34.0143 28.7573 38.2572 24.5144 43.5286 24.5144H60.3572C64.6715 24.5144 68.4 27.3715 69.5715 31.543C69.8572 32.7144 69.9429 33.8858 69.7857 35.0573L69.5715 36.6001C68.9857 42.7573 64.8857 46.9287 59.4 46.9287H51.8572C52.5857 45.8287 53.0286 44.443 53.0286 43.1144C53.0286 39.2287 49.8857 36.1573 46.0714 36.1573H35.6857C34.6572 36.1573 33.5572 36.3715 32.6143 36.8858C30.4857 37.9858 29.0286 40.1144 28.8857 42.5287C28.8857 42.743 28.8143 42.9715 28.8143 43.1858C28.7429 44.943 29.1857 49.043 30.2 51.3144L31.0714 53.2858C32.5286 56.6573 35.1 59.3573 38.3143 61.1144L36.7714 73.4144C36.4857 75.8287 38.1572 78.0287 40.5714 78.3144C40.7857 78.3144 40.9429 78.3858 41.1572 78.3858H48.6286L52.6572 74.3573L56.6857 78.3858H64.1572C66.5715 78.3858 68.5429 76.4144 68.5429 73.9858C68.5429 73.7715 68.5429 73.6144 68.4715 73.4001L66.7857 60.3001L66.8 60.3144Z" stroke="#005DB4" stroke-width="0.6" stroke-miterlimit="10"/>
</g>
</g>
</svg>
