<svg width="100" height="100" viewBox="0 0 100 100" fill="none" xmlns="http://www.w3.org/2000/svg">
<g clip-path="url(#clip0_16727_1030)">
<path d="M83.9321 69.7655C83.7692 69.2218 83.3882 68.7588 82.8695 68.4741C82.3507 68.1895 81.7348 68.1054 81.1515 68.2396L75.3816 69.7001C78.5389 65.3218 80.4534 60.2565 80.9429 54.9858C81.4162 50.0547 80.6498 45.0879 78.7055 40.4869C76.7613 35.8859 73.6937 31.7797 69.7508 28.5001C69.295 28.1455 68.7123 27.9682 68.122 28.0047C67.5318 28.0412 66.9788 28.2886 66.5762 28.6963C66.1711 29.1301 65.9656 29.6974 66.0047 30.2737C66.0438 30.8499 66.3243 31.3881 66.7847 31.7699C70.1823 34.5912 72.8256 38.1259 74.5004 42.0874C76.1751 46.0489 76.8343 50.3258 76.4244 54.5716C76.0265 59.0435 74.4322 63.348 71.7899 67.0842L71.2106 61.6127C71.2543 61.2907 71.221 60.9636 71.1131 60.6552C71.0053 60.3469 70.8255 60.0651 70.5871 59.8304C70.3487 59.5958 70.0575 59.4142 69.7349 59.2989C69.4124 59.1836 69.0665 59.1376 68.7226 59.1641C68.3787 59.1907 68.0454 59.2891 67.7471 59.4523C67.4488 59.6155 67.193 59.8393 66.9984 60.1074C66.8038 60.3755 66.6754 60.6811 66.6223 61.0019C66.5693 61.3226 66.5932 61.6505 66.6921 61.9615L67.8507 76L82.3333 72.3814C82.907 72.2235 83.3936 71.8632 83.6916 71.3758C83.9895 70.8883 84.0757 70.3114 83.9321 69.7655Z" fill="#005DB4"/>
<path d="M18.9493 49.632C19.2442 49.8161 19.5758 49.9353 19.9214 49.9814C20.498 50.0562 21.0812 49.9032 21.5445 49.5557C22.0077 49.2082 22.3137 48.6942 22.3959 48.1251C23.3089 41.4623 26.7345 35.3863 31.9867 31.1139C37.239 26.8414 43.9303 24.688 50.7205 25.0847L45.7714 28.4261C45.4213 28.6869 45.1575 29.0447 45.0137 29.4541C44.8699 29.8635 44.8526 30.3059 44.9639 30.7251C45.0752 31.1442 45.3102 31.5212 45.6389 31.8079C45.9677 32.0947 46.3753 32.2782 46.8099 32.3353C47.3076 32.3803 47.8061 32.2571 48.2239 31.9859L60 23.9927L49.9251 13.9904C49.7458 13.7188 49.5076 13.4901 49.2278 13.3209C48.948 13.1517 48.6335 13.0462 48.3073 13.0121C47.9811 12.978 47.6513 13.0161 47.3418 13.1237C47.0324 13.2313 46.751 13.4056 46.5182 13.6341C46.2854 13.8625 46.107 14.1394 45.996 14.4445C45.8849 14.7496 45.844 15.0753 45.8761 15.398C45.9083 15.7207 46.0127 16.0323 46.1819 16.3101C46.351 16.5879 46.5806 16.825 46.854 17.0042L50.61 20.7168C42.7685 20.3462 35.0713 22.895 29.038 27.86C23.0048 32.8251 19.0738 39.8455 18.0213 47.5354C17.9647 47.9356 18.0214 48.3434 18.1852 48.7135C18.3491 49.0836 18.6135 49.4016 18.9493 49.632Z" fill="#005DB4"/>
<path d="M57.3125 78.4503C53.8934 79.5368 50.2867 79.9148 46.7151 79.5611C42.3652 79.137 38.1845 77.6661 34.5338 75.2754C30.8832 72.8847 27.8723 69.6461 25.7611 65.8392L31.2131 67.8648C31.7156 67.9515 32.2328 67.861 32.6755 67.6088C33.1181 67.3566 33.4583 66.9586 33.6374 66.4835C33.8165 66.0085 33.8232 65.4861 33.6564 65.0066C33.4896 64.5271 33.1598 64.1205 32.7238 63.8571L22.6738 60.1544L19.4552 59L17.0248 72.8309C16.9405 73.3835 17.0731 73.9473 17.3951 74.4054C17.717 74.8636 18.2038 75.181 18.7545 75.2921H19.1267C19.6421 75.3014 20.1442 75.1296 20.5447 74.8069C20.9452 74.4842 21.2184 74.0312 21.3163 73.5278L22.2359 68.3004C24.7123 72.6158 28.1908 76.2792 32.3807 78.9846C36.5706 81.69 41.3504 83.3589 46.321 83.852C50.4766 84.2623 54.6727 83.8174 58.6481 82.5451C59.1543 82.3366 59.5636 81.9469 59.795 81.4529C60.0265 80.9589 60.0634 80.3966 59.8984 79.8768C59.7334 79.3571 59.3785 78.9178 58.9039 78.6457C58.4292 78.3735 57.8692 78.2883 57.3344 78.4067L57.3125 78.4503Z" fill="#005DB4"/>
<path d="M56.896 41.88V63H52.48V41.88H56.896ZM43.168 41.88V63H38.752V41.88H43.168ZM54.784 50.552V54.104H40.96V50.552H54.784Z" fill="#005DB4"/>
<path d="M58.65 66V65.07C59.25 64.6633 59.7567 64.2967 60.17 63.97C60.59 63.6367 60.9267 63.33 61.18 63.05C61.44 62.7633 61.6267 62.4933 61.74 62.24C61.86 61.9867 61.92 61.7333 61.92 61.48C61.92 61.1733 61.8267 60.9233 61.64 60.73C61.4533 60.53 61.19 60.43 60.85 60.43C60.4767 60.43 60.1833 60.5567 59.97 60.81C59.7633 61.0633 59.65 61.4233 59.63 61.89L58.44 61.44C58.4733 60.9867 58.5933 60.6033 58.8 60.29C59.0133 59.97 59.3 59.7267 59.66 59.56C60.0267 59.3867 60.4467 59.3 60.92 59.3C61.3267 59.3 61.6767 59.3567 61.97 59.47C62.27 59.5833 62.5167 59.74 62.71 59.94C62.91 60.1333 63.06 60.3567 63.16 60.61C63.26 60.8633 63.31 61.1267 63.31 61.4C63.31 61.8267 63.2033 62.23 62.99 62.61C62.7833 62.99 62.4633 63.3667 62.03 63.74C61.5967 64.1133 61.0467 64.5067 60.38 64.92V64.93C60.48 64.9233 60.6 64.9167 60.74 64.91C60.8867 64.9033 61.0367 64.9 61.19 64.9C61.3433 64.8933 61.4767 64.89 61.59 64.89H63.41V66H58.65Z" fill="#005DB4"/>
</g>
<defs>
<clipPath id="clip0_16727_1030">
<rect width="100" height="100" fill="white"/>
</clipPath>
</defs>
</svg>
