<svg width="19" height="19" viewBox="0 0 19 19" fill="none" xmlns="http://www.w3.org/2000/svg">
<path d="M10.3991 0.75C11.3835 0.752625 11.8831 0.757875 12.3145 0.770125L12.4843 0.77625C12.6803 0.78325 12.8736 0.792 13.1073 0.8025C14.0383 0.84625 14.6735 0.99325 15.2309 1.20938C15.8084 1.43163 16.2949 1.73262 16.7814 2.21825C17.2265 2.65552 17.5708 3.18466 17.7903 3.76875C18.0064 4.32612 18.1534 4.96137 18.1971 5.89325C18.2076 6.126 18.2164 6.31938 18.2234 6.51625L18.2286 6.686C18.2418 7.1165 18.247 7.61613 18.2488 8.6005L18.2496 9.25325V10.3995C18.2518 11.0377 18.2451 11.676 18.2295 12.314L18.2243 12.4837C18.2173 12.6806 18.2085 12.874 18.198 13.1067C18.1543 14.0386 18.0055 14.673 17.7903 15.2312C17.5708 15.8153 17.2265 16.3445 16.7814 16.7817C16.3441 17.2269 15.815 17.5712 15.2309 17.7906C14.6735 18.0068 14.0383 18.1538 13.1073 18.1975L12.4843 18.2237L12.3145 18.229C11.8831 18.2412 11.3835 18.2474 10.3991 18.2491L9.74639 18.25H8.60102C7.9625 18.2523 7.32398 18.2455 6.68564 18.2299L6.51589 18.2246C6.30818 18.2168 6.10051 18.2077 5.89289 18.1975C4.96189 18.1538 4.32664 18.0068 3.76839 17.7906C3.18462 17.571 2.65578 17.2268 2.21877 16.7817C1.77335 16.3446 1.42874 15.8154 1.20902 15.2312C0.992893 14.6739 0.845893 14.0386 0.802143 13.1067L0.775893 12.4837L0.771518 12.314C0.755389 11.676 0.748096 11.0377 0.749643 10.3995V8.6005C0.747221 7.96228 0.753639 7.32405 0.768893 6.686L0.775018 6.51625C0.782018 6.31938 0.790768 6.126 0.801268 5.89325C0.845018 4.96137 0.992018 4.327 1.20814 3.76875C1.42838 3.18442 1.77359 2.65526 2.21964 2.21825C2.6564 1.77336 3.18493 1.42906 3.76839 1.20938C4.32664 0.99325 4.96102 0.84625 5.89289 0.8025C6.12564 0.792 6.31989 0.78325 6.51589 0.77625L6.68564 0.771C7.32369 0.755454 7.96191 0.748745 8.60014 0.750875L10.3991 0.75ZM9.49964 5.125C8.33932 5.125 7.22652 5.58594 6.40605 6.40641C5.58558 7.22688 5.12464 8.33968 5.12464 9.5C5.12464 10.6603 5.58558 11.7731 6.40605 12.5936C7.22652 13.4141 8.33932 13.875 9.49964 13.875C10.66 13.875 11.7728 13.4141 12.5932 12.5936C13.4137 11.7731 13.8746 10.6603 13.8746 9.5C13.8746 8.33968 13.4137 7.22688 12.5932 6.40641C11.7728 5.58594 10.66 5.125 9.49964 5.125ZM9.49964 6.875C9.84436 6.87494 10.1857 6.94278 10.5042 7.07465C10.8227 7.20651 11.1121 7.39982 11.3559 7.64354C11.5997 7.88725 11.7931 8.17659 11.9251 8.49505C12.0571 8.81351 12.125 9.15484 12.1251 9.49956C12.1251 9.84428 12.0573 10.1856 11.9254 10.5041C11.7936 10.8226 11.6003 11.1121 11.3565 11.3558C11.1128 11.5996 10.8235 11.793 10.505 11.925C10.1866 12.057 9.84524 12.1249 9.50052 12.125C8.80433 12.125 8.13665 11.8484 7.64436 11.3562C7.15208 10.8639 6.87552 10.1962 6.87552 9.5C6.87552 8.80381 7.15208 8.13613 7.64436 7.64384C8.13665 7.15156 8.80433 6.875 9.50052 6.875M14.0943 3.8125C13.8042 3.8125 13.526 3.92773 13.3209 4.13285C13.1158 4.33797 13.0005 4.61617 13.0005 4.90625C13.0005 5.19633 13.1158 5.47453 13.3209 5.67965C13.526 5.88477 13.8042 6 14.0943 6C14.3843 6 14.6625 5.88477 14.8677 5.67965C15.0728 5.47453 15.188 5.19633 15.188 4.90625C15.188 4.61617 15.0728 4.33797 14.8677 4.13285C14.6625 3.92773 14.3843 3.8125 14.0943 3.8125Z" fill="#E0F0FF"/>
</svg>
