<svg width="18" height="18" viewBox="0 0 18 18" fill="none" xmlns="http://www.w3.org/2000/svg">
<path d="M15.4813 0.666016C15.9725 0.666016 16.4435 0.861121 16.7908 1.20841C17.1381 1.5557 17.3332 2.02673 17.3332 2.51787V15.4808C17.3332 15.972 17.1381 16.443 16.7908 16.7903C16.4435 17.1376 15.9725 17.3327 15.4813 17.3327H2.51836C2.02721 17.3327 1.55619 17.1376 1.2089 16.7903C0.861609 16.443 0.666504 15.972 0.666504 15.4808V2.51787C0.666504 2.02673 0.861609 1.5557 1.2089 1.20841C1.55619 0.861121 2.02721 0.666016 2.51836 0.666016H15.4813ZM15.0184 15.0179V10.1105C15.0184 9.3099 14.7003 8.54213 14.1343 7.97604C13.5682 7.40996 12.8004 7.09194 11.9998 7.09194C11.2128 7.09194 10.2961 7.57342 9.85169 8.29564V7.26787H7.26836V15.0179H9.85169V10.4531C9.85169 9.74009 10.4258 9.15676 11.1387 9.15676C11.4825 9.15676 11.8122 9.29333 12.0553 9.53643C12.2984 9.77954 12.435 10.1093 12.435 10.4531V15.0179H15.0184ZM4.2591 5.81416C4.67166 5.81416 5.06732 5.65028 5.35904 5.35855C5.65076 5.06683 5.81465 4.67117 5.81465 4.25861C5.81465 3.3975 5.12021 2.69379 4.2591 2.69379C3.84408 2.69379 3.44606 2.85866 3.15261 3.15212C2.85915 3.44558 2.69428 3.84359 2.69428 4.25861C2.69428 5.11972 3.39799 5.81416 4.2591 5.81416ZM5.54613 15.0179V7.26787H2.98132V15.0179H5.54613Z" fill="#E0F0FF"/>
</svg>
