<svg width="229" height="28" viewBox="0 0 229 28" fill="none" xmlns="http://www.w3.org/2000/svg">
<path d="M71.9025 27.4385V0H79.7807C82.8367 6.35126 85.8958 12.6999 88.9581 19.0458H90.3981V0H95.742V27.4385C93.0668 27.4544 90.3901 27.4385 87.7149 27.4385C84.7038 21.0936 81.6969 14.746 78.6943 8.39585H77.2432V27.4385H71.9025ZM28.1162 1.43573C32.0665 -0.291933 36.756 0.478578 40.3272 2.75023C45.4982 6.13696 50.6501 9.55082 55.818 12.9392C57.194 12.2787 58.5721 11.6231 59.9523 10.9722C60.8195 11.7698 61.7747 12.4733 62.5971 13.3172C60.5347 14.2856 58.4804 15.2746 56.4228 16.2525C55.1428 16.8475 53.8805 17.5542 52.4869 17.8781C48.8662 18.8033 44.9543 17.8876 41.8599 15.8824C36.7464 12.526 31.6351 9.16317 26.5258 5.79398C24.8192 6.60118 23.1163 7.41264 21.4171 8.22835C20.5158 7.45624 19.6167 6.68095 18.7196 5.90246C21.8555 4.41887 24.9771 2.91135 28.1162 1.43573ZM189.142 3.37238H194.422V8.63674H197.721V12.7844H194.422V27.4401H189.142V12.7844H185.882V8.63674H189.142C189.143 6.88036 189.138 5.12716 189.142 3.37238ZM200.181 3.37238H205.461V6.72242H200.181C200.18 5.60468 200.18 4.488 200.181 3.37238ZM105.929 8.40223C107.897 7.88696 110.113 8.02416 111.878 9.09617C112.953 9.73428 113.798 10.6914 114.463 11.7427C114.463 10.7058 114.454 9.66887 114.463 8.63355H119.554V27.4369H114.458V24.3165C113.546 25.7906 112.218 27.07 110.534 27.6139C108.161 28.3813 105.414 27.9745 103.406 26.4829C101.358 24.9502 99.9872 22.6839 99.5835 20.1625C99.1659 17.5335 99.4459 14.6892 100.863 12.3888C102.031 10.5431 103.783 8.97334 105.929 8.40223ZM108.841 12.8482C106.87 13.0508 105.203 14.6461 104.743 16.5412C104.15 18.8241 104.995 21.5823 107.166 22.7245C109.762 24.09 113.201 22.6894 114.446 20.1306C114.478 18.7459 114.468 17.358 114.446 15.9829C113.438 13.9505 111.121 12.5898 108.841 12.8482ZM147.587 8.42297C149.584 7.87739 151.846 8.01299 153.637 9.11212C154.693 9.75023 155.523 10.693 156.182 11.7204V8.63674H161.302V27.4385H156.182V24.35C155.331 25.6948 154.149 26.8833 152.648 27.4783C149.84 28.5855 146.424 27.8867 144.279 25.765C142.039 23.6912 141.007 20.5741 141.152 17.5718C141.202 15.4469 141.834 13.3045 143.144 11.6087C144.263 10.1411 145.783 8.9175 147.587 8.42297ZM150.453 12.8626C148.654 13.1003 147.125 14.4945 146.575 16.1967C146.199 17.4151 146.207 18.7189 146.597 19.9328C147.101 21.4993 148.43 22.8266 150.075 23.1488C152.475 23.6641 155.085 22.3161 156.165 20.1481C156.205 18.8161 156.165 17.4809 156.182 16.1488C156.195 15.7691 155.901 15.482 155.702 15.1917C154.512 13.5852 152.467 12.5802 150.453 12.8626ZM170.358 11.7634C171.732 9.73108 174.024 8.29535 176.495 8.13582C178.172 8.03054 179.942 8.4134 181.278 9.47425C182.508 10.4314 183.259 11.899 183.542 13.4129C183.761 14.4738 183.689 15.5618 183.702 16.637V27.4385H178.443V16.6274C178.443 15.5299 178.123 14.3478 177.26 13.6124C176.348 12.8291 175.052 12.7142 173.9 12.8833C172.491 13.0875 171.243 13.9218 170.352 15.0066C170.361 19.1543 170.352 23.302 170.352 27.4385H165.093V8.63514H170.35C170.36 9.67844 170.363 10.7201 170.358 11.7634ZM214.815 8.57293C217.093 7.78806 219.807 7.95875 221.784 9.41522C222.621 10.0501 223.332 10.8345 223.882 11.7283V8.63674H229.002V27.4401H223.882V24.3469C223.01 25.7363 221.773 26.9535 220.211 27.5374C218.971 27.9808 217.639 28.1109 216.336 27.9161C215.033 27.7212 213.798 27.2074 212.743 26.4207C210.786 24.9185 209.467 22.7385 209.045 20.3124C208.548 17.4617 208.914 14.335 210.616 11.9278C211.661 10.4458 213.084 9.17593 214.815 8.57293ZM218.133 12.8642C216.979 13.042 215.932 13.6406 215.195 14.544C213.792 16.2031 213.661 18.7012 214.583 20.6187C215.2 21.8694 216.373 22.8696 217.76 23.144C220.16 23.6689 222.792 22.3193 223.87 20.1386C223.907 18.8097 223.87 17.4777 223.886 16.1504C223.904 15.8042 223.642 15.5426 223.469 15.273C222.272 13.6155 220.186 12.5691 218.133 12.8642ZM121.967 8.63514C123.727 8.63514 125.495 8.64631 127.258 8.63514C128.274 13.4576 129.244 18.2912 130.242 23.1185H131.65C132.639 18.2944 133.629 13.4704 134.62 8.64631H139.96C138.411 14.9082 136.859 21.1723 135.303 27.4385H126.626C125.071 21.1712 123.518 14.9034 121.967 8.63514ZM200.181 8.63674H205.461V27.4385H200.181C200.18 21.1723 200.18 14.905 200.181 8.63674ZM9.2798 10.4091C13.2541 8.61919 18.0108 9.37853 21.6091 11.6853C26.7642 15.0704 31.9145 18.4625 37.06 21.8614C38.4584 21.2313 39.828 20.5406 41.2199 19.8993C42.1063 20.6794 43.0071 21.4403 43.8951 22.2172C41.2551 23.4934 38.604 24.7393 35.9608 26.0043C32.6553 27.6283 28.6618 27.4704 25.3355 25.99C23.8171 25.3519 22.4859 24.374 21.1132 23.4854L7.79344 14.7115C6.0868 15.5208 4.38337 16.3323 2.68314 17.1459C1.79036 16.3753 0.891181 15.6064 0 14.8359C3.09327 13.3555 6.18654 11.8799 9.2798 10.4091Z" fill="#F8F8F8"/>
</svg>
