<svg width="100" height="100" viewBox="0 0 100 100" fill="none" xmlns="http://www.w3.org/2000/svg">
<mask id="mask0_16727_980" style="mask-type:luminance" maskUnits="userSpaceOnUse" x="6" y="6" width="88" height="88">
<path d="M93.3287 6.67188H6.68579V93.3147H93.3287V6.67188Z" fill="white"/>
</mask>
<g mask="url(#mask0_16727_980)">
<mask id="mask1_16727_980" style="mask-type:luminance" maskUnits="userSpaceOnUse" x="6" y="6" width="88" height="88">
<path d="M93.3142 6.68652H6.67139V93.3294H93.3142V6.68652Z" fill="white"/>
</mask>
<g mask="url(#mask1_16727_980)">
<path d="M51.1716 40.4583L56.2001 42.544C56.3858 39.244 59.2001 36.7154 62.5001 36.9011C64.8001 37.0297 66.8144 38.4583 67.7001 40.5868C68.5573 42.7154 68.143 45.144 66.6573 46.8868L72.7144 49.4011L72.8144 49.444L81.7287 27.8583L60.1001 18.9297L56.743 27.2011L56.4858 27.8154L56.4144 27.5297C55.4287 25.1725 52.7287 24.044 50.3573 25.0154C49.3144 25.4583 48.4716 26.2583 47.9716 27.2725C47.1287 29.6868 48.4144 32.3154 50.8287 33.1583C51.9001 33.5297 53.0716 33.5011 54.1144 33.0583L54.4001 32.944L54.2287 33.3583L51.1858 40.4583H51.1716Z" fill="#005DB4"/>
<path d="M48.9143 72.1295C51.2572 71.3581 52.5286 68.8295 51.7429 66.4866C50.9715 64.1438 48.4429 62.8723 46.1 63.6438C45.2143 63.9438 44.4429 64.5009 43.8857 65.2581V57.2295H38.4715C38.5143 57.5295 38.5286 57.8295 38.5286 58.1152C38.5286 62.0581 35.3286 65.2581 31.3857 65.2581C27.4429 65.2581 24.2429 62.0581 24.2429 58.1152C24.2429 57.8152 24.2715 57.5152 24.3 57.2295H18.8857V80.4438H43.8715V70.6295C43.9715 70.7723 44.0715 70.9009 44.1857 71.0152C44.2286 71.1009 44.2857 71.1866 44.3572 71.2723C45.4143 72.2866 46.9143 72.6723 48.3286 72.3009C48.4857 72.3009 48.6286 72.2152 48.7715 72.1723L48.8857 72.1295H48.9143Z" fill="#005DB4"/>
<path d="M59.9573 57.2297C60.1001 57.1297 60.2287 57.0154 60.343 56.9011C60.443 56.8583 60.5287 56.8011 60.6001 56.7297C61.7001 55.5583 62.0573 53.8725 61.543 52.344V52.2154C60.7144 49.9011 58.1573 48.6868 55.843 49.5154C53.5287 50.344 52.3144 52.9011 53.143 55.2154C53.4287 56.0154 53.9287 56.7154 54.6001 57.2297H46.5715V60.8868C46.8715 60.8583 47.1715 60.8297 47.4573 60.8297C51.4001 60.8297 54.6001 64.0297 54.6001 67.9726C54.6001 71.9154 51.4001 75.1154 47.4573 75.1154C47.1573 75.1154 46.8572 75.0868 46.5715 75.0583V80.444H69.7715V57.2297H59.9573Z" fill="#005DB4"/>
<path d="M43.9 38.8154V29.5439H18.9143V54.5439H28.7286C27.6 55.3868 26.9429 56.7154 26.9429 58.1154C26.9429 60.5868 28.9429 62.5725 31.4 62.5725C33.8572 62.5725 35.8572 60.5725 35.8572 58.1154C35.8572 56.7154 35.2 55.3868 34.0715 54.5439H43.8857V45.3725C41.9714 47.1725 38.9857 47.1725 37.0572 45.3725C35.2429 43.6011 35.2143 40.7011 36.9857 38.9011C37.0143 38.8725 37.0429 38.8439 37.0572 38.8297C38.9715 37.0297 41.9572 37.0297 43.8857 38.8297L43.9 38.8154Z" fill="#005DB4"/>
</g>
</g>
</svg>
