<svg width="100" height="100" viewBox="0 0 100 100" fill="none" xmlns="http://www.w3.org/2000/svg">
<path d="M50 17C48.7118 17 47.4764 17.5106 46.5655 18.4194C45.6546 19.3282 45.1429 20.5609 45.1429 21.8462C45.1429 23.6344 46.1191 25.1682 47.5714 26.0114V31.5385H35.4286C28.75 31.5385 23.2857 36.9904 23.2857 43.6538V48.5H16V67.8846H23.2857V80H76.7143V67.8846H84V48.5H76.7143V43.6538C76.7143 36.9904 71.25 31.5385 64.5714 31.5385H52.4286V26.0114C53.8809 25.1682 54.8571 23.6368 54.8571 21.8462C54.8571 20.5609 54.3454 19.3282 53.4345 18.4194C52.5236 17.5106 51.2882 17 50 17ZM35.4286 36.3846H64.5714C68.6223 36.3846 71.8571 39.6122 71.8571 43.6538V75.1538H67V63.0385H33V75.1538H28.1429V43.6538C28.1429 39.6122 31.3777 36.3846 35.4286 36.3846ZM40.2857 46.0769C38.9975 46.0769 37.7621 46.5875 36.8512 47.4963C35.9403 48.4052 35.4286 49.6378 35.4286 50.9231C35.4286 52.2084 35.9403 53.441 36.8512 54.3498C37.7621 55.2587 38.9975 55.7692 40.2857 55.7692C41.5739 55.7692 42.8093 55.2587 43.7202 54.3498C44.6311 53.441 45.1429 52.2084 45.1429 50.9231C45.1429 49.6378 44.6311 48.4052 43.7202 47.4963C42.8093 46.5875 41.5739 46.0769 40.2857 46.0769ZM59.7143 46.0769C58.4261 46.0769 57.1907 46.5875 56.2798 47.4963C55.3689 48.4052 54.8571 49.6378 54.8571 50.9231C54.8571 52.2084 55.3689 53.441 56.2798 54.3498C57.1907 55.2587 58.4261 55.7692 59.7143 55.7692C61.0025 55.7692 62.2379 55.2587 63.1488 54.3498C64.0597 53.441 64.5714 52.2084 64.5714 50.9231C64.5714 49.6378 64.0597 48.4052 63.1488 47.4963C62.2379 46.5875 61.0025 46.0769 59.7143 46.0769ZM20.8571 53.3462H23.2857V63.0385H20.8571V53.3462ZM76.7143 53.3462H79.1429V63.0385H76.7143V53.3462ZM37.8571 67.8846H42.7143V75.1538H37.8571V67.8846ZM47.5714 67.8846H52.4286V75.1538H47.5714V67.8846ZM57.2857 67.8846H62.1429V75.1538H57.2857V67.8846Z" fill="#005DB4"/>
</svg>
