<svg width="100" height="100" viewBox="0 0 100 100" fill="none" xmlns="http://www.w3.org/2000/svg">
<mask id="mask0_16727_1007" style="mask-type:luminance" maskUnits="userSpaceOnUse" x="12" y="12" width="76" height="76">
<path d="M87.3572 12.6289V87.3574H12.6287V12.6289H87.3572Z" fill="white" stroke="white"/>
</mask>
<g mask="url(#mask0_16727_1007)">
<mask id="mask1_16727_1007" style="mask-type:luminance" maskUnits="userSpaceOnUse" x="12" y="12" width="76" height="76">
<path d="M87.3572 12.6436V87.3721H12.6287V12.6436H87.3572Z" fill="white" stroke="white"/>
</mask>
<g mask="url(#mask1_16727_1007)">
<path d="M31.7581 40.9072C32.6208 40.0911 33.8298 39.8008 34.9475 40.125L35.1702 40.1982L38.0735 41.3555C37.983 41.521 37.895 41.6883 37.8079 41.8545L34.9709 40.7217L34.9641 40.7188L34.9563 40.7168L34.7747 40.6572C33.8572 40.3959 32.8483 40.6375 32.1448 41.292L32.1321 41.3047L19.761 53.6904C18.9257 54.5258 18.7406 55.8011 19.3254 56.8262V56.8271C19.8579 57.8744 21.0157 58.409 22.1526 58.1445L22.1536 58.1455L33.0461 55.6826C33.0066 55.8848 32.972 56.0862 32.9368 56.2861L22.2971 58.6973C22.0606 58.7471 21.8094 58.7725 21.5715 58.7725C20.4307 58.7725 19.3855 58.1343 18.8567 57.126L18.8518 57.1162L18.8469 57.1074L18.7239 56.8721C18.1997 55.7613 18.3774 54.4396 19.1819 53.5088L19.3635 53.3154L19.3684 53.3115L31.7571 40.9062L31.7581 40.9072Z" fill="white" stroke="#005DB4"/>
<path d="M33.6714 55.0292L22.0429 57.6578C21.1286 57.8721 20.2 57.4435 19.7714 56.6007C19.2857 55.7721 19.4286 54.7292 20.1143 54.0435L32.4857 41.6578C33.1 41.0864 34 40.9007 34.7857 41.1864L38.0429 42.4864C38.2714 42.0292 38.5286 41.5578 38.7857 41.1007L35.3429 39.7292C33.9857 39.2292 32.4714 39.5435 31.4143 40.5435L19.0143 52.9578C17.8286 54.115 17.5857 55.9292 18.4143 57.3578C19.0286 58.5292 20.2429 59.2721 21.5714 59.2721C21.8429 59.2721 22.1286 59.2435 22.4 59.1864L33.3714 56.7007C33.4572 56.1578 33.5714 55.615 33.6857 55.0292H33.6714Z" stroke="#005DB4" stroke-width="0.64" stroke-miterlimit="10"/>
<path d="M59.9055 64.9521L59.9084 64.9619C60.3585 66.0583 60.1495 67.3069 59.3792 68.2012L59.218 68.376L46.8176 80.79L46.8098 80.7988C45.8863 81.7685 44.4539 82.0339 43.2542 81.4854L43.0168 81.3652L43.0051 81.3584L42.7766 81.2246C41.7441 80.5614 41.1942 79.3538 41.3782 78.1475L41.429 77.8896L41.4319 77.8779L43.8889 66.5732C44.0863 66.5368 44.287 66.4987 44.4905 66.459L41.9827 77.9932C41.8002 78.8226 42.0378 79.6943 42.6047 80.3223L42.7229 80.4443L42.7239 80.4463C43.7669 81.4539 45.4264 81.4164 46.4309 80.377L46.4299 80.376L58.8254 67.9678L58.8245 67.9668C59.5243 67.28 59.7509 66.2584 59.4573 65.3496L59.3918 65.1689L58.0422 61.708C58.2097 61.6202 58.3783 61.5316 58.5452 61.4404L59.9055 64.9521Z" fill="white" stroke="#005DB4"/>
<path d="M58.8 60.7291C58.3429 60.9863 57.8715 61.2434 57.4143 61.472L58.9286 65.3577C59.2429 66.1291 59.0715 67.0291 58.4715 67.6148L46.0715 80.0291C45.2572 80.872 43.9143 80.9006 43.0715 80.0863C42.5429 79.572 42.3143 78.8148 42.4715 78.1006L45.1429 65.8148C44.5715 65.9434 44.0143 66.0434 43.4715 66.1434L40.9429 77.772C40.5572 79.372 41.3143 81.0291 42.7715 81.8006C44.2143 82.6148 46.0286 82.3434 47.1715 81.1434L59.5715 68.7291C60.6143 67.6863 60.9286 66.1291 60.3715 64.772L58.8 60.7148V60.7291Z" stroke="#005DB4" stroke-width="0.64" stroke-miterlimit="10"/>
<path d="M78.0125 18.6055C78.9746 18.5433 79.7373 18.5631 80.3093 18.6543C80.8816 18.7456 81.1968 18.8983 81.3503 19.0449L81.3455 19.0527C81.5349 19.2291 81.682 19.5221 81.741 20.0264C81.8003 20.5338 81.7636 21.2048 81.6306 22.0713C81.431 23.3716 81.0268 25.0375 80.4744 27.125L79.8748 29.3555L79.8738 29.3574L79.4314 31.0146C79.1983 31.8833 78.9414 32.7359 78.6609 33.5723L78.3718 34.4033L77.5027 36.8105C75.2911 42.0751 72.1012 46.8571 68.1169 50.9355L67.3083 51.7432L67.3035 51.7471C58.6594 60.3911 48.3002 63.4495 40.864 64.4561L40.157 64.5469L40.0242 64.5615L34.9958 59.5322L35.0115 59.4014L35.0105 59.4004C35.7357 53.4358 38.3125 42.1582 47.4421 32.7578L47.8826 32.3115L47.8855 32.3086C52.1654 27.9581 57.2488 24.4832 62.8679 22.1094L64.9421 21.418L64.9431 21.4189C66.5198 20.8975 68.0066 20.4634 69.4617 20.1074L70.0837 19.96L70.0847 19.959C73.4456 19.1757 76.09 18.7297 78.0125 18.6055ZM67.073 21.3213C66.7576 21.4145 66.4333 21.5114 66.1033 21.6143L65.0964 21.9414L63.0554 22.627L63.0369 22.6328L63.0183 22.6406C57.8321 24.8478 53.1032 27.9947 49.0691 31.9141L48.2712 32.708C39.1083 41.8875 36.4119 53.0237 35.6189 59.0791L35.5867 59.3232L40.2341 63.9707L40.4783 63.9395C47.8292 62.9882 58.2636 60.0308 66.9255 51.3545L66.9246 51.3535C71.2416 47.1649 74.6645 42.1544 77.0037 36.624L77.2976 35.9297H77.196L77.8093 34.2217L77.8103 34.2227C78.0017 33.722 78.1625 33.224 78.3201 32.7227L78.3845 32.5166L78.2791 32.3281C77.0528 30.1346 75.5583 28.1201 73.8201 26.3086L73.4695 25.9482L73.4675 25.9473L73.1296 25.6152C71.4247 23.968 69.5196 22.5518 67.4636 21.3672L67.2781 21.2607L67.073 21.3213ZM79.7771 19.1357C79.2746 19.1091 78.5972 19.1269 77.74 19.2031C76.2376 19.3367 74.1527 19.652 71.4343 20.2432L70.2302 20.5137C69.8939 20.5869 69.5458 20.6739 69.2166 20.7598L68.1238 21.0449L69.0691 21.6621C70.5942 22.6584 72.0237 23.7841 73.3562 25.0303L73.9216 25.5723C75.4796 27.1593 76.8698 28.916 78.0789 30.7998L78.6912 31.752L78.9832 30.6582L79.3689 29.2158L79.3679 29.2148C79.8524 27.4265 80.4352 25.2893 80.824 23.502C81.0181 22.6094 81.1676 21.7883 81.2312 21.1338C81.2629 20.8076 81.2756 20.5063 81.2566 20.251C81.2391 20.0164 81.1899 19.7335 81.03 19.5176L80.988 19.46L80.9304 19.417L80.8113 19.3418C80.6868 19.2765 80.5487 19.2379 80.4255 19.2119C80.2458 19.174 80.0278 19.1491 79.7771 19.1357Z" fill="white" stroke="#005DB4"/>
<path d="M78.8857 29.0866L78.5 30.5295C77.2714 28.6152 75.8572 26.8295 74.2714 25.2152C72.7572 23.7295 71.1143 22.4009 69.3429 21.2438C69.6714 21.1581 70.0143 21.0723 70.3429 21.0009C76.9429 19.4723 80.1571 19.4581 80.6286 19.8152C81.2 20.5866 79.8572 25.5009 78.8857 29.0866ZM76.5429 36.4295C74.2286 41.9009 70.8429 46.8581 66.5714 51.0009C58.0143 59.5723 47.7 62.5009 40.4143 63.4438L36.1143 59.1438C36.9 53.1438 39.5714 42.1295 48.6286 33.0581C52.7857 28.8152 57.7429 25.4295 63.2143 23.1009L65.2571 22.4152C65.9286 22.1866 66.5857 21.9866 67.2143 21.8009C69.3714 23.0438 71.3571 24.5438 73.1143 26.3009C74.9714 28.1723 76.5572 30.2723 77.8429 32.5723C77.6857 33.0723 77.5286 33.5581 77.3429 34.0438L76.4857 36.4295H76.5429ZM81.7143 18.7009C80.6714 17.6581 76.7143 17.9009 69.9714 19.4723C68.3 19.8581 66.6 20.3438 64.7857 20.9438L62.6857 21.6438C57 24.0438 51.8572 27.5581 47.5286 31.9581C37.9286 41.5581 35.2572 53.2295 34.5143 59.3438L34.4714 59.7152L39.8429 65.0866L40.2143 65.0438C47.7571 64.1295 58.6286 61.1295 67.6571 52.1009C72.0714 47.8009 75.5857 42.6723 77.9714 36.9866L78.8429 34.5723C79.2429 33.4581 79.6 32.3152 79.9143 31.1438L80.3572 29.4866C82.0714 23.1723 82.9143 19.8295 81.6857 18.6866L81.7143 18.7009Z" stroke="#005DB4" stroke-width="0.64" stroke-miterlimit="10"/>
<path d="M33.5413 62.0693V62.0684C33.9978 62.1267 34.2741 62.4521 34.5803 62.9395L34.7141 63.1582C34.8503 63.4146 35.0075 63.6448 35.178 63.8584H34.7708L36.3616 64.79C36.9535 65.1365 37.3626 65.3994 37.4729 65.8623L37.4905 65.957C37.5542 66.4428 37.2948 67.0699 36.1965 68.2109C34.7624 69.5943 33.2004 70.8177 31.5286 71.8711L30.803 72.3135L30.802 72.3145C29.0865 73.3353 27.8425 73.7725 27.0286 73.7725H27.0129C26.6841 73.7827 26.3653 73.6717 26.1282 73.4502C25.8274 73.1179 25.7477 72.5164 26.0061 71.5771C26.2591 70.658 26.7957 69.5735 27.4631 68.4746C28.6297 66.5539 30.1377 64.6813 31.0178 63.7217L31.3538 63.3691C32.4646 62.2583 33.0678 62.0138 33.5413 62.0693ZM36.9573 65.8691L36.762 65.7188C36.5537 65.5586 36.3306 65.4148 36.093 65.2881H36.092C35.7295 65.0937 35.3787 64.8465 35.053 64.5469L34.9836 64.4834C34.7082 64.1821 34.4702 63.8474 34.2639 63.4834H34.2629C34.1278 63.2188 33.9586 62.9818 33.7532 62.7764L33.4993 62.5215L33.176 62.6826C32.6419 62.9498 32.151 63.3267 31.7639 63.7871C30.3375 65.2163 28.9105 67.1823 27.8928 68.8994C27.3824 69.7607 26.9662 70.5744 26.7034 71.2383C26.5726 71.5687 26.4734 71.8776 26.4231 72.1455C26.3779 72.3862 26.3497 72.7005 26.4797 72.9648L26.5559 73.1191L26.7112 73.1943C26.9722 73.3202 27.282 73.2827 27.5071 73.2363C27.7634 73.1835 28.0606 73.0837 28.3801 72.9531C29.0223 72.6906 29.8157 72.278 30.6633 71.7686C32.2251 70.8298 34.017 69.5339 35.4514 68.1738L35.4768 68.1992L35.8303 67.835C36.827 66.8094 36.9573 66.3409 36.9573 66.1152V65.8691Z" fill="white" stroke="#005DB4"/>
<path d="M35.4572 67.4724C32.5572 70.3724 27.7287 73.1296 26.9287 72.7438C26.5001 71.8724 29.343 66.9153 32.1287 64.1296C32.4715 63.7153 32.9144 63.3724 33.4001 63.1296C33.5715 63.301 33.7144 63.501 33.8287 63.7296C34.0715 64.1581 34.3572 64.5581 34.7001 64.9153H34.7144C35.0715 65.2438 35.4572 65.5153 35.8572 65.7296C36.0715 65.8438 36.2715 65.9724 36.4572 66.1153C36.4572 66.1296 36.4572 66.4724 35.4715 67.4867L35.4572 67.4724ZM36.6287 64.3581C36.3287 64.201 36.043 64.001 35.7715 63.7867C35.5287 63.5153 35.3144 63.2296 35.143 62.901C34.8001 62.3296 34.4001 61.6724 33.6001 61.5724C32.8715 61.4867 32.1144 61.901 31.0001 63.0153C29.3858 64.6296 23.7858 71.6724 25.7715 73.801C26.1144 74.1296 26.5715 74.2867 27.0287 74.2724C27.9858 74.2724 29.3287 73.7724 31.0572 72.7438C33.043 71.5724 34.8858 70.1724 36.5572 68.5581C37.6572 67.4153 38.0858 66.6296 37.9858 65.8867C37.8715 65.0867 37.2001 64.701 36.6144 64.3581H36.6287Z" stroke="#005DB4" stroke-width="0.64" stroke-miterlimit="10"/>
<path d="M60.2068 32.3174C62.1425 30.4377 65.2425 30.452 67.1736 32.3672V32.3682C69.1073 34.3149 69.1088 37.4542 67.1775 39.4023C66.2434 40.3234 64.9987 40.83 63.6863 40.8301V40.8291L63.6765 40.8301C62.428 40.8543 61.221 40.3894 60.2927 39.5488L60.1111 39.376C58.1928 37.4436 58.2058 34.3181 60.1384 32.3984L60.196 32.3408L60.2068 32.3174ZM63.6365 31.5293C62.5505 31.5176 61.5073 31.915 60.7048 32.6406L60.5466 32.79L60.4714 32.8652C58.7624 34.6067 58.8123 37.408 60.5496 39.0996V39.1006C62.0219 40.5457 64.252 40.7333 65.9285 39.707V39.8779L66.7791 39.0439C67.5822 38.256 68.0417 37.1862 68.0828 36.0742L68.0857 35.8516V35.8486L68.0759 35.623C67.9137 33.3182 65.9879 31.5048 63.6492 31.5293H63.6365Z" fill="white" stroke="#005DB4"/>
<path d="M66.4287 38.6725C64.9287 40.2154 62.443 40.2582 60.9001 38.7439C59.3572 37.2439 59.3144 34.7582 60.8287 33.2154C60.8572 33.1868 60.8715 33.1725 60.9001 33.1439C61.6287 32.4154 62.6144 32.0154 63.643 32.0297C65.7858 32.0011 67.543 33.7154 67.5858 35.8582C67.6001 36.9154 67.1858 37.9439 66.4287 38.6868V38.6725ZM59.7858 32.0439C57.6572 34.1582 57.643 37.6011 59.7572 39.7297C60.8001 40.7725 62.2144 41.3582 63.6858 41.3297C65.1287 41.3297 66.5001 40.7725 67.5287 39.7582C69.6572 37.6154 69.6572 34.1582 67.5287 32.0154C65.3858 29.8868 61.9287 29.8868 59.8001 32.0154L59.7858 32.0439Z" stroke="#005DB4" stroke-width="0.64" stroke-miterlimit="10"/>
</g>
</g>
</svg>
