<svg width="100" height="100" viewBox="0 0 100 100" fill="none" xmlns="http://www.w3.org/2000/svg">
<mask id="mask0_16727_832" style="mask-type:luminance" maskUnits="userSpaceOnUse" x="0" y="0" width="100" height="100">
<path d="M100 0H0V100H100V0Z" fill="white"/>
</mask>
<g mask="url(#mask0_16727_832)">
<mask id="mask1_16727_832" style="mask-type:luminance" maskUnits="userSpaceOnUse" x="0" y="0" width="100" height="100">
<path d="M100 0H0V99.9821H100V0Z" fill="white"/>
</mask>
<g mask="url(#mask1_16727_832)">
<path d="M76.9294 86.2578L47.4892 86.2219C46.7716 86.2219 46.0719 86.0964 45.4081 85.8631L23.0722 77.8438C21.4217 77.2517 20.3274 75.673 20.3453 73.9148L20.4171 67.528C20.435 65.8057 21.5294 64.2808 23.144 63.6888L45.3901 55.6694C45.9284 55.49 46.5024 55.3644 47.0765 55.3465H76.9474C81.1096 55.472 85.0565 57.1943 87.9628 60.1724C90.8512 63.0608 92.4479 66.9898 92.3941 71.0802C92.1968 79.4943 85.3435 86.2219 76.9294 86.2578ZM51.2028 52.2248V51.2022C51.2028 50.072 52.1178 49.1391 53.266 49.1391H58.4149V49.1749H64.5864V49.1391H69.7353C70.8656 49.1391 71.7985 50.054 71.7985 51.2022V52.2248C71.7985 52.5836 71.8702 52.9604 71.9958 53.3012H50.9876C51.1131 52.9604 51.1849 52.6016 51.1849 52.2248H51.2028ZM76.463 53.2474H74.8842C74.3101 53.2474 73.8616 52.781 73.8616 52.2248V51.2022C73.8616 48.9238 72.0138 47.0759 69.7353 47.0759H64.5864V35.8631C64.0841 35.8093 63.5638 35.7734 63.0615 35.7734C62.8821 35.7734 62.7027 35.7734 62.5412 35.7734V47.058H60.4781V36.0246C59.886 36.1681 59.3119 36.3655 58.7558 36.5808L58.4149 36.7063V47.04H53.266C50.9876 47.04 49.1397 48.8879 49.1397 51.1663V52.1889C49.1397 52.763 48.6732 53.2115 48.1171 53.2115H47.5071C46.5563 53.2115 45.6054 53.373 44.7084 53.6959L22.4623 61.7153C20.0224 62.5944 18.4077 64.8908 18.3718 67.4742V69.6988H12.0747V60.4595C12.0747 59.8854 11.6083 59.4369 11.0521 59.4369C10.496 59.4369 10.0295 59.9033 10.0295 60.4595V81.073C10.0295 81.6471 10.496 82.0956 11.0521 82.0956C11.6083 82.0956 12.0747 81.6292 12.0747 81.073V71.762H18.318V73.861C18.2642 76.4982 19.9147 78.8664 22.3905 79.7455L44.7084 87.7648C45.6054 88.0878 46.5383 88.2492 47.4892 88.2492L76.9294 88.2851C86.4917 88.2851 94.2778 80.6425 94.4572 71.0802C94.6366 61.2489 86.2943 53.2115 76.463 53.2115V53.2474Z" fill="#005DB4"/>
<path d="M46.0537 73.861C44.3493 73.861 42.9679 72.4796 42.9679 70.7752C42.9679 69.0709 44.3493 67.6895 46.0537 67.6895C47.758 67.6895 49.1394 69.0709 49.1394 70.7752C49.1394 72.4796 47.758 73.861 46.0537 73.861ZM46.0537 65.6084C43.2012 65.6084 40.9048 67.9227 40.9048 70.7573C40.9048 73.5919 43.2012 75.9062 46.0537 75.9062C48.9062 75.9062 51.2026 73.5919 51.2026 70.7573C51.2026 67.9048 48.8883 65.6084 46.0537 65.6084Z" fill="#005DB4"/>
<path d="M61.6438 73.861C59.9394 73.861 58.558 72.4796 58.558 70.7752C58.558 69.0709 59.9394 67.6895 61.6438 67.6895C63.3481 67.6895 64.7295 69.0709 64.7295 70.7752C64.7295 72.4796 63.3481 73.861 61.6438 73.861ZM61.6438 65.6084C58.7913 65.6084 56.4949 67.9227 56.4949 70.7573C56.4949 73.5919 58.7913 75.9062 61.6438 75.9062C64.4963 75.9062 66.7927 73.5919 66.7927 70.7573C66.7927 67.9048 64.4784 65.6084 61.6438 65.6084Z" fill="#005DB4"/>
<path d="M76.5881 73.861C74.8838 73.861 73.5024 72.4796 73.5024 70.7752C73.5024 69.0709 74.8838 67.6895 76.5881 67.6895C78.2925 67.6895 79.6739 69.0709 79.6739 70.7752C79.6739 72.4796 78.2925 73.861 76.5881 73.861ZM76.5881 65.6084C73.7356 65.6084 71.4392 67.9227 71.4392 70.7573C71.4392 73.5919 73.7356 75.9062 76.5881 75.9062C79.4406 75.9062 81.737 73.5919 81.737 70.7573C81.737 67.9048 79.4227 65.6084 76.5881 65.6084Z" fill="#005DB4"/>
<path d="M60.4598 22.3359C60.4598 18.9272 63.2226 16.1643 66.6313 16.1464H70.7576V18.2096H66.6313C64.3528 18.2096 62.505 20.0574 62.505 22.3359V29.6017C62.6844 29.6017 62.8458 29.6017 63.0252 29.6017C63.5814 29.6017 64.0837 29.6197 64.5502 29.6556V22.3538C64.5502 21.2236 65.4651 20.2907 66.6133 20.2907H72.7848V14.1191H66.6133C62.0565 14.1191 58.3787 17.8149 58.3787 22.3538V30.1938C59.0604 29.9964 59.7421 29.8708 60.4418 29.7632V22.3538L60.4598 22.3359Z" fill="#005DB4"/>
<path d="M90.4382 32.742C86.7246 31.2709 82.5983 31.2709 78.9025 32.742C75.6733 34.0337 72.0672 34.0337 68.82 32.742C66.9901 31.9706 65.0346 31.5938 63.0432 31.6476C61.0697 31.5938 59.0963 31.9706 57.2664 32.742C55.6697 33.4237 53.9474 33.7467 52.2251 33.7108C50.5028 33.7467 48.7805 33.4237 47.1838 32.742C45.3539 31.9706 43.3984 31.5938 41.407 31.6476C39.4336 31.6118 37.4601 31.9706 35.6481 32.742C34.0514 33.4237 32.3292 33.7467 30.6069 33.7108C28.8846 33.7467 27.1623 33.4237 25.5656 32.742C23.7357 31.9706 21.7802 31.5938 19.7888 31.6476C17.8153 31.5938 15.8419 31.9706 14.012 32.742C12.4153 33.4237 10.693 33.7467 8.9707 33.7108V35.7739C10.9442 35.8278 12.9176 35.451 14.7475 34.6796C16.3442 33.9978 18.0665 33.6749 19.7888 33.7108C21.5111 33.6749 23.2334 33.9978 24.83 34.6796C26.66 35.451 28.6155 35.8278 30.6069 35.7739C32.5803 35.8278 34.5538 35.451 36.3658 34.6796C37.9625 33.9978 39.6847 33.6749 41.407 33.7108C43.1472 33.6749 44.8516 33.9978 46.4483 34.6796C48.2782 35.451 50.2337 35.8278 52.2251 35.7739C54.1986 35.8278 56.172 35.451 58.0019 34.6796C61.2312 33.3879 64.8372 33.3879 68.0845 34.6796C71.7981 36.1507 75.9244 36.1507 79.6201 34.6796C82.8494 33.3879 86.4555 33.3879 89.6847 34.6796C91.5147 35.451 93.4702 35.8278 95.4616 35.7739V33.7108C93.7393 33.7467 92.017 33.4237 90.4203 32.742H90.4382Z" fill="#005DB4"/>
</g>
</g>
</svg>
