<svg width="18" height="18" viewBox="0 0 18 18" fill="none" xmlns="http://www.w3.org/2000/svg">
<path fill-rule="evenodd" clip-rule="evenodd" d="M16.1392 2.19368C16.2188 2.10262 16.2797 1.99678 16.3184 1.88218C16.3572 1.76758 16.3729 1.64647 16.3648 1.52578C16.3568 1.40509 16.325 1.28717 16.2713 1.17875C16.2177 1.07034 16.1432 0.973552 16.0521 0.893922C15.9611 0.814293 15.8552 0.753378 15.7406 0.714656C15.626 0.675934 15.5049 0.660162 15.3842 0.668243C15.2635 0.676323 15.1456 0.708097 15.0372 0.76175C14.9288 0.815403 14.832 0.889884 14.7524 0.980941L10.0469 6.35862L6.05325 1.03435C5.96748 0.919986 5.85625 0.827162 5.72839 0.763231C5.60053 0.699299 5.45954 0.666016 5.31658 0.666016H1.63324C1.46223 0.666016 1.2946 0.713636 1.14913 0.803542C1.00366 0.893447 0.886096 1.02208 0.809618 1.17504C0.73314 1.328 0.700766 1.49923 0.716124 1.66955C0.731481 1.83987 0.793964 2.00254 0.89657 2.13935L6.82399 10.042L1.86069 15.7143C1.78106 15.8054 1.72014 15.9112 1.68142 16.0258C1.6427 16.1404 1.62692 16.2615 1.63501 16.3822C1.64309 16.5029 1.67486 16.6208 1.72851 16.7292C1.78217 16.8377 1.85665 16.9344 1.9477 17.0141C2.03876 17.0937 2.14461 17.1546 2.25921 17.1933C2.37381 17.2321 2.49491 17.2478 2.61561 17.2398C2.7363 17.2317 2.85422 17.1999 2.96263 17.1462C3.07105 17.0926 3.16783 17.0181 3.24746 16.9271L7.95293 11.5485L11.9466 16.8727C12.0324 16.9871 12.1436 17.0799 12.2715 17.1438C12.3993 17.2078 12.5403 17.2411 12.6833 17.2411H16.3666C16.5376 17.2411 16.7053 17.1934 16.8507 17.1035C16.9962 17.0136 17.1138 16.885 17.1902 16.732C17.2667 16.5791 17.2991 16.4078 17.2837 16.2375C17.2684 16.0672 17.2059 15.9045 17.1033 15.7677L11.1759 7.86511L16.1392 2.19368ZM13.1437 15.3994L3.47491 2.50769H4.85616L14.5249 15.3994H13.1437Z" fill="#E0F0FF"/>
</svg>
