<svg width="18" height="12" viewBox="0 0 18 12" fill="none" xmlns="http://www.w3.org/2000/svg">
<path d="M7.33317 8.49935L11.6582 5.99935L7.33317 3.49935V8.49935ZM16.9665 1.97435C17.0748 2.36602 17.1498 2.89102 17.1998 3.55768C17.2582 4.22435 17.2832 4.79935 17.2832 5.29935L17.3332 5.99935C17.3332 7.82435 17.1998 9.16602 16.9665 10.0243C16.7582 10.7743 16.2748 11.2577 15.5248 11.466C15.1332 11.5743 14.4165 11.6493 13.3165 11.6993C12.2332 11.7577 11.2415 11.7827 10.3248 11.7827L8.99984 11.8327C5.50817 11.8327 3.33317 11.6993 2.47484 11.466C1.72484 11.2577 1.2415 10.7743 1.03317 10.0243C0.924837 9.63268 0.849837 9.10768 0.799837 8.44102C0.741504 7.77435 0.716504 7.19935 0.716504 6.69935L0.666504 5.99935C0.666504 4.17435 0.799837 2.83268 1.03317 1.97435C1.2415 1.22435 1.72484 0.741016 2.47484 0.532682C2.8665 0.424349 3.58317 0.349349 4.68317 0.299349C5.7665 0.241016 6.75817 0.216016 7.67484 0.216016L8.99984 0.166016C12.4915 0.166016 14.6665 0.299349 15.5248 0.532682C16.2748 0.741016 16.7582 1.22435 16.9665 1.97435Z" fill="#E0F0FF"/>
</svg>
